<svg xmlns="http://www.w3.org/2000/svg" viewBox="0 0 619.16 649.33"><defs><style>.cls-1{fill:none;stroke:#fff;stroke-miterlimit:10;stroke-width:0.5px;}.cls-2{fill:#3fa9f5;}.cls-2,.cls-3,.cls-4,.cls-5{opacity:0.5;}.cls-3{fill:#7ac943;}.cls-4{fill:#ff931e;}.cls-5{fill:#ff7bac;}.cls-6,.cls-8{font-size:27px;fill:#fff;}.cls-6{font-family:ArialMT, Arial;}.cls-7{letter-spacing:-0.11em;}.cls-8{font-family:Arial-BoldMT, Arial;font-weight:700;}</style></defs><title>bar chart</title><g id="Layer_2" data-name="Layer 2"><g id="Layer_1-2" data-name="Layer 1"><line class="cls-1" x1="154.66" y1="565.61" x2="619.16" y2="566.11"/><rect class="cls-2" x="200.16" y="277.11" width="86" height="288"/><rect class="cls-3" x="292.66" y="554.61" width="86" height="10"/><rect class="cls-4" x="385.66" y="356.61" width="86" height="209"/><rect class="cls-5" x="476.66" y="276.61" width="86" height="288"/><text class="cls-6" transform="translate(148.13 23.17)"><tspan class="cls-7">T</tspan><tspan x="13.5" y="0">otaal aantal domeinen:</tspan></text><line class="cls-1" x1="155.16" y1="101.61" x2="154.66" y2="566.11"/><text class="cls-6" transform="translate(0 113.17)">10 000 000</text><text class="cls-6" transform="translate(15.02 340.17)">5 000 000</text><text class="cls-6" transform="translate(120.12 579.17)">0</text><text class="cls-6" transform="matrix(0.72, -0.69, 0.69, 0.72, 229.98, 642.99)">.com</text><text class="cls-6" transform="matrix(0.72, -0.69, 0.69, 0.72, 319.98, 642.99)">.nl</text><text class="cls-6" transform="matrix(0.72, -0.69, 0.69, 0.72, 419.98, 642.99)">.eu</text><text class="cls-6" transform="matrix(0.72, -0.69, 0.69, 0.72, 508.98, 642.99)">.ru</text><text class="cls-8" transform="translate(148.13 59.17)">142 000 000 000</text></g></g></svg>