<svg id="Layer_1" data-name="Layer 1" xmlns="http://www.w3.org/2000/svg" viewBox="0 0 560 560"><defs><style>.cls-1{font-size:60px;}.cls-1,.cls-2,.cls-4,.cls-5,.cls-6,.cls-7,.cls-8,.cls-9{fill:#fff;}.cls-1,.cls-5,.cls-8,.cls-9{font-family:Arial-BoldMT, Arial;font-weight:700;}.cls-2{font-size:18px;}.cls-2,.cls-6{font-family:ArialMT, Arial;}.cls-3{letter-spacing:-0.07em;}.cls-4{stroke:#fff;stroke-linecap:round;stroke-miterlimit:10;stroke-width:2px;}.cls-5{font-size:36px;}.cls-6{font-size:33px;}.cls-8{font-size:48px;}.cls-9{font-size:24px;}</style></defs><title>Data</title><text class="cls-1" transform="translate(221.93 85.5)">55%</text><text class="cls-2" transform="translate(96.55 111.16)"><tspan class="cls-3">V</tspan><tspan x="10.67" y="0">an het totaal aantal top-level domeinen zal </tspan><tspan x="87.39" y="21.6">onbereikbaar worden.</tspan></text><line class="cls-4" x1="101.49" y1="152.29" x2="450.88" y2="152.29"/><text class="cls-5" transform="translate(102.66 198.65)">35%</text><text class="cls-6" transform="translate(102.93 236.29)">.com</text><text class="cls-5" transform="translate(208.47 198.79)">5%</text><text class="cls-6" transform="translate(217.06 236.42)">.nl</text><text class="cls-5" transform="translate(297.91 196.65)">3%</text><text class="cls-6" transform="translate(304.67 234.29)">.ru</text><text class="cls-5" transform="translate(387.67 197.52)">2%</text><text class="cls-6" transform="translate(391.67 235.15)">.se</text><line class="cls-4" x1="191.12" y1="170.31" x2="191.12" y2="236.42"/><line class="cls-4" x1="279.21" y1="170.31" x2="279.21" y2="236.42"/><line class="cls-4" x1="368.8" y1="170.31" x2="368.8" y2="236.42"/><path class="cls-7" d="M100.64,270.75V257.87h4.43a11.06,11.06,0,0,1,2.3.18,4.31,4.31,0,0,1,1.89.93,5.1,5.1,0,0,1,1.52,2.2,8.54,8.54,0,0,1,.51,3.06,9.26,9.26,0,0,1-.34,2.6,6.57,6.57,0,0,1-.88,1.88,4.84,4.84,0,0,1-1.18,1.17,4.64,4.64,0,0,1-1.53.64,8.71,8.71,0,0,1-2.07.22Zm1.7-1.52h2.75a7,7,0,0,0,2-.23,3,3,0,0,0,1.16-.67,4.1,4.1,0,0,0,.94-1.63,7.89,7.89,0,0,0,.34-2.49,6,6,0,0,0-.66-3.1,3.36,3.36,0,0,0-1.62-1.46,6.79,6.79,0,0,0-2.2-.26h-2.71Z"/><path class="cls-7" d="M119.82,267.75l1.64.2a4,4,0,0,1-1.44,2.22,4.84,4.84,0,0,1-5.91-.47,4.92,4.92,0,0,1-1.2-3.53,5.17,5.17,0,0,1,1.21-3.66,4.1,4.1,0,0,1,3.15-1.3,4,4,0,0,1,3,1.27,5.08,5.08,0,0,1,1.19,3.59c0,.09,0,.23,0,.42h-7a3.62,3.62,0,0,0,.87,2.36,2.6,2.6,0,0,0,2,.81,2.46,2.46,0,0,0,1.49-.45A3,3,0,0,0,119.82,267.75Zm-5.19-2.56h5.21a3.16,3.16,0,0,0-.6-1.77,2.4,2.4,0,0,0-2-.91,2.51,2.51,0,0,0-1.83.73A2.91,2.91,0,0,0,114.63,265.19Z"/><path class="cls-7" d="M134.83,267.75l1.64.2a4,4,0,0,1-1.43,2.22,4.31,4.31,0,0,1-2.68.79,4.26,4.26,0,0,1-3.24-1.26,4.92,4.92,0,0,1-1.2-3.53,5.17,5.17,0,0,1,1.21-3.66,4.1,4.1,0,0,1,3.15-1.3,4,4,0,0,1,3.06,1.27,5.08,5.08,0,0,1,1.18,3.59c0,.09,0,.23,0,.42h-7a3.62,3.62,0,0,0,.87,2.36,2.6,2.6,0,0,0,2,.81,2.46,2.46,0,0,0,1.49-.45A3,3,0,0,0,134.83,267.75Zm-5.19-2.56h5.21a3.16,3.16,0,0,0-.6-1.77,2.4,2.4,0,0,0-2-.91,2.51,2.51,0,0,0-1.83.73A2.91,2.91,0,0,0,129.64,265.19Z"/><path class="cls-7" d="M144.55,267.33l1.55.21a4,4,0,0,1-1.3,2.51,3.79,3.79,0,0,1-2.58.91,4,4,0,0,1-3.08-1.25,5.06,5.06,0,0,1-1.17-3.59,6.51,6.51,0,0,1,.5-2.64,3.49,3.49,0,0,1,1.53-1.7,4.49,4.49,0,0,1,2.23-.57,3.81,3.81,0,0,1,2.48.77,3.49,3.49,0,0,1,1.24,2.18l-1.54.24a2.54,2.54,0,0,0-.77-1.42,2.07,2.07,0,0,0-1.35-.47,2.41,2.41,0,0,0-1.94.86,4,4,0,0,0-.75,2.71,4.21,4.21,0,0,0,.72,2.73,2.34,2.34,0,0,0,1.88.85,2.24,2.24,0,0,0,1.56-.57A2.84,2.84,0,0,0,144.55,267.33Z"/><path class="cls-7" d="M146.87,266.09a4.81,4.81,0,0,1,1.44-3.84,4.29,4.29,0,0,1,2.93-1,4.18,4.18,0,0,1,3.15,1.26,4.81,4.81,0,0,1,1.22,3.48,6.18,6.18,0,0,1-.54,2.84,3.79,3.79,0,0,1-1.57,1.6,4.6,4.6,0,0,1-2.26.57,4.17,4.17,0,0,1-3.16-1.25A5,5,0,0,1,146.87,266.09Zm1.62,0a4,4,0,0,0,.78,2.68,2.61,2.61,0,0,0,3.93,0A4,4,0,0,0,154,266a3.87,3.87,0,0,0-.79-2.62,2.53,2.53,0,0,0-2-.89,2.5,2.5,0,0,0-2,.89A4,4,0,0,0,148.49,266.09Z"/><path class="cls-7" d="M157.47,270.75v-9.33h1.42v1.33a3.36,3.36,0,0,1,3-1.54,3.93,3.93,0,0,1,1.55.3,2.4,2.4,0,0,1,1.06.8,2.88,2.88,0,0,1,.49,1.17,8.74,8.74,0,0,1,.09,1.53v5.74h-1.58v-5.67a4.08,4.08,0,0,0-.19-1.45,1.5,1.5,0,0,0-.65-.76,2,2,0,0,0-1.1-.29,2.55,2.55,0,0,0-1.75.64,3.17,3.17,0,0,0-.73,2.44v5.09Z"/><path class="cls-7" d="M166.89,266.09a4.81,4.81,0,0,1,1.44-3.84,4.3,4.3,0,0,1,2.94-1,4.17,4.17,0,0,1,3.14,1.26,4.76,4.76,0,0,1,1.22,3.48,6.18,6.18,0,0,1-.54,2.84,3.79,3.79,0,0,1-1.57,1.6,4.59,4.59,0,0,1-2.25.57,4.17,4.17,0,0,1-3.17-1.25A5,5,0,0,1,166.89,266.09Zm1.62,0a3.92,3.92,0,0,0,.79,2.68,2.48,2.48,0,0,0,2,.89,2.53,2.53,0,0,0,2-.89A4.09,4.09,0,0,0,174,266a3.82,3.82,0,0,0-.79-2.62,2.51,2.51,0,0,0-1.95-.89,2.48,2.48,0,0,0-2,.89A3.9,3.9,0,0,0,168.51,266.09Z"/><path class="cls-7" d="M177.49,270.75v-9.33h1.41v1.31a3.33,3.33,0,0,1,1.17-1.1,3.28,3.28,0,0,1,1.66-.42,3,3,0,0,1,1.7.43,2.29,2.29,0,0,1,.94,1.2,3.35,3.35,0,0,1,2.88-1.63,2.82,2.82,0,0,1,2.14.77,3.27,3.27,0,0,1,.75,2.37v6.4h-1.58v-5.88a4.4,4.4,0,0,0-.15-1.36,1.32,1.32,0,0,0-.56-.68,1.75,1.75,0,0,0-.95-.25,2.21,2.21,0,0,0-1.63.65,2.87,2.87,0,0,0-.65,2.1v5.42H183v-6.06a2.73,2.73,0,0,0-.38-1.58,1.48,1.48,0,0,0-1.27-.53,2.31,2.31,0,0,0-1.23.35,2,2,0,0,0-.83,1,5.79,5.79,0,0,0-.25,2v4.84Z"/><path class="cls-7" d="M192.49,259.69v-1.82h1.58v1.82Zm0,11.06v-9.33h1.58v9.33Z"/><path class="cls-7" d="M195.85,268l1.56-.25a2.19,2.19,0,0,0,.74,1.44,2.51,2.51,0,0,0,1.68.5,2.45,2.45,0,0,0,1.62-.44,1.32,1.32,0,0,0,.52-1,1,1,0,0,0-.46-.85,7.29,7.29,0,0,0-1.62-.53,14.87,14.87,0,0,1-2.41-.76,2.35,2.35,0,0,1-1-.89,2.38,2.38,0,0,1-.35-1.25,2.43,2.43,0,0,1,.29-1.16,2.53,2.53,0,0,1,.78-.88,3.11,3.11,0,0,1,1-.46,4.68,4.68,0,0,1,1.37-.19,5.47,5.47,0,0,1,1.93.31,2.68,2.68,0,0,1,1.22.86,3.26,3.26,0,0,1,.55,1.45l-1.55.21a1.69,1.69,0,0,0-.61-1.13,2.23,2.23,0,0,0-1.43-.4,2.58,2.58,0,0,0-1.55.36,1.05,1.05,0,0,0-.47.84,1,1,0,0,0,.19.56,1.43,1.43,0,0,0,.61.42c.16.06.62.19,1.4.4a19.2,19.2,0,0,1,2.34.74A2.23,2.23,0,0,1,203.6,268a2.62,2.62,0,0,1-.46,1.49,2.93,2.93,0,0,1-1.33,1.08,4.78,4.78,0,0,1-2,.38,4.4,4.4,0,0,1-2.77-.75A3.49,3.49,0,0,1,195.85,268Z"/><path class="cls-7" d="M211.57,267.33l1.56.21a4,4,0,0,1-1.31,2.51,3.79,3.79,0,0,1-2.58.91,4,4,0,0,1-3.08-1.25,5.1,5.1,0,0,1-1.16-3.59,6.35,6.35,0,0,1,.5-2.64,3.42,3.42,0,0,1,1.52-1.7,4.54,4.54,0,0,1,2.23-.57,3.84,3.84,0,0,1,2.49.77,3.53,3.53,0,0,1,1.24,2.18l-1.54.24a2.61,2.61,0,0,0-.78-1.42,2,2,0,0,0-1.35-.47,2.44,2.44,0,0,0-1.94.86,4,4,0,0,0-.75,2.71,4.21,4.21,0,0,0,.72,2.73,2.35,2.35,0,0,0,1.89.85,2.21,2.21,0,0,0,1.55-.57A2.79,2.79,0,0,0,211.57,267.33Z"/><path class="cls-7" d="M214.48,270.75V257.87h1.58v4.62a3.55,3.55,0,0,1,2.8-1.28,3.68,3.68,0,0,1,1.8.41,2.38,2.38,0,0,1,1.09,1.13,5.17,5.17,0,0,1,.33,2.09v5.91H220.5v-5.91a2.47,2.47,0,0,0-.51-1.73,1.93,1.93,0,0,0-1.46-.54,2.49,2.49,0,0,0-1.32.37,2,2,0,0,0-.88,1,4.47,4.47,0,0,0-.27,1.73v5.1Z"/><path class="cls-7" d="M230.88,267.75l1.64.2a4,4,0,0,1-1.44,2.22,4.86,4.86,0,0,1-5.92-.47,4.92,4.92,0,0,1-1.2-3.53,5.17,5.17,0,0,1,1.22-3.66,4.08,4.08,0,0,1,3.14-1.3,4,4,0,0,1,3.06,1.27,5.08,5.08,0,0,1,1.19,3.59c0,.09,0,.23,0,.42h-7a3.62,3.62,0,0,0,.87,2.36,2.6,2.6,0,0,0,1.95.81,2.46,2.46,0,0,0,1.49-.45A3,3,0,0,0,230.88,267.75Zm-5.19-2.56h5.21a3.16,3.16,0,0,0-.6-1.77,2.42,2.42,0,0,0-2-.91,2.48,2.48,0,0,0-1.83.73A2.86,2.86,0,0,0,225.69,265.19Z"/><path class="cls-7" d="M239.21,271.53l1.54.23a1.44,1.44,0,0,0,.54,1,2.59,2.59,0,0,0,1.61.44,2.76,2.76,0,0,0,1.69-.44,2.13,2.13,0,0,0,.81-1.23,10.58,10.58,0,0,0,.12-2,3.26,3.26,0,0,1-2.59,1.22,3.51,3.51,0,0,1-3-1.39,5.34,5.34,0,0,1-1-3.33,6.2,6.2,0,0,1,.48-2.46,3.89,3.89,0,0,1,1.4-1.75,3.78,3.78,0,0,1,2.16-.61,3.33,3.33,0,0,1,2.72,1.33v-1.12h1.46v8.07a7.62,7.62,0,0,1-.44,3.09,3.24,3.24,0,0,1-1.41,1.43,4.77,4.77,0,0,1-2.37.53,4.44,4.44,0,0,1-2.69-.75A2.54,2.54,0,0,1,239.21,271.53Zm1.31-5.61a4.09,4.09,0,0,0,.73,2.68,2.41,2.41,0,0,0,3.66,0,3.91,3.91,0,0,0,.74-2.63,3.86,3.86,0,0,0-.76-2.58,2.36,2.36,0,0,0-1.84-.87,2.26,2.26,0,0,0-1.79.86A3.79,3.79,0,0,0,240.52,265.92Z"/><path class="cls-7" d="M255.9,267.75l1.64.2a4,4,0,0,1-1.43,2.22,4.31,4.31,0,0,1-2.68.79,4.26,4.26,0,0,1-3.24-1.26,4.92,4.92,0,0,1-1.2-3.53,5.17,5.17,0,0,1,1.21-3.66,4.1,4.1,0,0,1,3.15-1.3,4,4,0,0,1,3,1.27,5,5,0,0,1,1.19,3.59c0,.09,0,.23,0,.42h-7a3.62,3.62,0,0,0,.87,2.36,2.6,2.6,0,0,0,1.95.81,2.46,2.46,0,0,0,1.49-.45A3,3,0,0,0,255.9,267.75Zm-5.19-2.56h5.21a3.16,3.16,0,0,0-.6-1.77,2.4,2.4,0,0,0-2-.91,2.51,2.51,0,0,0-1.83.73A2.91,2.91,0,0,0,250.71,265.19Z"/><path class="cls-7" d="M262.12,270.75l-3.55-9.33h1.67l2,5.59c.22.6.42,1.23.6,1.88.14-.49.34-1.08.59-1.78l2.07-5.69h1.63l-3.54,9.33Z"/><path class="cls-7" d="M267.94,266.09a4.81,4.81,0,0,1,1.44-3.84,4.29,4.29,0,0,1,2.93-1,4.18,4.18,0,0,1,3.15,1.26,4.81,4.81,0,0,1,1.22,3.48,6.18,6.18,0,0,1-.54,2.84,3.79,3.79,0,0,1-1.57,1.6,4.6,4.6,0,0,1-2.26.57,4.2,4.2,0,0,1-3.17-1.25A5.05,5.05,0,0,1,267.94,266.09Zm1.62,0a4,4,0,0,0,.78,2.68,2.61,2.61,0,0,0,3.93,0,4.09,4.09,0,0,0,.79-2.74,3.87,3.87,0,0,0-.79-2.62,2.53,2.53,0,0,0-2-.89,2.5,2.5,0,0,0-2,.89A4,4,0,0,0,269.56,266.09Z"/><path class="cls-7" d="M278.5,270.75V257.87h1.58v12.88Z"/><path class="cls-7" d="M282.24,271.53l1.54.23a1.48,1.48,0,0,0,.54,1,2.59,2.59,0,0,0,1.61.44,2.76,2.76,0,0,0,1.69-.44,2.13,2.13,0,0,0,.81-1.23,10.58,10.58,0,0,0,.12-2,3.26,3.26,0,0,1-2.59,1.22,3.53,3.53,0,0,1-3-1.39,5.34,5.34,0,0,1-1.05-3.33,6.2,6.2,0,0,1,.48-2.46,3.89,3.89,0,0,1,1.4-1.75,3.78,3.78,0,0,1,2.16-.61,3.36,3.36,0,0,1,2.73,1.33v-1.12h1.45v8.07a7.62,7.62,0,0,1-.44,3.09A3.24,3.24,0,0,1,288.3,274a4.76,4.76,0,0,1-2.36.53,4.45,4.45,0,0,1-2.7-.75A2.54,2.54,0,0,1,282.24,271.53Zm1.31-5.61a4.09,4.09,0,0,0,.73,2.68,2.41,2.41,0,0,0,3.66,0,3.91,3.91,0,0,0,.74-2.63,3.86,3.86,0,0,0-.76-2.58,2.36,2.36,0,0,0-1.84-.87,2.26,2.26,0,0,0-1.79.86A3.79,3.79,0,0,0,283.55,265.92Z"/><path class="cls-7" d="M298.93,267.75l1.64.2a4,4,0,0,1-1.43,2.22,4.31,4.31,0,0,1-2.68.79,4.26,4.26,0,0,1-3.24-1.26,4.92,4.92,0,0,1-1.2-3.53,5.17,5.17,0,0,1,1.21-3.66,4.1,4.1,0,0,1,3.15-1.3,4,4,0,0,1,3.06,1.27,5.08,5.08,0,0,1,1.18,3.59c0,.09,0,.23,0,.42h-7a3.62,3.62,0,0,0,.87,2.36,2.6,2.6,0,0,0,2,.81,2.46,2.46,0,0,0,1.49-.45A3,3,0,0,0,298.93,267.75Zm-5.19-2.56H299a3.16,3.16,0,0,0-.6-1.77,2.4,2.4,0,0,0-2-.91,2.51,2.51,0,0,0-1.83.73A2.91,2.91,0,0,0,293.74,265.19Z"/><path class="cls-7" d="M302.56,270.75v-9.33H304v1.33a3.36,3.36,0,0,1,3-1.54,3.93,3.93,0,0,1,1.55.3,2.4,2.4,0,0,1,1.06.8,3,3,0,0,1,.49,1.17,8.74,8.74,0,0,1,.09,1.53v5.74h-1.58v-5.67a4.08,4.08,0,0,0-.19-1.45,1.5,1.5,0,0,0-.65-.76,2,2,0,0,0-1.1-.29,2.55,2.55,0,0,0-1.75.64,3.17,3.17,0,0,0-.73,2.44v5.09Z"/><path class="cls-7" d="M316.73,270.75v-1.28l5.94-6.82c-.67,0-1.26.05-1.78.05h-3.81v-1.28h7.63v1.05l-5,5.92-1,1.08c.71-.05,1.38-.08,2-.08H325v1.36Z"/><path class="cls-7" d="M326.58,259.69v-1.82h1.58v1.82Zm0,11.06v-9.33h1.58v9.33Z"/><path class="cls-7" d="M328.55,274.37l.3-1.34a3.32,3.32,0,0,0,.75.12.83.83,0,0,0,.72-.32,3.23,3.23,0,0,0,.24-1.6v-9.81h1.58v9.84a4.6,4.6,0,0,1-.45,2.4,2.08,2.08,0,0,1-1.9.88A4.32,4.32,0,0,1,328.55,274.37Zm2-14.66v-1.84h1.58v1.84Z"/><path class="cls-7" d="M334.57,270.75v-9.33H336v1.33a3.35,3.35,0,0,1,3-1.54,3.93,3.93,0,0,1,1.55.3,2.4,2.4,0,0,1,1.06.8,3,3,0,0,1,.49,1.17,8.74,8.74,0,0,1,.09,1.53v5.74h-1.58v-5.67a4.08,4.08,0,0,0-.19-1.45,1.5,1.5,0,0,0-.65-.76,2,2,0,0,0-1.1-.29,2.55,2.55,0,0,0-1.75.64,3.17,3.17,0,0,0-.73,2.44v5.09Z"/><path class="cls-7" d="M349.58,270.75v-9.33H351v1.33a3.36,3.36,0,0,1,3-1.54,3.93,3.93,0,0,1,1.55.3,2.4,2.4,0,0,1,1.06.8,2.88,2.88,0,0,1,.49,1.17,8.74,8.74,0,0,1,.09,1.53v5.74h-1.58v-5.67a4.37,4.37,0,0,0-.18-1.45,1.57,1.57,0,0,0-.66-.76,2,2,0,0,0-1.1-.29,2.55,2.55,0,0,0-1.75.64,3.17,3.17,0,0,0-.73,2.44v5.09Z"/><path class="cls-7" d="M359.6,259.69v-1.82h1.58v1.82Zm0,11.06v-9.33h1.58v9.33Z"/><path class="cls-7" d="M370,267.75l1.63.2a4,4,0,0,1-1.43,2.22,4.86,4.86,0,0,1-5.92-.47,4.92,4.92,0,0,1-1.2-3.53,5.17,5.17,0,0,1,1.21-3.66,4.1,4.1,0,0,1,3.15-1.3,4,4,0,0,1,3.06,1.27,5.08,5.08,0,0,1,1.18,3.59v.42h-7a3.62,3.62,0,0,0,.87,2.36,2.63,2.63,0,0,0,2,.81,2.43,2.43,0,0,0,1.48-.45A3.06,3.06,0,0,0,370,267.75Zm-5.2-2.56H370a3.24,3.24,0,0,0-.59-1.77,2.43,2.43,0,0,0-2-.91,2.52,2.52,0,0,0-1.84.73A2.91,2.91,0,0,0,364.78,265.19Z"/><path class="cls-7" d="M377.05,269.34l.23,1.4a6.15,6.15,0,0,1-1.2.14,2.61,2.61,0,0,1-1.33-.28,1.52,1.52,0,0,1-.67-.71,5.69,5.69,0,0,1-.19-1.87v-5.37h-1.16v-1.23h1.16v-2.31l1.57-.95v3.26h1.59v1.23h-1.59v5.46a3,3,0,0,0,.08.87.7.7,0,0,0,.28.31,1.09,1.09,0,0,0,.54.11A5.34,5.34,0,0,0,377.05,269.34Z"/><path class="cls-7" d="M387.05,269.34l.23,1.4a6.06,6.06,0,0,1-1.19.14,2.62,2.62,0,0,1-1.34-.28,1.52,1.52,0,0,1-.67-.71,5.69,5.69,0,0,1-.19-1.87v-5.37h-1.16v-1.23h1.16v-2.31l1.57-.95v3.26h1.59v1.23h-1.59v5.46a2.58,2.58,0,0,0,.09.87.62.62,0,0,0,.27.31,1.09,1.09,0,0,0,.54.11A5.07,5.07,0,0,0,387.05,269.34Z"/><path class="cls-7" d="M395,267.75l1.63.2a3.91,3.91,0,0,1-1.43,2.22,4.86,4.86,0,0,1-5.92-.47,4.92,4.92,0,0,1-1.2-3.53,5.17,5.17,0,0,1,1.22-3.66,4.07,4.07,0,0,1,3.14-1.3,4,4,0,0,1,3.06,1.27,5.08,5.08,0,0,1,1.19,3.59c0,.09,0,.23,0,.42h-7a3.62,3.62,0,0,0,.87,2.36,2.6,2.6,0,0,0,1.95.81,2.43,2.43,0,0,0,1.48-.45A3.06,3.06,0,0,0,395,267.75Zm-5.19-2.56H395a3.16,3.16,0,0,0-.6-1.77,2.42,2.42,0,0,0-2-.91,2.48,2.48,0,0,0-1.83.73A2.86,2.86,0,0,0,389.8,265.19Z"/><path class="cls-7" d="M403,266.09a4.81,4.81,0,0,1,1.44-3.84,4.34,4.34,0,0,1,2.94-1,4.21,4.21,0,0,1,3.15,1.26,4.81,4.81,0,0,1,1.22,3.48,6.18,6.18,0,0,1-.54,2.84,3.81,3.81,0,0,1-1.58,1.6,4.56,4.56,0,0,1-2.25.57,4.19,4.19,0,0,1-3.17-1.25A5.06,5.06,0,0,1,403,266.09Zm1.63,0a4,4,0,0,0,.78,2.68,2.61,2.61,0,0,0,3.93,0,4.09,4.09,0,0,0,.78-2.74,3.87,3.87,0,0,0-.78-2.62,2.53,2.53,0,0,0-2-.89,2.49,2.49,0,0,0-2,.89A4,4,0,0,0,404.65,266.09Z"/><path class="cls-7" d="M416.22,270.75l-3.55-9.33h1.66l2,5.59c.22.6.41,1.23.6,1.88.14-.49.33-1.08.59-1.78l2.07-5.69h1.63l-3.54,9.33Z"/><path class="cls-7" d="M429,267.75l1.64.2a4,4,0,0,1-1.44,2.22,4.84,4.84,0,0,1-5.91-.47,4.92,4.92,0,0,1-1.2-3.53,5.17,5.17,0,0,1,1.21-3.66,4.1,4.1,0,0,1,3.15-1.3,4,4,0,0,1,3.05,1.27,5.08,5.08,0,0,1,1.19,3.59c0,.09,0,.23,0,.42h-7a3.62,3.62,0,0,0,.87,2.36,2.6,2.6,0,0,0,1.95.81,2.46,2.46,0,0,0,1.49-.45A3,3,0,0,0,429,267.75Zm-5.19-2.56H429a3.16,3.16,0,0,0-.6-1.77,2.4,2.4,0,0,0-2-.91,2.5,2.5,0,0,0-1.83.73A2.86,2.86,0,0,0,423.82,265.19Z"/><path class="cls-7" d="M432.62,270.75v-9.33H434v1.41a3.91,3.91,0,0,1,1-1.31,1.72,1.72,0,0,1,1-.31,3.1,3.1,0,0,1,1.63.51l-.55,1.47a2.23,2.23,0,0,0-1.16-.35,1.52,1.52,0,0,0-.93.32,1.69,1.69,0,0,0-.59.86,6.36,6.36,0,0,0-.26,1.85v4.88Z"/><path class="cls-7" d="M438,266.89V265.3h4.86v1.59Z"/><path class="cls-7" d="M252.68,292.35v-1.28l5.94-6.82c-.67,0-1.26.05-1.78.05H253V283h7.63v1.05L255.61,290l-1,1.08c.71-.05,1.38-.08,2-.08h4.31v1.36Z"/><path class="cls-7" d="M262.53,281.29v-1.82h1.58v1.82Zm0,11.06V283h1.58v9.33Z"/><path class="cls-7" d="M272.91,289.35l1.63.2a4,4,0,0,1-1.43,2.22,4.86,4.86,0,0,1-5.92-.47,4.92,4.92,0,0,1-1.2-3.53,5.17,5.17,0,0,1,1.21-3.66,4.1,4.1,0,0,1,3.15-1.3,4,4,0,0,1,3.06,1.27,5.08,5.08,0,0,1,1.18,3.59c0,.09,0,.23,0,.42h-7a3.62,3.62,0,0,0,.87,2.36,2.63,2.63,0,0,0,2,.81,2.43,2.43,0,0,0,1.48-.45A3.06,3.06,0,0,0,272.91,289.35Zm-5.2-2.56h5.21a3.24,3.24,0,0,0-.59-1.77,2.43,2.43,0,0,0-2-.91,2.52,2.52,0,0,0-1.84.73A2.91,2.91,0,0,0,267.71,286.79Z"/><path class="cls-7" d="M276.53,292.35V283H278v1.33a3.36,3.36,0,0,1,3-1.54,3.93,3.93,0,0,1,1.55.3,2.4,2.4,0,0,1,1.06.8,2.88,2.88,0,0,1,.49,1.17,8.74,8.74,0,0,1,.09,1.53v5.74h-1.58v-5.67a4.08,4.08,0,0,0-.19-1.45,1.5,1.5,0,0,0-.65-.76,2.07,2.07,0,0,0-1.1-.29,2.55,2.55,0,0,0-1.75.64,3.17,3.17,0,0,0-.73,2.44v5.09Z"/><path class="cls-7" d="M287,292.35v-1.8h1.8v1.8Z"/><text class="cls-8" transform="translate(99.03 343.37)">€32.000.000.000</text><text class="cls-2" transform="translate(102.16 377.63)">De economie stort in door het mislopen van <tspan x="61.02" y="21.6">een gigantische geldstroom.</tspan></text><line class="cls-4" x1="106.24" y1="418.76" x2="455.63" y2="418.76"/><text class="cls-9" transform="translate(113.42 456.53)">28MJ</text><text class="cls-6" transform="translate(107.68 502.76)">.com</text><text class="cls-9" transform="translate(215.9 456.67)">2MJ</text><text class="cls-6" transform="translate(221.82 502.89)">.nl</text><text class="cls-9" transform="translate(305.34 454.53)">1MJ</text><text class="cls-6" transform="translate(309.43 500.76)">.ru</text><text class="cls-9" transform="translate(395.1 455.4)">1MJ</text><text class="cls-6" transform="translate(396.43 501.62)">.se</text><line class="cls-4" x1="195.88" y1="436.78" x2="195.88" y2="502.89"/><line class="cls-4" x1="283.96" y1="436.78" x2="283.96" y2="502.89"/><line class="cls-4" x1="373.56" y1="436.78" x2="373.56" y2="502.89"/></svg>