<svg xmlns="http://www.w3.org/2000/svg" viewBox="0 0 126.76 135.16"><title>europe</title><g id="Layer_2" data-name="Layer 2"><g id="svg2"><path id="estonia" d="M91.64,49.83l-5.6-.2L82.49,51.8l0,1.61,2.3,2.17,7.15,1.21-.25-7Z"/><path id="norway" d="M89.33,8.31l2-1.48-.18-1.66-1.28-.74.18-2h1.1V1.29L86.4,0,79.25.74l-.73,3.14-1.65-.55-1.1-1.85-3.49.18-.37,3.51-1.65.74-.92-1.85L62,10l1.47,1.66-2.75,1.29L54.48,25.3l-2.2,1.48.18,1.11L54.66,29l-.55,2.4-3.67-.19-1.1-1.29L47,32.69,45.49,33.8l-.37,2.59-1.28.74-3.3.74-1.65,5.18,1.1,8.5,1.28,3.88,1.47,1.48,3.3-.18,4.77-4.62L52.64,49l.55,4.62,3.12-5.54.18-15.53L59,30.92l.76-8.57,7.7-11.09L71.16,10l1.65-2,5.5,1.29,2.75,1.66L82,6.27,86.57,3.5l2.76,4.81Z"/><path id="britain" d="M20,55.25,18.16,58l.73,1.11h4.22V61L22,62.46l.73,3.88L25.12,71,27,75.21l2.93,1.11,1.28,2.22-.18,2-1.83,1.11L29,82.6l1.28.74-1.1,1.48-2.57,1.11-4.95-.55-7.71,3.51L11.35,87.6l7.34-4.25-.92-.55-3.85-.37,2.38-3.51.37-3,3.12-.37-.55-5.73-3.67-.18-1.1-1.29.18-4.25-2.2.18,2.2-7.39,4-3L20,55.25Z"/><path id="ulster" d="M12.29,67.64,9,68l-.18,3L11,72.45l2.38-.55.92-1.66-2-2.6Z"/><path id="ireland" d="M13.38,72.72l-.91,6-8.07,3H1.83L0,80.39V79.28l4-2.59-1.1-2.22.18-3.14,3.49.18,1.6-3.76L8,71.09l2.71,2.15,2.67-.52Z"/><path id="sweden" d="M71.59,10.75l2,1.81h3.67l2,3.88.55,6.65-5,3.51v3.51l-3.49,4.81-2,.18-2.75,4.62.18,4.44,4.77,3.51-.37,2-1.83,2.77-2.75,2.4.18,8L62.54,64.3l-1.47,3.14h-2L58,61.9l-4.59-7,3.77-6.31L57.39,33,60,31.53l.63-8.92L68,12l3.56-1.25Z"/><path id="finland" d="M80.66,23.11l2.07.91L84,26.42l-1.28,1.66-6.42,7-1.1,3.7,1.47,5.36,4.95,3.7,6.6-3.14L93.55,44l5-7.95-3.67-8.69L91.34,19l.55-5.36-2.2-.37-.57-3.91-3-4.83L82.88,6.82l-1.29,5.27L78.11,10,73.27,8.82l-1.08,1.26,1.86,1.68,3.39-.06,2.73,4.41.49,7Z"/><path id="path302" d="M91.94,57.54l-6.85-1.11.15,3.83,6.35,3.88,2.6-.76L94,60.46l-2.1-2.92Z"/><path id="hiumaa" d="M80.63,53.81l-1.55-.05-.9.91.65,1,1.55.1.8-1.16-.55-.76Z"/><path id="saaremaa" d="M80.48,57.89,79,57.74,76.28,61v1.51l.9.35,1.75.05,2.9-2.37.4-.81-1.75-1.81Z"/><path id="lithuania" d="M84.68,60.87l-2.15,0-3,2.82h-2.5l.15,3.53-1.5,2.77,5.4,0,1.55-.2,1.55,1.87,3.55-.15,3.4-4.33L91,64.61l-6.3-3.74Z"/><path id="belarus" d="M84.53,72.46,86,74.93l-.6,2,.1,1.56.55,1.87,3.1-1.76,3.85.1,2.7,1.11h6.85l2-4.79,1.2-1.81V72l-4.3-6-3.8-1.51-3.1-.35-2.7.86.1,2.72-3.75,4.74-3.7.08Z"/><path id="poland" d="M85.33,80.93l.85,1.56.2,1.66-.7,1.61-1.6,3.08-1.35.61L81,88.69l-1,0-2.55,1-2.9-.86-4.7-3.33L65.18,83l-1.85-2.82L63,73.57l3.6-3.13,4.7-1.56,1.75-.2-.7,1.41.45.55,7.91.15,1.7-.05L85.19,75l-.7,1.76.3,2.07.54,2.07Z"/><path id="spain" d="M22.23,111.17H9.49L6.92,110l-1.24.09-1.5,3.12.53,3.21,4.87.45.62,2.05L8.08,130.88,8.17,133l3.45,1.87,4,.27,8-2,3.89-4.9.09-5,6.9-6.24.35-2.76-6.28-.09-6.28-3Z"/><path id="portugal" d="M4.8,117.41l-.62,8.65-1.77,1.6.18,1,1.24,2.05-.8,2.5,1.33.45,3.1-.36-.18-2.5,2-11.59-.44-1.6-4.07-.18Z"/><path id="france" d="M34.27,84.87l-2.21.54-4.42,4.81-1.33.09-1.77-1.25-1.15.27-.88,2.76-6.46.18.18,1.43,4.42,2.94,5.13,4.1-.09,4.9L23,110.45l5.93,2.85,6,.18,1.86-2.14,3.8.09,1.06,1,3.8-.27,1.95-2.5-2.48-2.94-.18-1.87.53-2L44,101l-2.12.62-.27-1.6,4.69-5.17V91.73L43.2,90l-1.59-.27-7.34-4.81Z"/><path id="netherlands" d="M44,74.44l-4.53,2.23,1,.87.1,2.23-1-.19-1.06-1.65-2.53,4,3.89.81,1.45,1.53.77,0,.51-3.46,2.45-1-1-5.37Z"/><path id="belgium" d="M35.48,82.69l-.64,1.6,6.88,4.54,2,.47.07-2.15L42,85.21H41l-1.45-1.65-4.05-.87Z"/><path id="germany" d="M45,74.05l3.57-.58V71l3-.49,1.64,1.65,1.73.19,2.7-1.17,2.41.68,2.12,1.84.29,6.89,2.12,2.82-2.79.39-4.63,2.91.39,1,4.14,3.88-.29,1.94-3.85,1.94-3.57.1-.87,1.84H51.28l-.87-1.94-3.18-.78-.1-3.2-2.7-1.84.29-2.33-1.83-2.52.48-3.3,2.5-1.17L45,74.05Z"/><path id="denmark" d="M50.64,57.67l-4.15,4.59-.15,3,1.89,4.93,3-.56-.37-4,2-2.28,0-1.79-1.44-3.73-.74-.12Z"/><path id="sjælland" d="M55.31,65.81l-.93,0-1.22,1.12.15,1.75,2.89.08.15-2-1-.93Z"/><path id="gotland" d="M72.36,56.34,70.25,58l1.06,2.45,1.87-1.82-.82-2.3Z"/><path id="switzerland" d="M46.78,95.55l-4.36,4.64.09.47,1.79-.56,1.61,2.24,2.72-1,1.88,1.46.77-.44,2.32-3.64L53,98.2l-2.29-.06-1.11-2.27-2.83-.32Z"/><path id="czech" d="M62.3,91h4.43l2.37,1.69,4.39-3.65-4.26-3L65,84l-2.89.52L58.2,87l4.1,4Z"/><path id="slovakia" d="M69.71,93.3l.69.61.09,1,7.63-.17,5.64-2.43-.09-2.47-1.08.48L81,89.53l-1,0-2.5,1-3.4-.82L69.71,93.3Z"/><path id="austria" d="M54.5,96.29l-.65,1.35.56,1,2.33-.48h2l2.15,1.82,4.57-.83,3.36-2,.86-1.35L69.53,94l-3-2.26-4.05,0-.34,2.3-4.26,2.08-3.36.11Z"/><path id="hungary" d="M70.61,95.77l-1.16,1.82.09,2.78,1.85.95,5.69.17L85,94.81l0-1.48-.86-.43-5.73,2.6-7.85.27Z"/><path id="slovenia" d="M68.67,98.16l-2.54,1.52-4.74,1,1,2.74,3.32,0,3.06-2.56,0-2.78Z"/><path id="croatia" d="M69.49,101.33,66,104.24H62.38L62,106.76l1.64.43.82-1.22,1.29,1.13,1,3.6L73.8,114l.7-.8-7.17-7.4.73-1.35,6.81-.26.69-2.17-4.44.13-1.63-.82Z"/><path id="bosnia" d="M68.67,105.11l-.37.61L75,112.64,77.47,109l-.09-1.43L75.23,105l-6.56.13Z"/><path id="italy" d="M46.14,103.15l-.62,1.57.17,1.71,2.39,2.79,3.76-.13,8.3,9.64,5.18,1.5,3.06,2.89.73,6.59,1.64-1,1.42-3.59-.35-2.58,2.43-.22.35-1.46-6.85-3.28-6.5-6.39-2.59-3.82L58,103.78l3.31-.79-.85-2.39-2-1.71-1.75-.08-2.44.67L52,102.7l-1.39.92-2.15-1.32-2.29.85Z"/><path id="ukraine" d="M89.44,79.32,86.54,81,87.26,84l-2.68,5.65,0,2.49,1.26.8,8.08.4L96.2,91.5l2.42.81,3.47,4.63-2.54,4.56,3,.88,4-4.55,2.26.41,2.1,1.46L109,102.14l2.5,3.9h2.66l1.37-2.6,2.82-.57.08-2.11-5.24-.81.16-2.27h5.08l5.48-4.39,2.42-2.11.4-6.66-10.8-1-4.43-6.25-3.06-1-3.71.16-1.67,4.13-7.6.1L93,79.5l-3.58-.18Z"/><path id="moldova" d="M94.62,93.88l3.1,4.77-.26,2.7,1.11.05L101.2,97,98,93l-1.79-.74-1.63,1.59Z"/><path id="romania" d="M86.05,93.77l-.26,1.48L80,100.07l4.84,7.1,3.1,2.17h5.58l1.84-1.54,2.47-.32,1.84,1.11,3.26-3.71L102.3,103,99,102.17l-2.26-.11.11-3.18-3-4.72-7.79-.39Z"/><path id="montenegro" d="M78.77,113.42l0-.94-1.32-1.85-2.14,3,.42,1.27,1.74.32Z"/><path id="serbia" d="M79.42,100.71l-2,1.54h-1l-.68,2.12,2.42,2.81.16,2.23-.34.48,1.64,2.3.05,1.22,1.18,1.14,3.84-1.17-.32-5.46Z"/><path id="bulgaria" d="M85.31,108.56l.16,5,1.68,3.5,6.31.11,2.84-2L99.09,114l-.68-3.18.63-1.7-1.42-.74-2,.16-1.53,1.54-6.42,0-2.41-1.6Z"/><path id="albania" d="M77.89,115.93v4.61L79.21,123l1-.11,1.63-3-1-1.33-.37-3.29-1.26-1.17-1.32,1.77Z"/><path id="macedonia" d="M84.79,114.18l-3.37,1.11.16,2.86.79,1,4-1.86-1.58-3.12Z"/><path id="greece" d="M80.58,123.77l-.11,1.33,4.63,2.33,2.21.85-1.16,1.22-2.58.26-.37,1.17.89,2L87,134.48l1.26.11.16-3.45,1.89-2.28-5.16-6.1.68-2.07,1.21,0,1.84,1.48,1.16-.58.37-2.07,5.42,0,.21-3.18-2.26,1.59-6.63-.16L82.82,120l-2.24,3.77Z"/><path id="thrace" d="M96.89,115.87l-.16,3.55,3.1-1,1.42-1-.42-1.54-1.47-1.17-2.47,1.06Z"/></g></g></svg>