<?xml version="1.0" encoding="utf-8"?>
<!-- Generator: Adobe Illustrator 23.0.1, SVG Export Plug-In . SVG Version: 6.00 Build 0)  -->
<svg version="1.1" id="Layer_1" xmlns="http://www.w3.org/2000/svg" xmlns:xlink="http://www.w3.org/1999/xlink" x="0px" y="0px"
	 viewBox="0 0 512 512" style="enable-background:new 0 0 512 512;" xml:space="preserve">
<style type="text/css">
	.st0{fill:#CE50DB;}
</style>
<g>
	<g id="XMLID_1_">
		<g>
			<path class="st0" d="M256,33.4c83.8,0,152,68.2,152,152c0,87.1-96.2,217.9-152,284.3c-55.9-66.3-152-197.2-152-284.3
				C104,101.6,172.2,33.4,256,33.4z M349.3,185.4c0-51.4-41.9-93.3-93.3-93.3s-93.3,41.9-93.3,93.3s41.8,93.3,93.3,93.3
				S349.3,236.9,349.3,185.4z"/>
			<path class="st0" d="M256,0c102.2,0,185.4,83.2,185.4,185.4c0,126.9-165.9,313.2-173,321c-6.6,7.4-18.2,7.4-24.8,0
				c-7.1-7.9-173-194.1-173-321C70.6,83.2,153.8,0,256,0z M408,185.4c0-83.8-68.2-152-152-152s-152,68.2-152,152
				c0,87.1,96.2,218,152,284.3C311.9,403.4,408,272.5,408,185.4z"/>
			<path class="st0" d="M256,92.1c51.4,0,93.3,41.9,93.3,93.3s-41.9,93.3-93.3,93.3s-93.3-41.9-93.3-93.3S204.6,92.1,256,92.1z
				 M315.9,185.4c0-33-26.9-59.9-59.9-59.9s-59.9,26.9-59.9,59.9s26.9,59.9,59.9,59.9S315.9,218.5,315.9,185.4z"/>
		</g>
	</g>
</g>
</svg>
