<?xml version="1.0" encoding="utf-8"?>
<!-- Generator: Adobe Illustrator 23.0.1, SVG Export Plug-In . SVG Version: 6.00 Build 0)  -->
<svg version="1.1"
	 id="svg2" inkscape:version="0.48.0 r9654" sodipodi:docname="The Netherlands.svg" sodipodi:version="0.32" xmlns:cc="http://creativecommons.org/ns#" xmlns:dc="http://purl.org/dc/elements/1.1/" xmlns:inkscape="http://www.inkscape.org/namespaces/inkscape" xmlns:rdf="http://www.w3.org/1999/02/22-rdf-syntax-ns#" xmlns:sodipodi="http://sodipodi.sourceforge.net/DTD/sodipodi-0.dtd" xmlns:svg="http://www.w3.org/2000/svg"
	 xmlns="http://www.w3.org/2000/svg" xmlns:xlink="http://www.w3.org/1999/xlink" x="0px" y="0px" viewBox="0 0 870 924"
	 style="enable-background:new 0 0 870 924;" xml:space="preserve">
<style type="text/css">
	
		.st0{fill-rule:evenodd;clip-rule:evenodd;fill:#FFFFFF;stroke:#B9B9B9;stroke-width:1.05;stroke-linejoin:bevel;stroke-miterlimit:10;}
	
		.st1{fill-rule:evenodd;clip-rule:evenodd;fill:#FFFFFF;stroke:#B9B9B9;stroke-width:0.7;stroke-linejoin:bevel;stroke-miterlimit:10;}
	.st2{fill:none;}
	.st3{font-family:'ArialMT';}
	.st4{font-size:72px;}
</style>
<sodipodi:namedview  bordercolor="#666666" borderopacity="1.0" height="616px" id="base" inkscape:current-layer="svg2" inkscape:cx="409.90121" inkscape:cy="782.57354" inkscape:guide-bbox="true" inkscape:pageopacity="0.0" inkscape:pageshadow="2" inkscape:window-height="753" inkscape:window-maximized="1" inkscape:window-width="1280" inkscape:window-x="-4" inkscape:window-y="-4" inkscape:zoom="1.219753" pagecolor="#ffffff" showgrid="false" showguides="true" width="534px">
	</sodipodi:namedview>
<defs>
	
	
		<inkscape:perspective  id="perspective481" inkscape:persp3d-origin="400.5 : 308 : 1" inkscape:vp_x="0 : 462 : 1" inkscape:vp_y="0 : 1000 : 0" inkscape:vp_z="801 : 462 : 1" sodipodi:type="inkscape:persp3d">
		</inkscape:perspective>
	
		<inkscape:perspective  id="perspective4069" inkscape:persp3d-origin="0.5 : 0.33333333 : 1" inkscape:vp_x="0 : 0.5 : 1" inkscape:vp_y="0 : 1000 : 0" inkscape:vp_z="1 : 0.5 : 1" sodipodi:type="inkscape:persp3d">
		</inkscape:perspective>
	
		<inkscape:perspective  id="perspective4069-1" inkscape:persp3d-origin="0.5 : 0.33333333 : 1" inkscape:vp_x="0 : 0.5 : 1" inkscape:vp_y="0 : 1000 : 0" inkscape:vp_z="1 : 0.5 : 1" sodipodi:type="inkscape:persp3d">
		</inkscape:perspective>
	
		<inkscape:perspective  id="perspective4069-7" inkscape:persp3d-origin="0.5 : 0.33333333 : 1" inkscape:vp_x="0 : 0.5 : 1" inkscape:vp_y="0 : 1000 : 0" inkscape:vp_z="1 : 0.5 : 1" sodipodi:type="inkscape:persp3d">
		</inkscape:perspective>
	
		<inkscape:perspective  id="perspective4069-2" inkscape:persp3d-origin="0.5 : 0.33333333 : 1" inkscape:vp_x="0 : 0.5 : 1" inkscape:vp_y="0 : 1000 : 0" inkscape:vp_z="1 : 0.5 : 1" sodipodi:type="inkscape:persp3d">
		</inkscape:perspective>
	
		<inkscape:perspective  id="perspective4069-5" inkscape:persp3d-origin="0.5 : 0.33333333 : 1" inkscape:vp_x="0 : 0.5 : 1" inkscape:vp_y="0 : 1000 : 0" inkscape:vp_z="1 : 0.5 : 1" sodipodi:type="inkscape:persp3d">
		</inkscape:perspective>
	
		<inkscape:perspective  id="perspective4069-3" inkscape:persp3d-origin="0.5 : 0.33333333 : 1" inkscape:vp_x="0 : 0.5 : 1" inkscape:vp_y="0 : 1000 : 0" inkscape:vp_z="1 : 0.5 : 1" sodipodi:type="inkscape:persp3d">
		</inkscape:perspective>
	
		<inkscape:perspective  id="perspective4069-75" inkscape:persp3d-origin="0.5 : 0.33333333 : 1" inkscape:vp_x="0 : 0.5 : 1" inkscape:vp_y="0 : 1000 : 0" inkscape:vp_z="1 : 0.5 : 1" sodipodi:type="inkscape:persp3d">
		</inkscape:perspective>
	
		<inkscape:perspective  id="perspective4069-6" inkscape:persp3d-origin="0.5 : 0.33333333 : 1" inkscape:vp_x="0 : 0.5 : 1" inkscape:vp_y="0 : 1000 : 0" inkscape:vp_z="1 : 0.5 : 1" sodipodi:type="inkscape:persp3d">
		</inkscape:perspective>
	
		<inkscape:perspective  id="perspective4069-70" inkscape:persp3d-origin="0.5 : 0.33333333 : 1" inkscape:vp_x="0 : 0.5 : 1" inkscape:vp_y="0 : 1000 : 0" inkscape:vp_z="1 : 0.5 : 1" sodipodi:type="inkscape:persp3d">
		</inkscape:perspective>
	
		<inkscape:perspective  id="perspective4069-8" inkscape:persp3d-origin="0.5 : 0.33333333 : 1" inkscape:vp_x="0 : 0.5 : 1" inkscape:vp_y="0 : 1000 : 0" inkscape:vp_z="1 : 0.5 : 1" sodipodi:type="inkscape:persp3d">
		</inkscape:perspective>
	
		<inkscape:perspective  id="perspective4069-0" inkscape:persp3d-origin="0.5 : 0.33333333 : 1" inkscape:vp_x="0 : 0.5 : 1" inkscape:vp_y="0 : 1000 : 0" inkscape:vp_z="1 : 0.5 : 1" sodipodi:type="inkscape:persp3d">
		</inkscape:perspective>
	
		<inkscape:perspective  id="perspective4069-72" inkscape:persp3d-origin="0.5 : 0.33333333 : 1" inkscape:vp_x="0 : 0.5 : 1" inkscape:vp_y="0 : 1000 : 0" inkscape:vp_z="1 : 0.5 : 1" sodipodi:type="inkscape:persp3d">
		</inkscape:perspective>
	
		<inkscape:perspective  id="perspective4069-16" inkscape:persp3d-origin="0.5 : 0.33333333 : 1" inkscape:vp_x="0 : 0.5 : 1" inkscape:vp_y="0 : 1000 : 0" inkscape:vp_z="1 : 0.5 : 1" sodipodi:type="inkscape:persp3d">
		</inkscape:perspective>
	
		<inkscape:perspective  id="perspective4199" inkscape:persp3d-origin="0.5 : 0.33333333 : 1" inkscape:vp_x="0 : 0.5 : 1" inkscape:vp_y="0 : 1000 : 0" inkscape:vp_z="1 : 0.5 : 1" sodipodi:type="inkscape:persp3d">
		</inkscape:perspective>
	
		<inkscape:perspective  id="perspective4221" inkscape:persp3d-origin="0.5 : 0.33333333 : 1" inkscape:vp_x="0 : 0.5 : 1" inkscape:vp_y="0 : 1000 : 0" inkscape:vp_z="1 : 0.5 : 1" sodipodi:type="inkscape:persp3d">
		</inkscape:perspective>
	
		<inkscape:perspective  id="perspective4243" inkscape:persp3d-origin="0.5 : 0.33333333 : 1" inkscape:vp_x="0 : 0.5 : 1" inkscape:vp_y="0 : 1000 : 0" inkscape:vp_z="1 : 0.5 : 1" sodipodi:type="inkscape:persp3d">
		</inkscape:perspective>
	
		<inkscape:perspective  id="perspective4243-6" inkscape:persp3d-origin="0.5 : 0.33333333 : 1" inkscape:vp_x="0 : 0.5 : 1" inkscape:vp_y="0 : 1000 : 0" inkscape:vp_z="1 : 0.5 : 1" sodipodi:type="inkscape:persp3d">
		</inkscape:perspective>
	
		<inkscape:perspective  id="perspective4274" inkscape:persp3d-origin="0.5 : 0.33333333 : 1" inkscape:vp_x="0 : 0.5 : 1" inkscape:vp_y="0 : 1000 : 0" inkscape:vp_z="1 : 0.5 : 1" sodipodi:type="inkscape:persp3d">
		</inkscape:perspective>
	
		<inkscape:perspective  id="perspective4274-2" inkscape:persp3d-origin="0.5 : 0.33333333 : 1" inkscape:vp_x="0 : 0.5 : 1" inkscape:vp_y="0 : 1000 : 0" inkscape:vp_z="1 : 0.5 : 1" sodipodi:type="inkscape:persp3d">
		</inkscape:perspective>
	
		<inkscape:perspective  id="perspective4309" inkscape:persp3d-origin="0.5 : 0.33333333 : 1" inkscape:vp_x="0 : 0.5 : 1" inkscape:vp_y="0 : 1000 : 0" inkscape:vp_z="1 : 0.5 : 1" sodipodi:type="inkscape:persp3d">
		</inkscape:perspective>
	
		<inkscape:perspective  id="perspective4334" inkscape:persp3d-origin="0.5 : 0.33333333 : 1" inkscape:vp_x="0 : 0.5 : 1" inkscape:vp_y="0 : 1000 : 0" inkscape:vp_z="1 : 0.5 : 1" sodipodi:type="inkscape:persp3d">
		</inkscape:perspective>
	
		<inkscape:perspective  id="perspective3344" inkscape:persp3d-origin="0.5 : 0.33333333 : 1" inkscape:vp_x="0 : 0.5 : 1" inkscape:vp_y="0 : 1000 : 0" inkscape:vp_z="1 : 0.5 : 1" sodipodi:type="inkscape:persp3d">
		</inkscape:perspective>
	
		<inkscape:perspective  id="perspective3344-7" inkscape:persp3d-origin="0.5 : 0.33333333 : 1" inkscape:vp_x="0 : 0.5 : 1" inkscape:vp_y="0 : 1000 : 0" inkscape:vp_z="1 : 0.5 : 1" sodipodi:type="inkscape:persp3d">
		</inkscape:perspective>
	
		<inkscape:perspective  id="perspective3344-3" inkscape:persp3d-origin="0.5 : 0.33333333 : 1" inkscape:vp_x="0 : 0.5 : 1" inkscape:vp_y="0 : 1000 : 0" inkscape:vp_z="1 : 0.5 : 1" sodipodi:type="inkscape:persp3d">
		</inkscape:perspective>
	
		<inkscape:perspective  id="perspective3406" inkscape:persp3d-origin="0.5 : 0.33333333 : 1" inkscape:vp_x="0 : 0.5 : 1" inkscape:vp_y="0 : 1000 : 0" inkscape:vp_z="1 : 0.5 : 1" sodipodi:type="inkscape:persp3d">
		</inkscape:perspective>
	
		<inkscape:perspective  id="perspective3406-0" inkscape:persp3d-origin="0.5 : 0.33333333 : 1" inkscape:vp_x="0 : 0.5 : 1" inkscape:vp_y="0 : 1000 : 0" inkscape:vp_z="1 : 0.5 : 1" sodipodi:type="inkscape:persp3d">
		</inkscape:perspective>
	
		<inkscape:perspective  id="perspective3406-9" inkscape:persp3d-origin="0.5 : 0.33333333 : 1" inkscape:vp_x="0 : 0.5 : 1" inkscape:vp_y="0 : 1000 : 0" inkscape:vp_z="1 : 0.5 : 1" sodipodi:type="inkscape:persp3d">
		</inkscape:perspective>
	
		<inkscape:perspective  id="perspective3446" inkscape:persp3d-origin="0.5 : 0.33333333 : 1" inkscape:vp_x="0 : 0.5 : 1" inkscape:vp_y="0 : 1000 : 0" inkscape:vp_z="1 : 0.5 : 1" sodipodi:type="inkscape:persp3d">
		</inkscape:perspective>
	
		<inkscape:perspective  id="perspective3446-2" inkscape:persp3d-origin="0.5 : 0.33333333 : 1" inkscape:vp_x="0 : 0.5 : 1" inkscape:vp_y="0 : 1000 : 0" inkscape:vp_z="1 : 0.5 : 1" sodipodi:type="inkscape:persp3d">
		</inkscape:perspective>
	
		<inkscape:perspective  id="perspective3446-4" inkscape:persp3d-origin="0.5 : 0.33333333 : 1" inkscape:vp_x="0 : 0.5 : 1" inkscape:vp_y="0 : 1000 : 0" inkscape:vp_z="1 : 0.5 : 1" sodipodi:type="inkscape:persp3d">
		</inkscape:perspective>
</defs>
<path id="path17" class="st0" d="M739.4,34.8l-3,1.5l-12,1.5l-1.5,1.5l-4.5,1.5h-1.5l-1.5,1.5h-3l-3,3h-1.5h-1.5h-1.5l-3,1.5l-3,1.5
	l-1.5-1.5l-1.5,1.5h-7.5l-4.5,1.5l-6,1.5h-3l-3,1.5h-3l-4.5,1.5l-4.5,1.5l-1.5,1.5v1.5l-3,1.5l-1.5-1.5l-1.5-1.5l-7.5-4.5h-1.5l-6,3
	v-1.5h-1.5v1.5h-1.5v-1.5l-1.5,1.5l1.5,1.5h1.5l1.5,1.5h1.5l1.5,1.5h1.5v1.5h-1.5h-1.5h-1.5v-1.5l-3-1.5v-1.5h-3l-1.5,3h1.5l1.5,1.5
	h1.5v1.5l-1.5,1.5l-1.5-1.5v1.5l1.5,1.5h1.5h1.5h1.5h1.5h1.5v1.5h-3h-1.5l-3-1.5v1.5l-1.5-1.5v1.5l1.5,1.5h1.5h1.5h1.5h1.5h1.5
	l1.5-1.5v1.5v1.5h-1.5l1.5,1.5l1.5-1.5h1.5v1.5l-1.5,1.5h-3v1.5l1.5,1.5l1.5-1.5h1.5l-1.5,1.5h-1.5h-1.5l1.5,1.5v1.5h-1.5v-1.5
	l-1.5-1.5v-1.5h-1.5l1.5-1.5h-1.5l-1.5-1.5v1.5l-1.5,3v-1.5v-1.5l-3-1.5l-1.5,1.5v1.5l3,3v1.5h-1.5v-1.5l-1.5,1.5v-1.5l-1.5-1.5
	v-1.5v-1.5v-3l-1.5-1.5v-1.5l1.5-1.5h-1.5v-1.5v-1.5l-1.5-1.5l1.5-3v-1.5v-1.5l3-1.5l-7.5,3h-1.5l-3-1.5h-4.5v1.5h-1.5h-1.5
	l-1.5-1.5l-6,1.5h-3h-1.5l-1.5,1.5l-6,1.5h-1.5h-1.5l-6,3h-3h-1.5h-1.5h-1.5v-1.5l-1.5-1.5v3l-3,1.5l-3,1.5l-1.5,1.5l-3,1.5
	l-1.5,1.5l-3,1.5h-3l-4.5,3l-6,3l-3,1.5l-7.5,4.5h-4.5l-1.5,1.5l-3,1.5h-1.5l-1.5,1.5l-3,1.5l-3,1.5l-1.5,1.5l-3,3l-1.5,3l-1.5,1.5
	v1.5h-1.5v1.5l-3,1.5l-1.5,1.5h-1.5l-3,3l-1.5,1.5h-1.5l-1.5,1.5l-1.5,3h-1.5l-1.5,1.5l-1.5,3l-1.5,4.5l-1.5,1.5v1.5h1.5l-1.5,1.5
	l-1.5,1.5l-1.5,1.5v1.5h1.5v3l-1.5,3v4.5v3v1.5l-1.5,1.5v1.5l-3,1.5h-1.5l1.5,1.5l-1.5,1.5v1.5l-1.5,1.5h1.5l1.5,1.5l1.5,3v1.5v1.5
	v1.5l1.5,3h-1.5l1.5,1.5h-1.5v-1.5v-1.5v-1.5h-1.5v-1.5v-1.5h-1.5h-1.5v-1.5h-1.5l1.5,3v1.5l1.5,1.5l1.5,1.5h-1.5v1.5v1.5h1.5h1.5v3
	v1.5l1.5-1.5v1.5h-1.5v1.5h1.5l1.5,1.5v1.5v1.5v1.5l-1.5,1.5v3l1.5,4.5v3l1.5,1.5v0.5l3-2l-3,3v-1l-1.5,1v1.5v3h-1.5l-1.5,1.5
	l1.5,1.5l1.5,3v1.5v3v1.5l-1.5,1.5h-1.5h-1.5l-3,3l-1.5,1.5l-1.5,1.5l1.5,1.5v1.5v1.5h3v1.5h1.5l3,3l3,3h1.5h1.5h1.5h3v-1.5l4.5,1.5
	h3l1.5,1.5l6,3h3v1.5h3l1.5-1.5h1.5v-1.5l1.5-1.5v-1.5l3-1.5l3,1.5l1.5-1.5l3-1.5h1.5l1.5,1.5v3h1.5h1.5h3h1.5h1.5v1.5h1.5l1.5-1.5
	v1.5v1.5h-1.5l-7.5,1.5h-1.5v1.5l-4.5,7.5l-7.5,12v1.5l-1.5,4.5v15v7.5v3v1.5v1.5h1.5l1.5,1.5l1.5,1.5l3,4.5l4.5,6l1.5,1.5h1.5h15
	h1.5h4.5h12h1.5l-1.5,1.5v3v1.5v1.5l1.5,1.5v1.5l-6-1.5l1.5,1.5h1.5h1.5v1.5l1.5,1.5v1.5v1.5l1.5,1.5l1.5,1.5v1.5v1.5l1.5,1.5v3v3
	v1.5l-1.5,4.5l-1.5,3v1.5v1.5l-1.5,3v1.5v1.5l-1.5-1.5v3h-1.5v-1.5v-1.5l4.5-9l1.5-3v-1.5v-3v-7.5l-1.5-3l-7.5-7.5v-1.5h-1.5h-7.5
	h-1.5l-6-1.5l-13.5-4.5h-1.5l-1.5-3h-1.5l-1.5,1.5l-10.5,3h-1.5l-1.5,1.5l-12,10.5v1.5h-1.5h-6h-1.5v1.5l-1.5,4.5v-1.5l-1.5,3v1.5
	v1.5v1.5v1.5l-3,1.5h-1.5l-1.5,1.5l-1.5,3h-1.5h-1.5v1.5l-25.5,16.5l-4.5,3v1.5h-1.5v1.5h-1.5H443l-9.6,6l-1.5,1.5l-6,4.5h-1.5v1.5
	l3,3v3v4.5l-1.5,1.5h1.5l1.5,3h-1.5l1.5,1.5l1.5-1.5h1.5l6-1.5h1.5h1.5l1.5,1.5h1.5h1.5h3l4.5,1.5l3,3l4.5,1.5l1.5,1.5v1.5h1.5
	l13.5,12l1.5,3h1.5l3,1.5l3-1.5l7.5-3h1.5h3l1.5-1.5l4.5-1.5h1.5l1.5-6l1.5-1.5v-4.5h1.5v-3v-1.5v-1.5v-1.5h-1.5v-1.5l-1.5-3
	l1.5-1.5l4.5-4.5l3,1.5l4.5-1.5h1.5l1.5-1.5h-1.5l1.5-1.5l1.5-1.5l1.5-1.5l4.5-4.5l12-6h1.5h1.5l1.5,1.5h1.5l6-4.5l1.5-3l3-3l1.5-3
	l1.5-1.5v1.5h1.5v1.5h-1.5l1.5,1.5l-1.5,1.5l-1.5,1.5l-4.5,4.5l-3,3l-3,1.5v1.5h-1.5l-1.5,1.5h-1.5l-1.5,1.5v1.5h-1.5v1.5h-1.5h-1.5
	l-3,1.5l-1.5,1.5h-1.5l-1.5,1.5l-3,1.5h-1.5l-1.5,1.5l-1.5,1.5v1.5h-1.5h-1.5v1.5v1.5h-1.5v1.5h-1.5v1.5h-1.5v1.5l-3,1.5l-1.5,1.5
	l-1.5,1.5v1.5l-1.5,3v3l-1.5,3v1.5l-1.5,3l-1.5,1.5h-6h-1.5l-3,3l-1.5-1.5l-1.5,1.5l-4.5,1.5h-3l-1.5,1.5h-3l-1.5-1.5l-1.5-1.5
	l-1.5-1.5h-1.5v-1.5l-1.5-1.5h-1.5h-1.5h-1.5l-1.5-1.5h-3l-1.5-1.5l-3-3v-1.5l1.5-1.5h-1.5h-1.5l-1.5-1.5h-1.5l-1.5-1.5h-1.5v-1.5
	l-1.5-1.5l-1.5,1.5h-1.5h-1.5h-6l-1.5,1.5h-1.5l-1.5,1.5h-1.5v-1.5h-1.5l-1.5-1.5l-1.5-1.5l-1.5-3h-1.5v-1.5h-3h-1.5l-1.5-3h-4.5
	h-1.5h-1.5l-3,1.5l-1.5-1.5v1.5h-1.5v-1.5h1.5v-1.5l-1.5-1.5h-1.5l-1.5,1.5h-1.5h-1.5v-1.5h1.5v-1.5v-1.5l-3-1.5h-1.5v1.5h-1.5
	l-1.5-1.5h-1.5v-1.5h1.5h1.5l1.5-1.5l-4.5-3v-1.5l3,1.5l1.5,1.5h1.5l1.5-1.5v1.5l1.5,1.5l1.5-1.5v-1.5v-1.5h1.5l1.5-1.5v-3l1.5-1.5
	l1.5-1.5l1.5-1.5h1.5h1.5v-1.5l1.5-1.5v-1.5l3-3h-1.5h-1.5l-1.5-1.5v1.5l-3-1.5v-1.5v-1.5v-1.5l1.5-1.5v-1.5h-1.5l-1.5,1.5l-1.5-1.5
	l3-1.5h3v-1.5l-1.5-1.5v-1.5v-1.5l1.5-1.5l1.5,1.5v-1.5l1.5-1.5l1.5-3h-1.5v-3h-1.5v-1.5l-1.5-1.5v-1.5l-1.5-3v-1.5l-3-4.5v-1.5
	l-1.5-1.5v-3l-1.5-3v-1.5l-1.5-1.5l1.5-1.5l-1.5-1.5v-1.5v-1.5v-1.5v-3v-1.5h1.5v-1.5h1.5l1.5-1.5h1.5h1.5v1.5l1.5,1.5v-1.5l1.5-1.5
	h1.5h1.5h1.5l1.5,1.5l1.5,1.5h1.5l1.5,1.5v1.5h3h1.5h1.5l1.5-1.5l3-3h1.5h3v-1.5l1.5-1.5h1.5v-1.5l3-1.5v-1.5l1.5-1.5v-3v-1.5l1.5-3
	h1.5h1.5h1.5l1.5-1.5h1.5l-1.5-1.5h1.5l1.5-1.5l1.5-1.5l-1.5-1.5l-1.5-1.5v-1.5v-1.5v-1.5v-1.5v-1.5v-1.5h-1.5l-1.5-1.5l-3-1.5h-4.5
	h-1.5l-1.5-1.5h-3h-1.5l-1.5,3l-1.5,1.5v1.5l-1.5-1.5h-1.5h-1.5h-1.5l-3-3l-1.5-1.5l-1.5-1.5l1.5-3h-1.5l-1.5-1.5h-1.5l3-22.5
	l-3-4.5l-4.5-9v-1.5l-1.5-1.5l-4.5-9h-1.5h-1.5v3l-3,3h-1.5l-3,1.5h-1.5l-1.5,3h-1.5h-1.5h-4.5h-1.5v1.5h-3l-3-1.5l-4.5,1.5
	l-1.5-1.5l-4.5-3h-1.5l-4.5-3l-1.5-1.5l-1.5-1.5l-1.5-3v-3v-3l1.5-3v-1.5h-1.5v1.5h-1.5h-1.5v-1.5v-1.5h-3h-3h-1.5h-1.5l-3,4.5v1.5
	v1.5v3l-1.5,4.5v4.5v6l-3,9l-1.5,9l-3,9v3h-1.5v3l-3,6v3l-3,9v1.5v1.5v1.5v1.5v4.5l-1.5,6v3v3l-1.5,6v3v1.5v3l-1.5,1.5v1.5
	l-1.5,10.5l-1.5,13.5l-1.5,7.5l-1.5,3l-1.5,3l-1.5,3l-1.5,4.5l3-1.5h1.5l3-1.5l1.5,1.5h-1.5v1.5h-3l-1.5,1.5h3v1.5l-3-1.5h-1.5v1.5
	l-3-1.5v3l1.5,3l-1.5,1.5v3l-1.5,3l-1.5,6l-1.5,4.5l-3,7.5l-6,12l-9,19.5l-3,4.5l-1.5,3l-4.5,7.5l-1.5,1.5v1.5l-3,4.5l-1.5,3l-4.5,6
	l-9,12l-4.5,3v1.5l-3,3h-1.5v1.5v1.5h1.5l-1.5,1.5v-1.5h-1.5l-1.5,1.5l-1.5,3l-1.5,1.5l-4.5,4.5l-3,3l-4.5,6l-1.5,1.5l-3,3l-1.5,1.5
	v1.5l-3,4.5l-3,1.5l-3,3h-1.5l-1.5-1.5l-7.5-1.5l-1.5,1.5h-1.5h-1.5l-1.5,1.5v1.5l-1.5,1.5l-1.5,3l1.5,1.5l1.5,1.5v1.5l-3,3l-1.5,3
	l-3,4.5h1.5h1.5l1.5,1.5l1.5-1.5l6-1.5h1.5l1.5,3h-1.5v1.5l-3,3v1.5l-1.5,1.5v1.5l1.5,1.5l6,9v1.5v1.5l-1.5,1.5l3-1.5l1.5,1.5
	l1.5,1.5l1.5,1.5v1.5h1.5h1.5h1.5h1.5l-1.5,1.5l1.5,1.5h1.5v-1.5h1.5h1.5h1.5l1.5,1.5l3,4.5h1.5h1.5h1.5v1.5h3l1.5,3l1.5,1.5h1.5
	h1.5l-1.5,1.5h-1.5l1.5,3l1.5,1.5l4.5,1.5v1.5h3l3,1.5h3v1.5l6,1.5l3,3h1.5l3,1.5l4.5,3h1.5l1.5,1.5h3v1.5h6h1.5l3,1.5h1.5h1.5
	l1.5,1.5h1.5l1.5,1.5h1.5l3-1.5h1.5l4.5-1.5h1.5l1.5-1.5h3l1.5-3l1.5,1.5h1.5l3-1.5v1.5v1.5l-3,1.5l-1.5,1.5h-1.5l-1.5,1.5l-1.5,1.5
	l-12,3h-1.5h-1.5l-4.5,1.5h-3l-4.5-1.5l-1.5-1.5h-1.5l-1.5-1.5h-1.5h-3l-1.5,1.5l-3,1.5l-1.5,1.5v1.5l-1.5,3l-1.5,1.5l-1.5,1.5
	l-1.5,1.5l-3,1.5h-1.5l-1.5,1.5h-1.5v-1.5h-1.5l-1.5,1.5h-3h-1.5l-1.5,1.5h-1.5h-1.5l-1.5,3h-1.5v-1.5h-1.5h-1.5h-1.5l-3-1.5h-3
	h-1.5h-1.5l-3-1.5l-4.5-3h-1.5l-4.5-1.5v1.5l-3,3h-1.5l1.5,3h1.5l1.5,3l1.5,3h3h3h1.5h1.5v-1.5h1.5v1.5v1.5l-1.5,1.5h-1.5h-1.5h-1.5
	h-1.5h-1.5l-1.5,1.5h-1.5l-3-3l-6-1.5h-1.5l-3,1.5l-1.5,1.5h-1.5l-3,1.5l-1.5,1.5l-1.5-1.5l-3,1.5l-1.5,1.5v3h1.5v1.5h1.5h1.5
	l1.5,1.5l1.5,1.5h1.5v1.5v1.5l1.5,1.5h1.5l1.5,1.5l1.5,1.5v3l1.5,1.5h1.5v1.5h1.5h1.5h6h1.5h1.5l1.5,1.5h1.5v-1.5l3,1.5l3,1.5
	l-1.5,1.5v1.5v1.5h1.5l6,3l1.5,1.5v9v1.5l1.5,6h-1.5h-1.5h-1.5l-1.5-1.5h-1.5h-1.5h-1.5l-1.5,1.5h-1.5l-1.5,1.5h-1.5h-1.5h-1.5v-1.5
	h-1.5l-4.5-3h-1.5l-1.5-4.5h-1.5l-3-4.5v-1.5l-1.5-1.5l1.5-1.5l-1.5-1.5v-1.5v-1.5h-1.5l-1.5-1.5l-3-3l-1.5-1.5h-1.5h-1.5l-1.5-1.5
	h-1.5l-3-1.5h-1.5l-1.5-1.5l-1.5,1.5h-1.5v1.5l-3-4.5h1.5l-1.5-1.5v-1.5h-1.5h-1.5h-1.5l-1.5,1.5h-1.5h-1.5h-3h-1.5h-1.5h-1.5v-1.5
	l-1.5-1.5h-3l-3,1.5h-1.5l-1.5,1.5l-4.5-1.5h-1.5l-1.5-1.5l-1.5,1.5l-3,1.5v1.5l-1.5,1.5v1.5l-1.5,1.5h-1.5l-1.5,1.5h1.5h1.5l-3,1.5
	v-1.5l-3-3l-1.5-1.5v-1.5l-1.5-4.5v-1.5h-1.5l-1.5-1.5l-3-1.5l-1.5-1.5l-1.5-1.5v-1.5v-3l1.5-1.5h-1.5h-1.5l-1.5-1.5h-4.5h-1.5h-1.5
	h-3v1.5h-1.5h-1.5l-1.5,1.5l-3,1.5l-1.5,1.5l-3,1.5h-1.5l-1.5,1.5l-1.5,1.5l-3,1.5l-1.5,1.5h-1.5l-1.5,1.5l-1.5,1.5v1.5v1.5v1.5
	l1.5,3h1.5l1.5,1.5l1.5,1.5l3,1.5v1.5h1.5l1.5,1.5l1.5,1.5v1.5l1.5,1.5v1.5l1.5,1.5v1.5l1.5,1.5l1.5,1.5l3,1.5v1.5h1.5l1.5,1.5v1.5
	h1.5h3h1.5v-1.5v-3h1.5v3l1.5,1.5h1.5h3l1.5-1.5v-1.5h1.5h3h1.5l-3-1.5l1.5-1.5l3-1.5h1.5v1.5l4.5-3v-1.5v-1.5l1.5,1.5v1.5h1.5
	l-1.5,1.5h-1.5l-3,1.5l3,1.5h1.5h1.5l-1.5,1.5l1.5,1.5v1.5l-1.5-1.5l-1.5,1.5h-1.5l1.5-3l-3-1.5l-1.5-1.5l-1.5,3l1.5,1.5l4.5,3
	l1.5,1.5v1.5h1.5v3v1.5h1.5l1.5,1.5h1.5v-1.5h1.5l3,1.5h1.5v1.5l3,1.5v1.5h1.5l3,3h1.5h3l3-1.5h1.5l1.5-1.5h3h1.5l1.5,1.5l1.5-1.5
	l1.5-6h1.5v-1.5v-1.5h1.5v-3v-1.5v-1.5v-1.5v-1.5l3,1.5l3-1.5h1.5l3-3l1.5,1.5l1.5,1.5l1.5,1.5v1.5h1.5v1.5h1.5h1.5l1.5,1.5l1.5,1.5
	h3v1.5v3l3,1.5h1.5l1.5,1.5h1.5l3,1.5l3,1.5h3l1.5,1.5h3l4.5-1.5l3-1.5h1.5h1.5v1.5h1.5h1.5l3,1.5l1.5,4.5v3h4.5l3-1.5h10.5v1.5
	l1.5,1.5v4.5l1.5-1.5l4.5,1.5h1.5h1.5h1.5h1.5l1.5-1.5l3-1.5h1.5v-1.5v-1.5l-7.5-10.5l-1.5-4.5l1.5-1.5h1.5v-1.5v-1.5v-1.5v-1.5
	h-1.5l-1.5-1.5l1.5-1.5l10.5-4.5h3l1.5-1.5l1.5-1.5h1.5h1.5l10.5-1.5l1.5,3l-3,7.5l1.5,9l7.5-3h1.5h3l6,1.5l3,1.5h1.5v-1.5l1.5,1.5
	l3-1.5l-1.5-6l4.5-1.5h1.5l1.5-4.5l3-1.5l1.5-1.5l1.5-3l3-1.5l1.5-1.5l-1.5-1.5h1.5h1.5v-1.5l3-1.5l1.5,1.5v1.5h1.5h1.5l3,1.5h1.5
	v1.5v1.5l1.5,1.5l1.5-1.5l1.5,1.5l-1.5,3v3h1.5v1.5h-1.5l-1.5,1.5l-1.5,1.5l1.5,6v1.5h1.5h1.5v1.5h-1.5l-4.5-1.5l-1.5-1.5h-3v-1.5
	h-1.5l-3,1.5v1.5v1.5l1.5,1.5l3,1.5h1.5l4.5-1.5h3h3l1.5,1.5h1.5v-1.5h1.5h1.5h1.5h1.5l3,3v1.5h1.5l1.5,1.5h1.5l6-9l9-6v-3h1.5v-1.5
	l-1.5-1.5v-1.5l1.5-1.5v-1.5l1.5-1.5l3-1.5h1.5l-1.5,1.5l1.5,1.5v1.5h1.5h6l4.5,13.5l-1.5,3l-4.5,9l9,10.5v1.5l1.5,1.5l1.5,1.5v10.5
	l6,1.5l1.5-1.5l4.5-1.5h1.5v-1.5l9,6l-3,12l1.5,1.5l6-1.5l6,1.5h4.5h3l1.5-1.5l1.5-3l4.5,1.5l6,1.5l3,1.5l4.5-4.5l1.5-1.5l4.5-1.5
	l1.5-1.5l1.5-1.5v-1.5h1.5l6,1.5v1.5l1.5,3l4.5,3l1.5,1.5v1.5v1.5v1.5v1.5v3l1.5,6h1.5l3,1.5l12,4.5l1.5,1.5v1.5l1.5,3l1.5-1.5
	l1.5,1.5h1.5h1.5h3h1.5h1.5h3l1.5-1.5h1.5l1.5,1.5h3l1.5,1.5v1.5h1.5l-1.5,1.5h-1.5v1.5h1.5v1.5v1.5v1.5h1.5v-1.5h1.5h1.5v-1.5h1.5
	h1.5v-1.5l3-1.5v1.5h1.5v3l4.5,3l-1.5,1.5l-1.5,1.5v1.5l-3,1.5h-1.5v1.5l-1.5,1.5l-1.5,1.5l1.5,1.5h3l1.5,1.5v1.5l-1.5,1.5v1.5h-1.5
	l-1.5-1.5h-1.5h-1.5v1.5v1.5l1.5,1.5v1.5h-1.5v1.5l1.5,3h-1.5v1.5h-1.5l-3-1.5l-1.5,4.5v3l-1.5,1.5v1.5h1.5l1.5,1.5v1.5l-1.5,3v1.5
	v1.5v1.5l-1.5,1.5l-1.5,1.5l-1.5,3h-1.5l-1.5,3l-1.5,3v1.5h1.5h1.5l1.5-1.5h1.5l1.5,1.5v1.5l-3,1.5v1.5v1.5l-3,3v1.5l-1.5,1.5
	l1.5,1.5l-1.5,1.5h-1.5h-1.5h-1.5l-1.5,1.5v1.5v1.5l-3,3v1.5h-1.5l-1.5,1.5h-1.5v1.5h-1.5h-1.5l1.5,1.5l-1.5,1.5v1.5v1.5v1.5v1.5
	v1.5v1.5h1.5v1.5v1.5h1.5v1.5l1.5,1.5h1.5h1.5v1.5h3l1.5,1.5v1.5l-1.5,1.5l1.5,4.5v3l-3,4.5v1.5h1.5h1.5l1.5-1.5h1.5l1.5-1.5v1.5
	l1.5,1.5h1.5l1.5-1.5v-1.5l1.5-1.5l3-4.5h3v3l1.5,3l1.5-1.5l3,4.5h1.5l1.5-1.5l1.5,1.5l1.5-1.5l1.5-1.5v1.5v3l1.5-1.5l1.5-1.5v-1.5
	h1.5h1.5l3-1.5v1.5v3l3,1.5v-1.5h1.5h1.5v1.5l3-1.5l1.5-1.5h1.5h1.5h1.5h1.5l1.5,1.5l3,1.5h1.5v-1.5h3h1.5v-3l1.5-3l-4.5-3h-1.5
	l-1.5-1.5v-1.5h-1.5l-1.5-1.5v-1.5v-1.5l1.5-1.5l1.5,1.5l3,1.5l1.5-3l1.5-1.5v-1.5h1.5l-1.5-1.5v-1.5l-1.5-1.5v-1.5v-1.5l1.5-1.5h3
	l1.5-1.5h1.5v-1.5h1.5v1.5l3,1.5v-3v-1.5h1.5v-1.5l1.5-1.5v-3l-1.5-1.5v1.5l-1.5-3v-1.5v-1.5l1.5-1.5v-1.5l1.5-1.5v-1.5l-1.5-1.5
	h-1.5h-1.5h-3v-1.5v-1.5l-1.5,1.5l-1.5-1.5l-4.5-1.5v-3v-1.5l-3-1.5l1.5-1.5h1.5v-1.5l1.5-6h-1.5h-6h-1.5l-1.5,1.5h-1.5l-1.5-1.5
	v-1.5h-1.5l-3,1.5h-1.5l-1.5,1.5h-1.5l-1.5,1.5h-1.5l-1.5-1.5l3-3v-4.5h-1.5l-1.5-1.5v-1.5h-1.5v-1.5h-1.5v-1.5v-1.5v-1.5v-3
	l-1.5-1.5l-1.5-3h1.5h3h1.5v-1.5l3-1.5l1.5-1.5v1.5l3,4.5l1.5,3v1.5l1.5-1.5h1.5v1.5h1.5v-1.5l1.5-1.5v-1.5l1.5-1.5v-1.5v-1.5
	l1.5-1.5v-1.5l1.5-1.5v-1.5l1.5-1.5l3-1.5l1.5-1.5l3-1.5h1.5l1.5-1.5l1.5-1.5v-1.5l1.5-1.5h1.5h1.5l1.5-1.5v-1.5v-1.5l1.5-1.5h1.5
	h1.5l1.5-1.5h1.5v-1.5h3l1.5-1.5h1.5h3l-1.5-1.5h1.5l1.5-1.5l-6-4.5h-1.5l9-4.5l-3-3l-9,4.5l-1.5,1.5l-1.5,1.5h-1.5h-1.5h-3v-1.5
	l-1.5-1.5v-10.5l-1.5-1.5l1.5-1.5h3l-3-6l3-1.5l1.5-3l6-6v-1.5l1.5-1.5l3-4.5l1.5-3v-1.5l1.5-1.5v-1.5v-1.5l1.5-1.5v-1.5h1.5h1.5
	h1.5v-1.5l7.5-7.5l-1.5-4.5l-1.5-3v-1.5l1.5-1.5l1.5-1.5h-4.5v-1.5l1.5-9v-4.5h1.5l-1.5-3l1.5-1.5v-4.5l-1.5-3l-1.5-3l1.5-3
	l-1.5-1.5v-3v-1.5l-1.5-3l-3-1.5l-3-1.5l-3-9l-3-1.5l-1.5-1.5l-1.5-1.5l-1.5-3v-1.5h-1.5l-4.5-3v-3v-3h1.5v-1.5l1.5-4.5v-1.5
	l1.5-1.5v-1.5l-3-1.5h-1.5h-1.5v-1.5h-1.5h-1.5l-7.5-3l-1.5-1.5v-1.5v-1.5l1.5-1.5l-1.5-1.5v-1.5v-3h1.5h1.5v-1.5h-1.5v-1.5v-1.5
	h-1.5l-4.5-3l-1.5-1.5h-3h-1.5h-4.5v-1.5v-1.5l1.5-1.5l3-1.5h1.5l1.5-3v-1.5h-1.5v-3h1.5l-1.5-1.5h-1.5v-1.5v-1.5v-1.5l-3-3h-1.5
	h-1.5v-1.5l1.5-1.5h1.5l-3-1.5l3-4.5h1.5v1.5h3h1.5l3-1.5h1.5l1.5-1.5l1.5-1.5l1.5,1.5l1.5-1.5l1.5-1.5h1.5l-1.5-1.5l1.5-1.5
	l1.5-1.5l1.5,1.5l3,3h1.5h1.5l6,1.5h4.5l1.5,1.5v-3v-1.5v-1.5v-1.5l-3-1.5h-1.5v-1.5v-1.5l-1.5-3l-1.5-1.5h-3h-1.5l1.5-1.5v-1.5h1.5
	l1.5,1.5l6-3l1.5,1.5h1.5l1.5,1.5l3,1.5v1.5h-3l1.5,1.5l1.5,1.5l1.5,1.5l3,1.5h3v-1.5h3l1.5,1.5h1.5v-1.5h1.5v-1.5l1.5,1.5l4.5,1.5
	v1.5l1.5,3v1.5l3-1.5h3h1.5l1.5,1.5h1.5l1.5,1.5v1.5v1.5h1.5h1.5h1.5l3,1.5h1.5l-1.5-3l1.5,1.5l-1.5-3v-1.5l1.5-1.5h-1.5v-1.5h-1.5
	l-1.5-1.5v-1.5v-3l3,1.5h1.5l1.5,1.5h1.5v1.5h1.5h1.5l1.5-1.5l1.5,3h1.5l1.5,1.5l1.5-1.5l4.5-1.5v-1.5v-1.5h1.5l1.5-1.5h1.5h1.5
	l1.5-1.5v-1.5h1.5l1.5-1.5v1.5h1.5l1.5-1.5l3-1.5l7.5-3h1.5h1.5v-1.5l3-1.5l3-1.5h1.5l1.5-1.5v1.5h1.5h1.5v1.5l1.5,1.5l3,3l3-1.5
	v-1.5h1.5l1.5-1.5h1.5v-1.5l1.5-1.5h1.5l3-4.5l1.5-1.5v-1.5v-1.5v-4.5l3-1.5h3l1.5-3l-1.5-1.5v-3v-1.5l-4.5-1.5h1.5l-9-6l-1.5-1.5
	l-1.5-3l-7.5-3h-6v-1.5v-3v-1.5l1.5-1.5v-1.5v-1.5h4.5l3-1.5l3-1.5v-1.5v-1.5v-1.5h1.5v-1.5l1.5-6h12h4.5l1.5-1.5l1.5-1.5l1.5-1.5
	v-1.5l1.5-7.5h1.5v-1.5l4.5-3v-1.5l4.5-1.5h4.5l1.5-3v-1.5l1.5-1.5v-1.5l1.5-1.5v-1.5v-1.5v-1.5l1.5-1.5l3-1.5l1.5,1.5h1.5h1.5h3
	l4.5-3v-1.5l-4.5-6l-1.5-1.5v-3h-1.5v-1.5v-1.5v-1.5v-1.5l1.5-4.5v-1.5h1.5v-1.5h1.5v-1.5v-1.5l1.5-3v-1.5l3-4.5v-7.5l-3-6v-1.5
	v-1.5h-1.5h-1.5h-1.5l-1.5-3l-1.5-3l-3-3v-1.5l-1.5-3v-3l-1.5-3v-1.5h-1.5h-1.5l-1.5,3l-1.5,4.5l-3,1.5v1.5h-1.5l-7.5-1.5l-3-1.5
	l-4.5-1.5h-3l1.5-3h-3h-4.5h-9h-3l-1.5-1.5l-6-3l-1.5-1.5l-3-1.5l1.5-12l-3-4.5l-3-6h1.5l3,1.5h3l1.5-4.5h3l3,1.5l1.5-1.5l-9-7.5v-3
	l1.5-6v-1.5l-1.5-1.5l-1.5-1.5l1.5-1.5h1.5l1.5-1.5l1.5-3h3h1.5l1.5-1.5h1.5h1.5h1.5h1.5h1.5l1.5,1.5l1.5-1.5h1.5h3h3l1.5-1.5
	l1.5,1.5h3h1.5l3,1.5v1.5h1.5h3h1.5h1.5h3l1.5-1.5h1.5l1.5,1.5l1.5-1.5v1.5h1.5l4.5,1.5h1.5l3-3v-1.5v-3v-6l1.5-15v-19.5v-9l4.5-9
	l-1.5-3v-1.5l3-4.5l9-15l6-10.5l3-12l1.5-7.5l1.5-1.5v-1.5l-3-13.5v-7.5v-1.5v-10.5l-4.5-3v-3v-1.5v-1.5l1.5-1.5v-3v-1.5l1.5-4.5
	h1.5l1.5-1.5h3l-3-1.5l-1.5-1.5l1.5-1.5v-1.5v-6l-1.5-4.5v-1.5h-1.5l-4.5-1.5h-1.5v-1.5h-1.5h-1.5h-1.5h-1.5v-1.5h-1.5h-1.5h-3
	l-1.5-1.5h-1.5l-1.5-1.5l-1.5-1.5v-1.5v-3l1.5-1.5l-1.5-3v-1.5h1.5l1.5-3v-1.5l-3,1.5l-1.5,1.5h-4.5h-1.5h-1.5h-1.5l-3-1.5v-1.5
	h-1.5h-1.5l-3-1.5l-3-1.5v1.5l-3-1.5l-3-1.5h-1.5v-1.5h1.5l-1.5-1.5l-3-3h-1.5l-1.5-1.5v-1.5v-3v-3l-1.5-1.5v-1.5v-1.5v-3l-1.5-3
	h-1.5v-4.5l1.5-4.5v-1.5l-4.5-4.5l-3-1.5l-1.5,3l1.5,1.5h-1.5h-1.5h-1.5v-1.5l1.5,1.5v-1.5l1.5-3h-1.5l-3-1.5l-3,3l-1.5-1.5l-3-1.5
	h-4.5L739.4,34.8z M776.9,78.3l1.5,1.5v-1.5H776.9z M830.9,108.3v-3l-1.5,1.5L830.9,108.3z M383.9,706.8h-1.5h-1.5l1.5,1.5
	L383.9,706.8z M124.4,640.8h1.5v1.5v1.5h1.5v3h1.5l1.5,1.5h1.5l1.5,1.5l1.5,1.5l1.5-1.5v1.5h-1.5l3,3v1.5v1.5l-1.5,1.5l1.5,1.5v1.5
	l1.5-3h1.5l1.5-3l1.5-1.5l6-1.5h3l1.5,1.5h3h1.5h1.5v-1.5h1.5h3l1.5,1.5l1.5,1.5h3l1.5-3h3l1.5-1.5v-1.5v-1.5v-1.5h-1.5v-1.5
	l-1.5-1.5l-1.5-3v-1.5l-1.5-1.5h-1.5h-1.5v-1.5h-1.5h-1.5l-3,1.5l-1.5-1.5h-3l-3,1.5l-1.5,1.5l-3-1.5l-3,1.5h-1.5l-1.5,1.5h-1.5
	l-1.5-1.5h-1.5l-1.5-1.5h-1.5h-1.5v-1.5h-1.5v1.5l-4.5,1.5L124.4,640.8z M211.4,561.3l-1.5,1.5h1.5V561.3z M362.9,201.3v-1.5h-1.5
	L362.9,201.3z M395.9,393.3v1.5h1.5L395.9,393.3z M524.9,396.3l-3-1.5l1.5,1.5H524.9z M443,376.8l2.4-1.5l-3,1.5H443z M473.9,159.3
	l-4.5,4.5h-1.5h-1.5l1.5,1.5h1.5l1.5-1.5L473.9,159.3z M484.4,129.3v-1.5l-1.5,1.5H484.4z M638.9,73.8v1.5l1.5,1.5L638.9,73.8z
	 M629.9,82.8h1.5v1.5L629.9,82.8z M626.9,84.3h1.5l-1.5,1.5V84.3z M479.9,174.3h1.5l-1.5,1.5V174.3z M417.8,289.5l0.1,0.1L417,290
	L417.8,289.5z M413.5,292.5l-0.3,0.3l0,0L413.5,292.5z M413.2,293.3l0.1,0.9l-2.2,0.3l0,0l-3.1,1.2l3-1.2h0.1l2.2-0.3v-0.9H413.2z
	 M544.4,316.8v1.5h1.5v1.5l1.5,1.5v-1.5h1.5l1.5-1.5l-1.5-1.5h-1.5h-1.5H544.4z M421.4,360.3v1.5v1.5l-1.5,3h1.5l1.5-1.5h1.5
	l1.5-1.5h1.5v-1.5l-3,1.5l-1.5-1.5L421.4,360.3z M287.9,570.3h1.5l-1.5,1.5V570.3z"/>
<path id="path65" class="st1" d="M607.5,40.8v1.5l-1.5,1.5h-1.5l0,0v-1.5v-1.5l0,0l1.5-1.5l0,0h1.5V40.8z"/>
<path id="path71" class="st1" d="M544.5,39.3h4.5h4.5l19.5-1.5l9-1.5h4.5l3,1.5h1.5v1.5l0,0v1.5h-1.5H585h-3h-4.5l-3,1.5l0,0l-3,1.5
	H570l0,0l0,0l-6,1.5l-6,1.5h-3h-1.5H552l-4.5-1.5H546h-3h-1.5v1.5l-1.5,1.5l-1.5,1.5h-3l-1.5,1.5h-1.5H531h1.5l-1.5,1.5l-1.5-1.5h-3
	l-1.5-1.5l-3-1.5l-1.5-3v-1.5l1.5-1.5l1.5-3l1.5-1.5l3-3h1.5h1.5l1.5,1.5h1.5l1.5,1.5H534l0,0l-1.5-1.5l0,0H531h-3l-1.5,1.5h3h1.5
	l0,0l6,1.5H544.5z"/>
<path id="path99" class="st1" d="M663,22.8v3h-1.5H660h-1.5H657l-3,1.5l0,0l-4.5,1.5l-1.5,1.5v1.5l-3,1.5h-1.5h-3l0,0H639l0,0
	l-4.5,1.5H633l0,0h-4.5H627l-1.5,3v1.5H624v1.5l0,0h-1.5l0,0H621v1.5l0,0l-1.5-3l0,0v-1.5h1.5l1.5-1.5l-1.5-1.5v-1.5v-3l1.5-1.5
	l3-1.5v-1.5l0,0H624h-1.5H621l0,0h-1.5h1.5l0,0l1.5-1.5l3,1.5h4.5l15-1.5h4.5l9-1.5l3-1.5L663,22.8z"/>
<path id="path105" class="st1" d="M450,108.3L450,108.3L450,108.3l-1.5-1.5h1.5l0,0h3h1.5l0,0H453v1.5h-1.5l0,0H450v-1.5l0,0l0,0
	l0,0V108.3z"/>
<path id="path107" class="st1" d="M486,57.3h-6l-3,1.5h-1.5l-1.5,1.5l0,0l-3,3l-1.5,1.5l0,0H468h-1.5v1.5H465l-1.5-1.5v1.5H462
	l-1.5,1.5l0,0l0,0H459v1.5l0,0l-1.5-1.5H456l0,0h-1.5H453l0,0l-1.5,1.5l-1.5,1.5l-1.5-1.5l-1.5,1.5h-1.5l-1.5,1.5v1.5l0,0l0,0h-1.5
	l-3,1.5h1.5l-1.5,1.5H438h-3l-1.5-3H432l0,0v-1.5l1.5-1.5l3-4.5l3-4.5l0,0l3-1.5l3-1.5l6-1.5l9-1.5h3l9-3l7.5-3l16.5-6h4.5l4.5-1.5
	l1.5,1.5h1.5l1.5,1.5l0,0v3v1.5l0,0v-1.5v-1.5l-1.5-1.5l0,0v1.5l-1.5,1.5l0,0l-1.5,1.5h-3H501l-3,1.5l0,0l0,0l-1.5-1.5l0,0l0,0l0,0
	v1.5h1.5l-1.5,1.5H495l0,0h-1.5v-1.5H492l0,0l1.5,1.5v1.5H492h-1.5l0,0l-1.5-1.5l0,0l0,0l1.5,1.5l1.5,1.5h1.5h1.5l0,0l-1.5,1.5h-3
	h-3C487.5,57.3,486,57.3,486,57.3z"/>
<path id="path109" class="st1" d="M433.5,91.8L433.5,91.8l-1.5,1.5l-1.5,1.5H429h-1.5H426l0,0v1.5l0,0h-1.5l0,0v-1.5l0,0h1.5h-1.5
	l1.5-1.5l1.5-1.5h3H433.5L433.5,91.8z"/>
<path id="path111" class="st1" d="M414,93.3v1.5l-1.5,1.5l-3,1.5l-9,3l-3,1.5v1.5v3h1.5v-1.5l0,0l0,0l0,0h1.5l-1.5,1.5l-1.5,3l0,0
	l0,0l-4.5,3l-1.5,1.5H390v1.5l-1.5,1.5l-3,1.5l0,0l0,0H384h-3h-4.5l-1.5,1.5l0,0v1.5h1.5H375h-1.5l0,0v-3v-1.5v-1.5l9-4.5l4.5-4.5
	l3-1.5l3-3l1.5-1.5l6-4.5l3-1.5l1.5-1.5l0,0l4.5-1.5l3-1.5l3-1.5h1.5l4.5,1.5v1.5l-1.5,1.5l0,0l0,0h-1.5H417H414z"/>
<path id="path415" class="st1" d="M342,196.8l-3,1.5l0,0l0,0l0,0l-1.5,1.5H336v1.5l0,0h-1.5l0,0l-1.5-1.5l0,0v-1.5v-1.5v-1.5h1.5
	l0,0l0,0l0,0h1.5h1.5l4.5-1.5l0,0h3v1.5l0,0L342,196.8z"/>
<path id="path417" class="st1" d="M375,174.3l-3,3l-1.5,1.5H369h-1.5H366l-4.5,6v1.5l0,0v1.5H360h-1.5l-1.5-1.5l-3-1.5h-1.5l1.5,1.5
	l1.5,1.5l0,0l1.5,1.5h1.5h-3l0,0v1.5l0,0l0,0h-3H351h1.5l-1.5,1.5h-1.5l-1.5,1.5h-1.5v-1.5v-3l-1.5-6v-3v-1.5l1.5-4.5v-1.5l0,0
	l1.5-4.5l1.5-4.5l1.5-4.5l1.5-1.5l3-4.5l3-6l4.5-4.5l0,0l0,0v1.5v1.5l1.5-1.5l0,0l0,0l1.5-1.5l0,0l1.5-1.5h1.5v1.5v-1.5l0,0h-1.5
	v-1.5l-1.5,1.5l0,0l-3,1.5l0,0l4.5-9l1.5-1.5l3-1.5v-1.5h1.5h1.5l0,0l1.5,1.5l1.5,1.5v1.5v1.5h1.5H378l0,0v1.5l1.5,1.5l0,0l1.5,1.5
	l3,4.5v1.5l0,0l0,0l0,0l-1.5,1.5v9v4.5v1.5l-1.5,3h-1.5l-1.5,1.5l0,0l0,0v3l-3,3V174.3z"/>
<path id="path433" class="st1" d="M435,189.3L435,189.3l-21,18l-1.5,1.5H411v-1.5h3L435,189.3z"/>
<path id="path435" class="st1" d="M385.5,225.3l-3-1.5l-4.5,1.5l0,0l6-3l1.5-1.5l3-1.5h1.5l3-4.5v-1.5l0,0l3-3h3l1.5-1.5h1.5
	l1.5,1.5h1.5l1.5-1.5l0,0h1.5l1.5,1.5l0,0l0,0l0,0l0,0v-1.5h1.5v3l0,0l-1.5-1.5l0,0l0,0v3l0,0H408v3l0,0l-3,3h-1.5l-3,1.5H399
	l-1.5,3H396l0,0h-1.5l0,0H390h-1.5v1.5l0,0l0,0H385.5L385.5,225.3z"/>
<path id="path479" class="st0" d="M200.9,558.3l-3,1.5h3V558.3z M200.9,559.8l-4.5,1.5h-1.5h-1.5l3-1.5l-4.5,1.5l-9,3l-3,1.5h-1.5
	l-4.5,1.5h-1.5l-1.5,3v1.5v1.5l1.5,4.5v1.5h1.5v1.5h1.5l3-1.5v-1.5h-1.5v-1.5h1.5h1.5h1.5l1.5-1.5h1.5h1.5h1.5l1.5-1.5l1.5-1.5
	l3,1.5h3l3,1.5v1.5l1.5,1.5l1.5,3h1.5v3v1.5h-1.5v1.5h1.5l-1.5,1.5v1.5l1.5,3h1.5v1.5l1.5,1.5v1.5l1.5,3v3h1.5h1.5l1.5,1.5l1.5-1.5
	v1.5h3h3h1.5h1.5l1.5,1.5l4.5,1.5l1.5,3l1.5,1.5h3h1.5v1.5h3l1.5,1.5h1.5v1.5v1.5l3,1.5l1.5,1.5h4.5h1.5h1.5l3-1.5h3h1.5l4.5-1.5
	l3-1.5l1.5-1.5l1.5-3v-1.5h-1.5v-1.5h1.5h1.5h1.5h1.5l3-1.5h-1.5v-1.5v-1.5h-1.5l-1.5,1.5h-3h-3h-3h-1.5h-3l-3-4.5h-3l-1.5-1.5h-1.5
	l-1.5-1.5v-1.5l-3-1.5v-1.5v-1.5h-1.5l-4.5-4.5l-4.5-4.5h-1.5v-1.5h-3l-1.5-1.5h-1.5l-3-3l-3-1.5h-1.5l-6-3l-1.5-1.5l-4.5-1.5v-1.5
	l-1.5-1.5h-1.5v1.5l-1.5-1.5h1.5v-1.5v-1.5h-1.5v1.5h-1.5v-1.5l-3-1.5v-1.5L200.9,559.8z M172.4,580.8l-1.5,3l-1.5,1.5l-3,1.5h1.5
	l3,1.5l1.5,1.5h1.5v-1.5l-1.5-1.5l-1.5-1.5L172.4,580.8z"/>
<path id="path483" class="st1" d="M190.5,580.8l1.5,1.5l0,0L190.5,580.8h-3l-3,1.5l-3,1.5H180v-1.5l0,0l3-1.5v-1.5l1.5-1.5l1.5-1.5
	v1.5h1.5L190.5,580.8L190.5,580.8z"/>
<path id="path547" class="st1" d="M259.5,591.3l3,1.5l4.5,1.5l3,1.5l0,0l1.5,1.5H270l0,0l-3,1.5h-4.5H261l-1.5-1.5l-1.5-1.5l0,0
	h-1.5l-3-3H252l-1.5-1.5l0,0l0,0l1.5-1.5l0,0h3L259.5,591.3z"/>
<path id="path625" class="st0" d="M95.9,699.3v1.5h-1.5h-1.5l-3,1.5h-1.5h-1.5l-1.5,1.5h-1.5h-1.5h-1.5h-1.5h-1.5v1.5h-1.5l-1.5,1.5
	h-1.5h-1.5l-1.5,1.5h-1.5v1.5l1.5,1.5v3v1.5v1.5l1.5,1.5v3l-4.5,4.5l-1.5,1.5l1.5,1.5l3,3h-1.5h-1.5v1.5l1.5,1.5l1.5,1.5v1.5
	l-1.5,1.5l1.5,1.5h1.5l1.5,3h1.5l1.5,3l1.5-1.5l1.5,1.5v1.5v1.5h1.5l1.5,1.5h1.5h4.5l12-1.5l-1.5-10.5l-1.5-1.5l3-1.5l1.5,1.5h1.5
	v-1.5h1.5h1.5v-1.5h1.5l1.5,1.5l1.5,1.5l1.5-1.5l-1.5-3l3-1.5l1.5,1.5l3,1.5l1.5,1.5l3,1.5h1.5v-1.5h3l3,3h1.5l1.5,1.5v1.5h4.5
	l1.5,1.5v-1.5l6,1.5h1.5l1.5,3h1.5v-1.5l1.5,1.5l1.5,1.5h1.5v1.5l-1.5,1.5v3v4.5v3l1.5,1.5h1.5v-1.5l1.5,1.5h1.5h1.5h1.5h1.5h1.5
	h1.5h1.5l3-3h1.5h1.5v3h-1.5l-1.5,1.5l1.5,1.5h1.5h1.5l3-1.5h1.5l-1.5-3l3-1.5l1.5,3h1.5v-1.5h1.5h1.5l1.5-1.5v-1.5h3l1.5-3h1.5
	l1.5-1.5l3-1.5h1.5v1.5h1.5l1.5-1.5v1.5h3l1.5-1.5h1.5l1.5-1.5l3-3l3-1.5l3-1.5l7.5-6l1.5-1.5l15-18h-1.5v-1.5h-1.5v-1.5v-1.5
	l-1.5,1.5v-1.5v-1.5l-1.5-1.5h-1.5h-1.5l1.5-1.5h-1.5h-1.5v1.5l-1.5,1.5v1.5l1.5,1.5h1.5v1.5v1.5l-1.5-1.5l-1.5,1.5h1.5l-1.5,1.5
	h1.5v1.5l-1.5-1.5h-3l1.5,1.5v1.5l-1.5-3l-1.5-1.5h-1.5l1.5,1.5l1.5,1.5h-1.5v-1.5h-1.5v-1.5v-1.5l-1.5-1.5l-1.5-1.5h-1.5h-3v1.5
	h1.5h1.5h1.5l-1.5,1.5v1.5l1.5-1.5l1.5,1.5h-1.5v1.5v1.5h1.5v1.5h-1.5l-3-6h-1.5l-4.5-3v-1.5h-1.5v1.5l-6-1.5l-1.5-1.5v-1.5
	l-1.5-1.5v-1.5l-1.5-1.5l1.5-1.5h-1.5l-1.5-1.5v-1.5h-3h-1.5l-1.5-1.5h-3l-1.5,3v1.5h-1.5v3v1.5v1.5v1.5l-1.5,1.5v-1.5l-1.5,1.5
	h-1.5l-4.5,1.5l-3,1.5l-1.5,1.5h-1.5v1.5h-3v1.5l-1.5,1.5h-1.5h-3h-1.5l-1.5-1.5h-1.5v1.5l-1.5-1.5v1.5v1.5l-1.5-3v-1.5h-1.5h-1.5
	v-1.5h-4.5v4.5l-3-1.5v-1.5l1.5-1.5h-1.5h-3h-1.5h-1.5h-1.5v-1.5l-1.5-1.5l-1.5-1.5h-1.5v-1.5l-1.5-1.5h-4.5l-3-1.5h-1.5l-4.5-1.5
	h-1.5v-1.5h-1.5l-3-1.5h-1.5l-1.5-1.5l-1.5-1.5h-1.5l-1.5-1.5h-1.5v-1.5h-4.5h-1.5H95.9z M232.4,720.3l-1.5-1.5l-1.5,1.5H232.4z
	 M230.9,718.8h1.5h1.5h1.5l-1.5-1.5h-1.5v-1.5h-1.5v-1.5h-1.5h-1.5v1.5v1.5l1.5,1.5H230.9z M233.9,714.3l1.5,1.5h-1.5V714.3z
	 M236.9,714.3h1.5l-1.5,1.5V714.3z M226.4,724.8h1.5v1.5h-1.5V724.8z"/>
<path id="path651" class="st1" d="M435,189.3l6-6l1.5-1.5l16.5-15h1.5l4.5-1.5h1.5l0,0l0,0v-1.5v1.5l1.5,1.5l-1.5-1.5H465l0,0
	l-3,1.5h-3l-13.5,13.5l-1.5,1.5l0,0h-1.5l-1.5,1.5L435,189.3L435,189.3z"/>
<path id="path659" class="st1" d="M135,655.8L135,655.8l-1.5-1.5v-1.5l0,0h1.5l1.5,1.5v1.5l-1.5,1.5l0,0V655.8z"/>
<path id="path661" class="st1" d="M142.5,621.3L142.5,621.3L142.5,621.3l-1.5,1.5v3v1.5l0,0l1.5,1.5l1.5-1.5l-1.5-1.5l0,0l1.5,1.5
	l-1.5,1.5l0,0l-3-1.5v1.5v1.5l0,0l0,0l-1.5-1.5l0,0l0,0l-1.5,1.5l0,0h1.5v1.5h-1.5v-1.5l-1.5,1.5l0,0v1.5v3h-1.5l0,0l1.5-3v-1.5
	l-1.5-1.5l0,0H132l0,0l0,0l0,0h1.5l1.5-3l3-1.5v-1.5l0,0v-1.5l0,0l0,0v1.5l0,0l0,0h1.5l0,0l0,0l0,0h1.5v-1.5L142.5,621.3
	L142.5,621.3z"/>
<path id="path861" class="st1" d="M457.5,288.3L457.5,288.3h3l10.5,4.5l1.5,1.5l7.5,7.5l3,4.5v1.5l7.5,12l3,7.5v1.5H492l-1.5,1.5
	l-3,1.5l-1.5,6l-1.5,3h1.5l0,0l-1.5,3v-3l0,0l1.5-3l1.5-6l1.5-1.5l3-1.5h1.5v-1.5l-3-7.5l-10.5-18l-7.5-7.5l-1.5-1.5l-9-4.5l-1.5,3
	l0,0H459h-1.5H456h1.5l1.5-1.5l1.5-1.5H459l0,0H457.5z"/>
<path id="path869" class="st1" d="M663,22.8h3l0,0v1.5l0,0l-3,1.5V22.8z"/>
<path id="path871" class="st1" d="M690,9.3v1.5l0,0l1.5,1.5l1.5,1.5l1.5,1.5l-1.5-1.5h-1.5h-3H687l0,0v1.5v1.5h1.5l0,0l-1.5,3
	l-1.5-1.5l-1.5-4.5l-1.5-1.5v-1.5l1.5-3h1.5h1.5h1.5L690,9.3L690,9.3L690,9.3z"/>
<path id="path873" class="st1" d="M705,10.8h3h3l3,1.5v1.5v-1.5h-3h-3h-1.5l0,0H705l-1.5,1.5l0,0v-1.5L705,10.8L705,10.8z"/>
<path id="path907" class="st1" d="M181.5,594.3L181.5,594.3L181.5,594.3v-1.5h1.5l3,1.5h-1.5H181.5L181.5,594.3z"/>
<path id="path909" class="st1" d="M237,627.3v-1.5l-1.5-1.5l-1.5-1.5v1.5h-1.5l-3-3l1.5-1.5l0,0h-1.5v1.5h-3v-1.5h3l0,0h4.5h1.5l0,0
	H234l0,0h-1.5l0,0v1.5l0,0h3v1.5l1.5,1.5v1.5V627.3L237,627.3L237,627.3z"/>
<path id="path911" class="st1" d="M195,588.3h1.5l1.5-1.5l0,0v1.5v1.5l1.5,4.5l3,3l0,0l0,0l-1.5,1.5h-1.5v-1.5l-1.5-1.5v-1.5l-1.5-3
	l-1.5-1.5l0,0V588.3z"/>
<path id="path913" class="st1" d="M190.5,591.3l-1.5,1.5h-1.5H186v-1.5h1.5h1.5h3H190.5z"/>
<path id="path915" class="st1" d="M186,627.3l-1.5,1.5H183l0,0h-1.5l0,0l-3-1.5H177l0,0l3-1.5v-1.5v1.5l-3,1.5h-1.5l1.5-3l-1.5-1.5
	v-3H174v-1.5v-1.5l-1.5-3l-3-1.5l-1.5,1.5v-1.5l-4.5-1.5l0,0l0,0v-1.5l0,0v-1.5l-1.5-1.5h-3h-1.5l-1.5,1.5v1.5h1.5l1.5-1.5l1.5,1.5
	l-1.5-1.5l-1.5,1.5h-3l-1.5,3l-3,1.5l0,0l0,0l0,0h-1.5H147l-3,1.5l-1.5,1.5v3l0,0h1.5v1.5h-1.5l0,0l0,0l-1.5-1.5l0,0l0,0h1.5l0,0v-3
	l0,0l-1.5-1.5h-1.5H138v-1.5l-1.5-1.5l-1.5-3v-3v-3v-1.5l1.5-3l3-3l3-1.5h1.5h1.5l6-1.5l1.5-1.5h3h3l4.5,1.5v-1.5l0,0v-1.5l1.5-1.5
	v-1.5h1.5h1.5l-1.5,1.5h1.5l-1.5,1.5l0,0l0,0l0,0v-1.5l0,0H165v1.5l-1.5,3h1.5h1.5h1.5h1.5l0,0l0,0h4.5l3-1.5l0,0l1.5,1.5l0,0
	l1.5,1.5v1.5h1.5l0,0h1.5h1.5l3-1.5l1.5,1.5h4.5l0,0v1.5l0,0v-1.5l1.5,1.5v3l0,0l1.5,1.5l3,3l1.5,3v3h1.5h3h1.5l3,1.5l0,0l4.5,3h1.5
	l0,0v1.5h1.5l3-3h1.5h1.5l0,0h4.5l0,0l1.5-1.5h1.5v3v1.5h1.5l0,0l-1.5,1.5l0,0h-1.5l1.5-1.5l0,0l-1.5-1.5v-1.5H228v1.5l-1.5-1.5
	l-4.5,1.5h-1.5l-1.5,1.5h-1.5v1.5l1.5,1.5l0,0v1.5l0,0l0,0l0,0l-1.5,1.5h1.5v-1.5l-1.5,1.5v1.5H216l-1.5,1.5l-1.5,3h-1.5l-1.5,1.5
	l-1.5-1.5l-3,1.5l-1.5,1.5h-3v1.5h-4.5H195h-3h-1.5l0,0l-3-3l0,0l0,0L186,627.3L186,627.3z"/>
<path id="path929" class="st1" d="M171,657.3v-1.5h-1.5h1.5l0,0V657.3L171,657.3L171,657.3z"/>
<path id="path949" class="st1" d="M280.5,607.8l-1.5,1.5l0,0h1.5l0,0H279v1.5l-1.5-1.5l0,0l0,0L280.5,607.8z"/>
<rect x="442.6" y="429.7" class="st2" width="101.9" height="90.8"/>
<text transform="matrix(1 0 0 1 442.562 481.2039)" class="st3 st4">NL</text>
</svg>
