<?xml version="1.0" encoding="utf-8"?>
<!-- Generator: Adobe Illustrator 23.0.1, SVG Export Plug-In . SVG Version: 6.00 Build 0)  -->
<svg version="1.1" id="svg2" xmlns="http://www.w3.org/2000/svg" xmlns:xlink="http://www.w3.org/1999/xlink" x="0px" y="0px"
	 viewBox="0 0 870 924" style="enable-background:new 0 0 870 924;" xml:space="preserve">
<style type="text/css">
	
		.st0{opacity:0.46;fill-rule:evenodd;clip-rule:evenodd;fill:#B100FF;stroke:#B9B9B9;stroke-width:1.05;stroke-linejoin:bevel;enable-background:new    ;}
	
		.st1{opacity:0.46;fill-rule:evenodd;clip-rule:evenodd;fill:#B100FF;stroke:#B9B9B9;stroke-width:0.7;stroke-linejoin:bevel;enable-background:new    ;}
	.st2{fill:#FFFFFF;}
	.st3{font-family:'ArialMT';}
	.st4{font-size:72px;}
	.st5{letter-spacing:-2;}
	.st6{font-size:48px;}
	.st7{letter-spacing:-3;}
</style>
<title>NL2</title>
<path id="path17" class="st0" d="M739.4,34.8l-3,1.5l-12,1.5l-1.5,1.5l-4.5,1.5h-1.5l-1.5,1.5h-3l-3,3h-4.5l-3,1.5l-3,1.5l-1.5-1.5
	l-1.5,1.5h-7.5l-4.5,1.5l-6,1.5h-3l-3,1.5h-3l-4.5,1.5l-4.5,1.5l-1.5,1.5v1.5l-3,1.5l-1.5-1.5l-1.5-1.5l-7.5-4.5h-1.5l-6,3v-1.5
	h-1.5v1.5h-1.5v-1.5l-1.5,1.5l1.5,1.5h1.5l1.5,1.5h1.5l1.5,1.5h1.5v1.5h-4.5v-1.5l-3-1.5v-1.5h-3l-1.5,3h1.5l1.5,1.5h1.5v1.5
	l-1.5,1.5l-1.5-1.5v1.5l1.5,1.5h7.5v1.5h-4.5l-3-1.5v1.5l-1.5-1.5v1.5l1.5,1.5h7.5l1.5-1.5v3h-1.5l1.5,1.5l1.5-1.5h1.5v1.5l-1.5,1.5
	h-3v1.5l1.5,1.5l1.5-1.5h1.5l-1.5,1.5h-3l1.5,1.5v1.5h-1.5v-1.5l-1.5-1.5v-1.5h-1.5l1.5-1.5h-1.5l-1.5-1.5v1.5l-1.5,3v-3l-3-1.5
	l-1.5,1.5v1.5l3,3v1.5h-1.5v-1.5l-1.5,1.5v-1.5l-1.5-1.5v-6l-1.5-1.5v-1.5l1.5-1.5h-1.5v-3l-1.5-1.5l1.5-3v-3l3-1.5l-7.5,3h-1.5
	l-3-1.5h-4.5v1.5h-3l-1.5-1.5l-6,1.5h-4.5l-1.5,1.5l-6,1.5h-3l-6,3h-7.5v-1.5l-1.5-1.5v3l-3,1.5l-3,1.5l-1.5,1.5l-3,1.5l-1.5,1.5
	l-3,1.5h-3l-4.5,3l-6,3l-3,1.5l-7.5,4.5h-4.5l-1.5,1.5l-3,1.5h-1.5l-1.5,1.5l-3,1.5l-3,1.5l-1.5,1.5l-3,3l-1.5,3l-1.5,1.5v1.5h-1.5
	v1.5l-3,1.5l-1.5,1.5h-1.5l-3,3l-1.5,1.5h-1.5l-1.5,1.5l-1.5,3h-1.5l-1.5,1.5l-1.5,3l-1.5,4.5l-1.5,1.5v1.5h1.5l-1.5,1.5l-1.5,1.5
	l-1.5,1.5v1.5h1.5v3l-1.5,3v9l-1.5,1.5v1.5l-3,1.5h-1.5l1.5,1.5l-1.5,1.5v1.5l-1.5,1.5h1.5l1.5,1.5l1.5,3v4.5l1.5,3h-1.5l1.5,1.5
	h-1.5v-4.5h-1.5v-3h-3v-1.5h-1.5l1.5,3v1.5l1.5,1.5l1.5,1.5h-1.5v3h3v4.5l1.5-1.5v1.5h-1.5v1.5h1.5l1.5,1.5v4.5l-1.5,1.5v3l1.5,4.5
	v3l1.5,1.5v0.5l3-2l-3,3v-1l-1.5,1v4.5h-1.5l-1.5,1.5l1.5,1.5l1.5,3v6l-1.5,1.5h-3l-3,3l-1.5,1.5l-1.5,1.5l1.5,1.5v3h3v1.5h1.5l3,3
	l3,3h7.5v-1.5l4.5,1.5h3l1.5,1.5l6,3h3v1.5h3l1.5-1.5h1.5v-1.5l1.5-1.5v-1.5l3-1.5l3,1.5l1.5-1.5l3-1.5h1.5l1.5,1.5v3h9v1.5h1.5
	l1.5-1.5v3h-1.5l-7.5,1.5h-1.5v1.5l-4.5,7.5l-7.5,12v1.5l-1.5,4.5v28.5h1.5l1.5,1.5l1.5,1.5l3,4.5l4.5,6l1.5,1.5h36l-1.5,1.5v6
	l1.5,1.5v1.5l-6-1.5l1.5,1.5h3v1.5l1.5,1.5v3l1.5,1.5l1.5,1.5v3l1.5,1.5v7.5l-1.5,4.5l-1.5,3v3l-1.5,3v3l-1.5-1.5v3h-1.5v-3l4.5-9
	l1.5-3v-12l-1.5-3l-7.5-7.5v-1.5h-10.5l-6-1.5l-13.5-4.5h-1.5l-1.5-3h-1.5l-1.5,1.5l-10.5,3h-1.5l-1.5,1.5l-12,10.5v1.5h-9v1.5
	l-1.5,4.5v-1.5l-1.5,3v6l-3,1.5h-1.5l-1.5,1.5l-1.5,3h-3v1.5l-25.5,16.5l-4.5,3v1.5h-1.5v1.5H443l-9.6,6l-1.5,1.5l-6,4.5h-1.5v1.5
	l3,3v7.5l-1.5,1.5h1.5l1.5,3h-1.5l1.5,1.5l1.5-1.5h1.5l6-1.5h3l1.5,1.5h6l4.5,1.5l3,3l4.5,1.5l1.5,1.5v1.5h1.5l13.5,12l1.5,3h1.5
	l3,1.5l3-1.5l7.5-3h4.5l1.5-1.5l4.5-1.5h1.5l1.5-6l1.5-1.5v-4.5h1.5v-7.5h-1.5v-1.5l-1.5-3l1.5-1.5l4.5-4.5l3,1.5l4.5-1.5h1.5
	l1.5-1.5h-1.5l1.5-1.5l1.5-1.5l1.5-1.5l4.5-4.5l12-6h3l1.5,1.5h1.5l6-4.5l1.5-3l3-3l1.5-3l1.5-1.5v1.5h1.5v1.5h-1.5l1.5,1.5
	l-1.5,1.5l-1.5,1.5l-4.5,4.5l-3,3l-3,1.5v1.5h-1.5l-1.5,1.5h-1.5l-1.5,1.5v1.5h-1.5v1.5h-3l-3,1.5l-1.5,1.5h-1.5l-1.5,1.5l-3,1.5
	h-1.5l-1.5,1.5l-1.5,1.5v1.5h-3v3h-1.5v1.5h-1.5v1.5h-1.5v1.5l-3,1.5l-1.5,1.5l-1.5,1.5v1.5l-1.5,3v3l-1.5,3v1.5l-1.5,3l-1.5,1.5
	h-7.5l-3,3l-1.5-1.5l-1.5,1.5l-4.5,1.5h-3l-1.5,1.5h-3l-1.5-1.5l-1.5-1.5l-1.5-1.5h-1.5v-1.5l-1.5-1.5h-4.5l-1.5-1.5h-3l-1.5-1.5
	l-3-3v-1.5l1.5-1.5h-3l-1.5-1.5h-1.5l-1.5-1.5h-1.5v-1.5l-1.5-1.5l-1.5,1.5h-9l-1.5,1.5h-1.5l-1.5,1.5h-1.5v-1.5h-1.5l-1.5-1.5
	l-1.5-1.5l-1.5-3h-1.5v-1.5h-4.5l-1.5-3h-7.5l-3,1.5l-1.5-1.5v1.5h-1.5v-1.5h1.5v-1.5l-1.5-1.5h-1.5l-1.5,1.5h-3v-1.5h1.5v-3l-3-1.5
	h-1.5v1.5h-1.5l-1.5-1.5h-1.5v-1.5h3l1.5-1.5l-4.5-3v-1.5l3,1.5l1.5,1.5h1.5l1.5-1.5v1.5l1.5,1.5l1.5-1.5v-3h1.5l1.5-1.5v-3l1.5-1.5
	l1.5-1.5l1.5-1.5h3v-1.5l1.5-1.5v-1.5l3-3h-3l-1.5-1.5v1.5l-3-1.5v-4.5l1.5-1.5v-1.5h-1.5l-1.5,1.5l-1.5-1.5l3-1.5h3v-1.5l-1.5-1.5
	v-3l1.5-1.5l1.5,1.5v-1.5l1.5-1.5l1.5-3h-1.5v-3h-1.5v-1.5l-1.5-1.5v-1.5l-1.5-3v-1.5l-3-4.5v-1.5l-1.5-1.5v-3l-1.5-3v-1.5l-1.5-1.5
	l1.5-1.5l-1.5-1.5v-9h1.5v-1.5h1.5l1.5-1.5h3v1.5l1.5,1.5v-1.5l1.5-1.5h4.5l1.5,1.5l1.5,1.5h1.5l1.5,1.5v1.5h6l1.5-1.5l3-3h4.5v-1.5
	l1.5-1.5h1.5v-1.5l3-1.5v-1.5l1.5-1.5v-4.5l1.5-3h4.5l1.5-1.5h1.5l-1.5-1.5h1.5l1.5-1.5l1.5-1.5l-1.5-1.5l-1.5-1.5v-9h-1.5l-1.5-1.5
	l-3-1.5h-6l-1.5-1.5h-4.5l-1.5,3l-1.5,1.5v1.5l-1.5-1.5h-4.5l-3-3l-1.5-1.5l-1.5-1.5l1.5-3h-1.5l-1.5-1.5h-1.5l3-22.5l-3-4.5l-4.5-9
	v-1.5l-1.5-1.5l-4.5-9h-3v3l-3,3h-1.5l-3,1.5h-1.5l-1.5,3h-9v1.5h-3l-3-1.5l-4.5,1.5l-1.5-1.5l-4.5-3h-1.5l-4.5-3l-1.5-1.5l-1.5-1.5
	l-1.5-3v-6l1.5-3v-1.5h-1.5v1.5h-3v-3h-9l-3,4.5v6l-1.5,4.5v10.5l-3,9l-1.5,9l-3,9v3h-1.5v3l-3,6v3l-3,9v10.5l-1.5,6v6l-1.5,6v7.5
	l-1.5,1.5v1.5l-1.5,10.5l-1.5,13.5l-1.5,7.5l-1.5,3l-1.5,3l-1.5,3l-1.5,4.5l3-1.5h1.5l3-1.5l1.5,1.5h-1.5v1.5h-3l-1.5,1.5h3v1.5
	l-3-1.5h-1.5v1.5l-3-1.5v3l1.5,3l-1.5,1.5v3l-1.5,3l-1.5,6l-1.5,4.5l-3,7.5l-6,12l-9,19.5l-3,4.5l-1.5,3l-4.5,7.5l-1.5,1.5v1.5
	l-3,4.5l-1.5,3l-4.5,6l-9,12l-4.5,3v1.5l-3,3h-1.5v3h1.5l-1.5,1.5v-1.5h-1.5l-1.5,1.5l-1.5,3l-1.5,1.5l-4.5,4.5l-3,3l-4.5,6
	l-1.5,1.5l-3,3l-1.5,1.5v1.5l-3,4.5l-3,1.5l-3,3h-1.5l-1.5-1.5l-7.5-1.5l-1.5,1.5h-3l-1.5,1.5v1.5l-1.5,1.5l-1.5,3l1.5,1.5l1.5,1.5
	v1.5l-3,3l-1.5,3l-3,4.5h3l1.5,1.5l1.5-1.5l6-1.5h1.5l1.5,3h-1.5v1.5l-3,3v1.5l-1.5,1.5v1.5l1.5,1.5l6,9v3l-1.5,1.5l3-1.5l1.5,1.5
	l1.5,1.5l1.5,1.5v1.5h6l-1.5,1.5l1.5,1.5h1.5v-1.5h4.5l1.5,1.5l3,4.5h4.5v1.5h3l1.5,3l1.5,1.5h3l-1.5,1.5h-1.5l1.5,3l1.5,1.5
	l4.5,1.5v1.5h3l3,1.5h3v1.5l6,1.5l3,3h1.5l3,1.5l4.5,3h1.5l1.5,1.5h3v1.5h7.5l3,1.5h3l1.5,1.5h1.5l1.5,1.5h1.5l3-1.5h1.5l4.5-1.5
	h1.5l1.5-1.5h3l1.5-3l1.5,1.5h1.5l3-1.5v3l-3,1.5l-1.5,1.5h-1.5l-1.5,1.5l-1.5,1.5l-12,3h-3l-4.5,1.5h-3l-4.5-1.5l-1.5-1.5h-1.5
	l-1.5-1.5h-4.5l-1.5,1.5l-3,1.5l-1.5,1.5v1.5l-1.5,3l-1.5,1.5l-1.5,1.5l-1.5,1.5l-3,1.5h-1.5l-1.5,1.5h-1.5v-1.5h-1.5l-1.5,1.5h-4.5
	l-1.5,1.5h-3l-1.5,3h-1.5v-1.5h-4.5l-3-1.5h-6l-3-1.5l-4.5-3h-1.5l-4.5-1.5v1.5l-3,3h-1.5l1.5,3h1.5l1.5,3l1.5,3h9v-1.5h1.5v3
	l-1.5,1.5h-7.5l-1.5,1.5h-1.5l-3-3l-6-1.5h-1.5l-3,1.5l-1.5,1.5h-1.5l-3,1.5l-1.5,1.5l-1.5-1.5l-3,1.5l-1.5,1.5v3h1.5v1.5h3l1.5,1.5
	l1.5,1.5h1.5v3l1.5,1.5h1.5l1.5,1.5l1.5,1.5v3l1.5,1.5h1.5v1.5h12l1.5,1.5h1.5v-1.5l3,1.5l3,1.5l-1.5,1.5v3h1.5l6,3l1.5,1.5v10.5
	l1.5,6h-4.5l-1.5-1.5h-4.5l-1.5,1.5h-1.5l-1.5,1.5h-4.5v-1.5h-1.5l-4.5-3h-1.5l-1.5-4.5h-1.5l-3-4.5v-1.5l-1.5-1.5l1.5-1.5l-1.5-1.5
	v-3h-1.5l-1.5-1.5l-3-3l-1.5-1.5h-3l-1.5-1.5h-1.5l-3-1.5h-1.5l-1.5-1.5l-1.5,1.5h-1.5v1.5l-3-4.5h1.5l-1.5-1.5v-1.5h-4.5l-1.5,1.5
	h-10.5v-1.5l-1.5-1.5h-3l-3,1.5h-1.5l-1.5,1.5l-4.5-1.5h-1.5l-1.5-1.5l-1.5,1.5l-3,1.5v1.5l-1.5,1.5v1.5l-1.5,1.5h-1.5l-1.5,1.5h3
	l-3,1.5v-1.5l-3-3l-1.5-1.5v-1.5l-1.5-4.5v-1.5h-1.5l-1.5-1.5l-3-1.5l-1.5-1.5l-1.5-1.5v-4.5l1.5-1.5h-3l-1.5-1.5h-10.5v1.5h-3
	l-1.5,1.5l-3,1.5l-1.5,1.5l-3,1.5h-1.5l-1.5,1.5l-1.5,1.5l-3,1.5l-1.5,1.5h-1.5l-1.5,1.5l-1.5,1.5v4.5l1.5,3h1.5l1.5,1.5l1.5,1.5
	l3,1.5v1.5h1.5l1.5,1.5l1.5,1.5v1.5l1.5,1.5v1.5l1.5,1.5v1.5l1.5,1.5l1.5,1.5l3,1.5v1.5h1.5l1.5,1.5v1.5h6v-4.5h1.5v3l1.5,1.5h4.5
	l1.5-1.5v-1.5h6l-3-1.5l1.5-1.5l3-1.5h1.5v1.5l4.5-3v-3l1.5,1.5v1.5h1.5l-1.5,1.5h-1.5l-3,1.5l3,1.5h3l-1.5,1.5l1.5,1.5v1.5
	l-1.5-1.5l-1.5,1.5h-1.5l1.5-3l-3-1.5l-1.5-1.5l-1.5,3l1.5,1.5l4.5,3l1.5,1.5v1.5h1.5v4.5h1.5l1.5,1.5h1.5v-1.5h1.5l3,1.5h1.5v1.5
	l3,1.5v1.5h1.5l3,3h4.5l3-1.5h1.5l1.5-1.5h4.5l1.5,1.5l1.5-1.5l1.5-6h1.5v-3h1.5v-9l3,1.5l3-1.5h1.5l3-3l1.5,1.5l1.5,1.5l1.5,1.5
	v1.5h1.5v1.5h3l1.5,1.5l1.5,1.5h3v4.5l3,1.5h1.5l1.5,1.5h1.5l3,1.5l3,1.5h3l1.5,1.5h3l4.5-1.5l3-1.5h3v1.5h3l3,1.5l1.5,4.5v3h4.5
	l3-1.5h10.5v1.5l1.5,1.5v4.5l1.5-1.5l4.5,1.5h6l1.5-1.5l3-1.5h1.5v-3l-7.5-10.5l-1.5-4.5l1.5-1.5h1.5v-6h-1.5l-1.5-1.5l1.5-1.5
	l10.5-4.5h3l1.5-1.5l1.5-1.5h3l10.5-1.5l1.5,3l-3,7.5l1.5,9l7.5-3h4.5l6,1.5l3,1.5h1.5v-1.5l1.5,1.5l3-1.5l-1.5-6l4.5-1.5h1.5
	l1.5-4.5l3-1.5l1.5-1.5l1.5-3l3-1.5l1.5-1.5l-1.5-1.5h3v-1.5l3-1.5l1.5,1.5v1.5h3l3,1.5h1.5v3l1.5,1.5l1.5-1.5l1.5,1.5l-1.5,3v3h1.5
	v1.5h-1.5l-1.5,1.5l-1.5,1.5l1.5,6v1.5h3v1.5h-1.5l-4.5-1.5l-1.5-1.5h-3v-1.5h-1.5l-3,1.5v3l1.5,1.5l3,1.5h1.5l4.5-1.5h6l1.5,1.5
	h1.5v-1.5h6l3,3v1.5h1.5l1.5,1.5h1.5l6-9l9-6v-3h1.5v-1.5l-1.5-1.5v-1.5l1.5-1.5v-1.5l1.5-1.5l3-1.5h1.5l-1.5,1.5l1.5,1.5v1.5h7.5
	l4.5,13.5l-1.5,3l-4.5,9l9,10.5v1.5l1.5,1.5l1.5,1.5v10.5l6,1.5l1.5-1.5l4.5-1.5h1.5v-1.5l9,6l-3,12l1.5,1.5l6-1.5l6,1.5h7.5
	l1.5-1.5l1.5-3l4.5,1.5l6,1.5l3,1.5l4.5-4.5l1.5-1.5l4.5-1.5l1.5-1.5l1.5-1.5v-1.5h1.5l6,1.5v1.5l1.5,3l4.5,3l1.5,1.5v9l1.5,6h1.5
	l3,1.5l12,4.5l1.5,1.5v1.5l1.5,3l1.5-1.5l1.5,1.5h12l1.5-1.5h1.5l1.5,1.5h3l1.5,1.5v1.5h1.5l-1.5,1.5h-1.5v1.5h1.5v4.5h1.5v-1.5h3
	v-1.5h3v-1.5l3-1.5v1.5h1.5v3l4.5,3l-1.5,1.5l-1.5,1.5v1.5l-3,1.5h-1.5v1.5l-1.5,1.5l-1.5,1.5l1.5,1.5h3l1.5,1.5v1.5l-1.5,1.5v1.5
	h-1.5l-1.5-1.5h-3v3l1.5,1.5v1.5h-1.5v1.5l1.5,3h-1.5v1.5h-1.5l-3-1.5l-1.5,4.5v3l-1.5,1.5v1.5h1.5l1.5,1.5v1.5l-1.5,3v4.5l-1.5,1.5
	l-1.5,1.5l-1.5,3h-1.5l-1.5,3l-1.5,3v1.5h3l1.5-1.5h1.5l1.5,1.5v1.5l-3,1.5v3l-3,3v1.5l-1.5,1.5l1.5,1.5l-1.5,1.5h-4.5l-1.5,1.5v3
	l-3,3v1.5h-1.5l-1.5,1.5h-1.5v1.5h-3l1.5,1.5l-1.5,1.5v9h1.5v3h1.5v1.5l1.5,1.5h3v1.5h3l1.5,1.5v1.5l-1.5,1.5l1.5,4.5v3l-3,4.5v1.5
	h3l1.5-1.5h1.5l1.5-1.5v1.5l1.5,1.5h1.5l1.5-1.5v-1.5l1.5-1.5l3-4.5h3v3l1.5,3l1.5-1.5l3,4.5h1.5l1.5-1.5l1.5,1.5l1.5-1.5l1.5-1.5
	v4.5l1.5-1.5l1.5-1.5v-1.5h3l3-1.5v4.5l3,1.5v-1.5h3v1.5l3-1.5l1.5-1.5h6l1.5,1.5l3,1.5h1.5v-1.5h4.5v-3l1.5-3l-4.5-3h-1.5l-1.5-1.5
	v-1.5h-1.5l-1.5-1.5v-3l1.5-1.5l1.5,1.5l3,1.5l1.5-3l1.5-1.5v-1.5h1.5l-1.5-1.5v-1.5l-1.5-1.5v-3l1.5-1.5h3l1.5-1.5h1.5v-1.5h1.5
	v1.5l3,1.5v-4.5h1.5v-1.5l1.5-1.5v-3l-1.5-1.5v1.5l-1.5-3v-3l1.5-1.5v-1.5l1.5-1.5v-1.5l-1.5-1.5h-6v-3l-1.5,1.5l-1.5-1.5l-4.5-1.5
	v-4.5l-3-1.5l1.5-1.5h1.5v-1.5l1.5-6h-9l-1.5,1.5h-1.5l-1.5-1.5v-1.5h-1.5l-3,1.5h-1.5l-1.5,1.5h-1.5l-1.5,1.5h-1.5l-1.5-1.5l3-3
	v-4.5h-1.5l-1.5-1.5v-1.5h-1.5v-1.5h-1.5v-7.5l-1.5-1.5l-1.5-3h6v-1.5l3-1.5l1.5-1.5v1.5l3,4.5l1.5,3v1.5l1.5-1.5h1.5v1.5h1.5v-1.5
	l1.5-1.5v-1.5l1.5-1.5v-3l1.5-1.5v-1.5l1.5-1.5v-1.5l1.5-1.5l3-1.5l1.5-1.5l3-1.5h1.5l1.5-1.5l1.5-1.5v-1.5l1.5-1.5h3l1.5-1.5v-3
	l1.5-1.5h3l1.5-1.5h1.5v-1.5h3l1.5-1.5h4.5l-1.5-1.5h1.5l1.5-1.5l-6-4.5h-1.5l9-4.5l-3-3l-9,4.5l-1.5,1.5l-1.5,1.5h-6v-1.5l-1.5-1.5
	v-10.5l-1.5-1.5l1.5-1.5h3l-3-6l3-1.5l1.5-3l6-6v-1.5l1.5-1.5l3-4.5l1.5-3v-1.5l1.5-1.5v-3l1.5-1.5v-1.5h4.5v-1.5l7.5-7.5l-1.5-4.5
	l-1.5-3v-1.5l1.5-1.5l1.5-1.5h-4.5v-1.5l1.5-9v-4.5h1.5l-1.5-3l1.5-1.5v-4.5l-1.5-3l-1.5-3l1.5-3l-1.5-1.5v-4.5l-1.5-3l-3-1.5
	l-3-1.5l-3-9l-3-1.5l-1.5-1.5l-1.5-1.5l-1.5-3v-1.5h-1.5l-4.5-3v-6h1.5v-1.5l1.5-4.5v-1.5l1.5-1.5v-1.5l-3-1.5h-3v-1.5h-3l-7.5-3
	l-1.5-1.5v-3l1.5-1.5l-1.5-1.5v-4.5h3v-1.5h-1.5v-3h-1.5l-4.5-3l-1.5-1.5h-9v-3l1.5-1.5l3-1.5h1.5l1.5-3v-1.5h-1.5v-3h1.5l-1.5-1.5
	h-1.5v-4.5l-3-3h-3v-1.5l1.5-1.5h1.5l-3-1.5l3-4.5h1.5v1.5h4.5l3-1.5h1.5l1.5-1.5l1.5-1.5l1.5,1.5l1.5-1.5l1.5-1.5h1.5l-1.5-1.5
	l1.5-1.5l1.5-1.5l1.5,1.5l3,3h3l6,1.5h4.5l1.5,1.5v-7.5l-3-1.5h-1.5v-3l-1.5-3l-1.5-1.5h-4.5l1.5-1.5v-1.5h1.5l1.5,1.5l6-3l1.5,1.5
	h1.5l1.5,1.5l3,1.5v1.5h-3l1.5,1.5l1.5,1.5l1.5,1.5l3,1.5h3v-1.5h3l1.5,1.5h1.5v-1.5h1.5v-1.5l1.5,1.5l4.5,1.5v1.5l1.5,3v1.5l3-1.5
	h4.5l1.5,1.5h1.5l1.5,1.5v3h4.5l3,1.5h1.5l-1.5-3l1.5,1.5l-1.5-3v-1.5l1.5-1.5h-1.5v-1.5h-1.5l-1.5-1.5v-4.5l3,1.5h1.5l1.5,1.5h1.5
	v1.5h3l1.5-1.5l1.5,3h1.5l1.5,1.5l1.5-1.5l4.5-1.5v-3h1.5l1.5-1.5h3l1.5-1.5v-1.5h1.5l1.5-1.5v1.5h1.5l1.5-1.5l3-1.5l7.5-3h3v-1.5
	l3-1.5l3-1.5h1.5l1.5-1.5v1.5h3v1.5l1.5,1.5l3,3l3-1.5v-1.5h1.5l1.5-1.5h1.5v-1.5l1.5-1.5h1.5l3-4.5l1.5-1.5v-7.5l3-1.5h3l1.5-3
	l-1.5-1.5v-4.5l-4.5-1.5h1.5l-9-6l-1.5-1.5l-1.5-3l-7.5-3h-6v-6l1.5-1.5v-3h4.5l3-1.5l3-1.5v-4.5h1.5v-1.5l1.5-6h16.5l1.5-1.5
	l1.5-1.5l1.5-1.5v-1.5l1.5-7.5h1.5v-1.5l4.5-3v-1.5l4.5-1.5h4.5l1.5-3v-1.5l1.5-1.5v-1.5l1.5-1.5v-4.5l1.5-1.5l3-1.5l1.5,1.5h6
	l4.5-3v-1.5l-4.5-6l-1.5-1.5v-3h-1.5v-6l1.5-4.5v-1.5h1.5v-1.5h1.5v-3l1.5-3v-1.5l3-4.5v-7.5l-3-6v-3h-4.5l-1.5-3l-1.5-3l-3-3v-1.5
	l-1.5-3v-3l-1.5-3v-1.5h-3l-1.5,3l-1.5,4.5l-3,1.5v1.5h-1.5l-7.5-1.5l-3-1.5l-4.5-1.5h-3l1.5-3h-19.5l-1.5-1.5l-6-3l-1.5-1.5l-3-1.5
	l1.5-12l-3-4.5l-3-6h1.5l3,1.5h3l1.5-4.5h3l3,1.5l1.5-1.5l-9-7.5v-3l1.5-6v-1.5l-1.5-1.5l-1.5-1.5l1.5-1.5h1.5l1.5-1.5l1.5-3h4.5
	l1.5-1.5h7.5l1.5,1.5l1.5-1.5h7.5l1.5-1.5l1.5,1.5h4.5l3,1.5v1.5h10.5l1.5-1.5h1.5l1.5,1.5l1.5-1.5v1.5h1.5l4.5,1.5h1.5l3-3v-10.5
	l1.5-15v-28.5l4.5-9l-1.5-3v-1.5l3-4.5l9-15l6-10.5l3-12l1.5-7.5l1.5-1.5v-1.5l-3-13.5v-19.5l-4.5-3v-6l1.5-1.5v-4.5l1.5-4.5h1.5
	l1.5-1.5h3l-3-1.5l-1.5-1.5l1.5-1.5v-7.5l-1.5-4.5v-1.5h-1.5l-4.5-1.5h-1.5v-1.5h-6v-1.5h-6l-1.5-1.5h-1.5l-1.5-1.5l-1.5-1.5v-4.5
	l1.5-1.5l-1.5-3v-1.5h1.5l1.5-3v-1.5l-3,1.5l-1.5,1.5h-9l-3-1.5v-1.5h-3l-3-1.5l-3-1.5v1.5l-3-1.5l-3-1.5h-1.5v-1.5h1.5l-1.5-1.5
	l-3-3h-1.5l-1.5-1.5v-7.5l-1.5-1.5v-6l-1.5-3h-1.5v-4.5l1.5-4.5v-1.5l-4.5-4.5l-3-1.5l-1.5,3l1.5,1.5h-4.5v-1.5l1.5,1.5v-1.5l1.5-3
	h-1.5l-3-1.5l-3,3l-1.5-1.5l-3-1.5h-4.5L739.4,34.8z M776.9,78.3l1.5,1.5v-1.5H776.9z M830.9,108.3v-3l-1.5,1.5L830.9,108.3z
	 M383.9,706.8h-3l1.5,1.5L383.9,706.8z M124.4,640.8h1.5v3h1.5v3h1.5l1.5,1.5h1.5l1.5,1.5l1.5,1.5l1.5-1.5v1.5h-1.5l3,3v3l-1.5,1.5
	l1.5,1.5v1.5l1.5-3h1.5l1.5-3l1.5-1.5l6-1.5h3l1.5,1.5h6v-1.5h4.5l1.5,1.5l1.5,1.5h3l1.5-3h3l1.5-1.5v-4.5h-1.5v-1.5l-1.5-1.5
	l-1.5-3v-1.5l-1.5-1.5h-3v-1.5h-3l-3,1.5l-1.5-1.5h-3l-3,1.5l-1.5,1.5l-3-1.5l-3,1.5h-1.5l-1.5,1.5h-1.5l-1.5-1.5h-1.5l-1.5-1.5h-3
	v-1.5h-1.5v1.5l-4.5,1.5L124.4,640.8z M211.4,561.3l-1.5,1.5h1.5V561.3z M362.9,201.3v-1.5h-1.5L362.9,201.3z M395.9,393.3v1.5h1.5
	L395.9,393.3z M524.9,396.3l-3-1.5l1.5,1.5H524.9z M443,376.8l2.4-1.5l-3,1.5H443z M473.9,159.3l-4.5,4.5h-3l1.5,1.5h1.5l1.5-1.5
	L473.9,159.3z M484.4,129.3v-1.5l-1.5,1.5H484.4z M638.9,73.8v1.5l1.5,1.5L638.9,73.8z M629.9,82.8h1.5v1.5L629.9,82.8z M626.9,84.3
	h1.5l-1.5,1.5V84.3z M479.9,174.3h1.5l-1.5,1.5V174.3z M417.8,289.5l0.1,0.1L417,290L417.8,289.5z M413.5,292.5l-0.3,0.3l0,0
	L413.5,292.5z M413.2,293.3l0.1,0.9l-2.2,0.3l0,0l-3.1,1.2l3-1.2h0.1l2.2-0.3v-0.9H413.2z M544.4,316.8v1.5h1.5v1.5l1.5,1.5v-1.5
	h1.5l1.5-1.5l-1.5-1.5H544.4z M421.4,360.3v3l-1.5,3h1.5l1.5-1.5h1.5l1.5-1.5h1.5v-1.5l-3,1.5l-1.5-1.5L421.4,360.3z M287.9,570.3
	h1.5l-1.5,1.5V570.3z"/>
<path id="path65" class="st1" d="M607.5,40.8v1.5l-1.5,1.5h-1.5v-3l0,0l1.5-1.5h1.5V40.8z"/>
<path id="path71" class="st1" d="M544.5,39.3h9l19.5-1.5l9-1.5h4.5l3,1.5h1.5v1.5l0,0v1.5h-13.5l-3,1.5l0,0l-3,1.5H570l-6,1.5
	l-6,1.5h-6l-4.5-1.5h-6v1.5l-1.5,1.5l-1.5,1.5h-3l-1.5,1.5h-1.5l-1.5,1.5l-1.5-1.5h-3l-1.5-1.5l-3-1.5l-1.5-3v-1.5l1.5-1.5l1.5-3
	l1.5-1.5l3-3h3l1.5,1.5h1.5l1.5,1.5H534l-1.5-1.5H528l-1.5,1.5h4.5l6,1.5H544.5z"/>
<path id="path99" class="st1" d="M663,22.8v3h-6l-3,1.5l0,0l-4.5,1.5l-1.5,1.5v1.5l-3,1.5h-6l-4.5,1.5H627l-1.5,3v1.5H624v1.5h-3
	v1.5l0,0l-1.5-3l0,0v-1.5h1.5l1.5-1.5l-1.5-1.5v-4.5l1.5-1.5l3-1.5v-1.5H621l1.5-1.5l3,1.5h4.5l15-1.5h4.5l9-1.5l3-1.5L663,22.8z"/>
<path id="path105" class="st1" d="M450,108.3L450,108.3l-1.5-1.5h4.5v1.5H450v-1.5l0,0V108.3z"/>
<path id="path107" class="st1" d="M486,57.3h-6l-3,1.5h-1.5l-1.5,1.5l0,0l-3,3l-1.5,1.5h-3v1.5H465l-1.5-1.5v1.5H462l-1.5,1.5H459
	v1.5l0,0l-1.5-1.5H453l-1.5,1.5l-1.5,1.5l-1.5-1.5l-1.5,1.5h-1.5l-1.5,1.5v1.5h-1.5l-3,1.5h1.5l-1.5,1.5H435l-1.5-3H432v-1.5
	l1.5-1.5l3-4.5l3-4.5l0,0l3-1.5l3-1.5l6-1.5l9-1.5h3l9-3l7.5-3l16.5-6h4.5l4.5-1.5l1.5,1.5h1.5l1.5,1.5l0,0v4.5l0,0v-3l-1.5-1.5l0,0
	v1.5l-1.5,1.5l0,0l-1.5,1.5H501l-3,1.5l0,0l-1.5-1.5l0,0v1.5h1.5l-1.5,1.5h-3v-1.5H492l1.5,1.5v1.5h-3l-1.5-1.5l0,0l1.5,1.5l1.5,1.5
	h3l-1.5,1.5H486z"/>
<path id="path109" class="st1" d="M433.5,91.8L433.5,91.8l-1.5,1.5l-1.5,1.5H426v1.5h-1.5v-1.5l0,0l1.5-1.5l1.5-1.5H433.5z"/>
<path id="path111" class="st1" d="M414,93.3v1.5l-1.5,1.5l-3,1.5l-9,3l-3,1.5v4.5h1.5v-1.5h1.5l-1.5,1.5l-1.5,3l0,0l-4.5,3l-1.5,1.5
	H390v1.5l-1.5,1.5l-3,1.5h-9l-1.5,1.5l0,0v1.5h-1.5v-6l9-4.5l4.5-4.5l3-1.5l3-3l1.5-1.5l6-4.5l3-1.5l1.5-1.5l0,0l4.5-1.5l3-1.5
	l3-1.5h1.5l4.5,1.5v1.5l-1.5,1.5H414z"/>
<path id="path415" class="st1" d="M342,196.8l-3,1.5l0,0l-1.5,1.5H336v1.5h-1.5l-1.5-1.5l0,0v-4.5h4.5l4.5-1.5h3v1.5l0,0L342,196.8z
	"/>
<path id="path417" class="st1" d="M375,174.3l-3,3l-1.5,1.5H366l-4.5,6v1.5l0,0v1.5h-3l-1.5-1.5l-3-1.5h-1.5l1.5,1.5l1.5,1.5l0,0
	l1.5,1.5h-1.5v1.5h-3l-1.5,1.5h-1.5l-1.5,1.5h-1.5v-4.5l-1.5-6v-4.5l1.5-4.5v-1.5l0,0l1.5-4.5l1.5-4.5l1.5-4.5l1.5-1.5l3-4.5l3-6
	l4.5-4.5l0,0v3l1.5-1.5l0,0l1.5-1.5l0,0l1.5-1.5l0,0v-1.5l-1.5,1.5l0,0l-3,1.5l0,0l4.5-9l1.5-1.5l3-1.5v-1.5h3l1.5,1.5l1.5,1.5v3
	l0,0v1.5l1.5,1.5l0,0l1.5,1.5l3,4.5v1.5l0,0l-1.5,1.5v15l-1.5,3h-1.5l-1.5,1.5l0,0v3l-3,3V174.3z"/>
<path id="path433" class="st1" d="M435,189.3L435,189.3l-21,18l-1.5,1.5H411v-1.5h3L435,189.3z"/>
<path id="path435" class="st1" d="M385.5,225.3l-3-1.5l-4.5,1.5l0,0l6-3l1.5-1.5l3-1.5h1.5l3-4.5v-1.5l0,0l3-3h3l1.5-1.5h1.5
	l1.5,1.5h1.5l1.5-1.5h1.5l1.5,1.5l0,0v-1.5h1.5v3l0,0l-1.5-1.5l0,0v3H408v3l0,0l-3,3h-1.5l-3,1.5H399l-1.5,3h-9v1.5H385.5z"/>
<path id="path479" class="st0" d="M200.9,558.3l-3,1.5h3V558.3z M200.9,559.8l-4.5,1.5h-3l3-1.5l-4.5,1.5l-9,3l-3,1.5h-1.5l-4.5,1.5
	h-1.5l-1.5,3v3l1.5,4.5v1.5h1.5v1.5h1.5l3-1.5v-1.5h-1.5v-1.5h4.5l1.5-1.5h4.5l1.5-1.5l1.5-1.5l3,1.5h3l3,1.5v1.5l1.5,1.5l1.5,3h1.5
	v4.5h-1.5v1.5h1.5l-1.5,1.5v1.5l1.5,3h1.5v1.5l1.5,1.5v1.5l1.5,3v3h3l1.5,1.5l1.5-1.5v1.5h9l1.5,1.5l4.5,1.5l1.5,3l1.5,1.5h4.5v1.5
	h3l1.5,1.5h1.5v3l3,1.5l1.5,1.5h7.5l3-1.5h4.5l4.5-1.5l3-1.5l1.5-1.5l1.5-3v-1.5h-1.5v-1.5h6l3-1.5h-1.5v-3h-1.5l-1.5,1.5h-13.5
	l-3-4.5h-3l-1.5-1.5h-1.5l-1.5-1.5v-1.5l-3-1.5v-3h-1.5l-4.5-4.5l-4.5-4.5h-1.5v-1.5h-3l-1.5-1.5h-1.5l-3-3l-3-1.5h-1.5l-6-3
	l-1.5-1.5l-4.5-1.5v-1.5l-1.5-1.5h-1.5v1.5l-1.5-1.5h1.5v-3h-1.5v1.5h-1.5v-1.5l-3-1.5v-1.5L200.9,559.8z M172.4,580.8l-1.5,3
	l-1.5,1.5l-3,1.5h1.5l3,1.5l1.5,1.5h1.5v-1.5l-1.5-1.5l-1.5-1.5L172.4,580.8z"/>
<path id="path483" class="st1" d="M190.5,580.8l1.5,1.5l0,0L190.5,580.8h-3l-3,1.5l-3,1.5H180v-1.5l0,0l3-1.5v-1.5l1.5-1.5l1.5-1.5
	v1.5h1.5L190.5,580.8z"/>
<path id="path547" class="st1" d="M259.5,591.3l3,1.5l4.5,1.5l3,1.5l0,0l1.5,1.5H270l-3,1.5h-6l-1.5-1.5l-1.5-1.5h-1.5l-3-3H252
	l-1.5-1.5l0,0l1.5-1.5h3L259.5,591.3z"/>
<path id="path625" class="st0" d="M95.9,699.3v1.5h-3l-3,1.5h-3l-1.5,1.5h-7.5v1.5h-1.5l-1.5,1.5h-3l-1.5,1.5h-1.5v1.5l1.5,1.5v6
	l1.5,1.5v3l-4.5,4.5l-1.5,1.5l1.5,1.5l3,3h-3v1.5l1.5,1.5l1.5,1.5v1.5l-1.5,1.5l1.5,1.5h1.5l1.5,3h1.5l1.5,3l1.5-1.5l1.5,1.5v3h1.5
	l1.5,1.5h6l12-1.5l-1.5-10.5l-1.5-1.5l3-1.5l1.5,1.5h1.5v-1.5h3v-1.5h1.5l1.5,1.5l1.5,1.5l1.5-1.5l-1.5-3l3-1.5l1.5,1.5l3,1.5
	l1.5,1.5l3,1.5h1.5v-1.5h3l3,3h1.5l1.5,1.5v1.5h4.5l1.5,1.5v-1.5l6,1.5h1.5l1.5,3h1.5v-1.5l1.5,1.5l1.5,1.5h1.5v1.5l-1.5,1.5v10.5
	l1.5,1.5h1.5v-1.5l1.5,1.5h10.5l3-3h3v3h-1.5l-1.5,1.5l1.5,1.5h3l3-1.5h1.5l-1.5-3l3-1.5l1.5,3h1.5v-1.5h3l1.5-1.5v-1.5h3l1.5-3h1.5
	l1.5-1.5l3-1.5h1.5v1.5h1.5l1.5-1.5v1.5h3l1.5-1.5h1.5l1.5-1.5l3-3l3-1.5l3-1.5l7.5-6l1.5-1.5l15-18h-1.5v-1.5h-1.5v-3l-1.5,1.5v-3
	l-1.5-1.5h-3l1.5-1.5h-3v1.5l-1.5,1.5v1.5l1.5,1.5h1.5v3l-1.5-1.5l-1.5,1.5h1.5l-1.5,1.5h1.5v1.5l-1.5-1.5h-3l1.5,1.5v1.5l-1.5-3
	l-1.5-1.5h-1.5l1.5,1.5l1.5,1.5h-1.5v-1.5h-1.5v-3l-1.5-1.5l-1.5-1.5h-4.5v1.5h4.5l-1.5,1.5v1.5l1.5-1.5l1.5,1.5h-1.5v3h1.5v1.5
	h-1.5l-3-6h-1.5l-4.5-3v-1.5h-1.5v1.5l-6-1.5l-1.5-1.5v-1.5l-1.5-1.5v-1.5l-1.5-1.5l1.5-1.5h-1.5l-1.5-1.5v-1.5h-4.5l-1.5-1.5h-3
	l-1.5,3v1.5h-1.5v7.5l-1.5,1.5v-1.5l-1.5,1.5h-1.5l-4.5,1.5l-3,1.5l-1.5,1.5h-1.5v1.5h-3v1.5l-1.5,1.5h-6l-1.5-1.5h-1.5v1.5
	l-1.5-1.5v3l-1.5-3v-1.5h-3v-1.5h-4.5v4.5l-3-1.5v-1.5l1.5-1.5h-9v-1.5l-1.5-1.5l-1.5-1.5h-1.5v-1.5l-1.5-1.5h-4.5l-3-1.5h-1.5
	l-4.5-1.5h-1.5v-1.5h-1.5l-3-1.5h-1.5l-1.5-1.5l-1.5-1.5h-1.5l-1.5-1.5h-1.5v-1.5H95.9z M232.4,720.3l-1.5-1.5l-1.5,1.5H232.4z
	 M230.9,718.8h4.5l-1.5-1.5h-1.5v-1.5h-1.5v-1.5h-3v3l1.5,1.5H230.9z M233.9,714.3l1.5,1.5h-1.5V714.3z M236.9,714.3h1.5l-1.5,1.5
	V714.3z M226.4,724.8h1.5v1.5h-1.5V724.8z"/>
<path id="path651" class="st1" d="M435,189.3l6-6l1.5-1.5l16.5-15h1.5l4.5-1.5h1.5l1.5,1.5l-1.5-1.5H465l-3,1.5h-3l-13.5,13.5
	l-1.5,1.5h-1.5l-1.5,1.5L435,189.3z"/>
<path id="path659" class="st1" d="M135,655.8L135,655.8l-1.5-1.5v-1.5h1.5l1.5,1.5v1.5l-1.5,1.5l0,0V655.8z"/>
<path id="path661" class="st1" d="M142.5,621.3L142.5,621.3l-1.5,1.5v4.5l0,0l1.5,1.5l1.5-1.5l-1.5-1.5l0,0l1.5,1.5l-1.5,1.5l0,0
	l-3-1.5v3l0,0l-1.5-1.5l0,0l-1.5,1.5h1.5v1.5h-1.5v-1.5l-1.5,1.5l0,0v4.5h-1.5l1.5-3v-1.5l-1.5-1.5l0,0l1.5-3l3-1.5v-1.5l0,0v-1.5
	l0,0v1.5h3v-1.5L142.5,621.3z"/>
<path id="path861" class="st1" d="M457.5,288.3h3l10.5,4.5l1.5,1.5l7.5,7.5l3,4.5v1.5l7.5,12l3,7.5v1.5H492l-1.5,1.5l-3,1.5l-1.5,6
	l-1.5,3h1.5l-1.5,3v-3l0,0l1.5-3l1.5-6l1.5-1.5l3-1.5h1.5v-1.5l-3-7.5l-10.5-18l-7.5-7.5l-1.5-1.5l-9-4.5l-1.5,3h-3l1.5-1.5l1.5-1.5
	H457.5z"/>
<path id="path869" class="st1" d="M663,22.8h3v1.5l0,0l-3,1.5V22.8z"/>
<path id="path871" class="st1" d="M690,9.3v1.5l0,0l1.5,1.5l1.5,1.5l1.5,1.5l-1.5-1.5h-6v3h1.5l-1.5,3l-1.5-1.5l-1.5-4.5l-1.5-1.5
	v-1.5l1.5-3h4.5L690,9.3z"/>
<path id="path873" class="st1" d="M705,10.8h6l3,1.5h-9l-1.5,1.5l0,0v-1.5L705,10.8z"/>
<path id="path907" class="st1" d="M181.5,594.3L181.5,594.3v-1.5h1.5l3,1.5H181.5z"/>
<path id="path909" class="st1" d="M237,627.3v-1.5l-1.5-1.5l-1.5-1.5v1.5h-1.5l-3-3l1.5-1.5h-1.5v1.5h-3v-1.5h6v1.5h3v1.5l1.5,1.5
	V627.3z"/>
<path id="path911" class="st1" d="M195,588.3h1.5l1.5-1.5l0,0v3l1.5,4.5l3,3l0,0l-1.5,1.5h-1.5v-1.5l-1.5-1.5v-1.5l-1.5-3l-1.5-1.5
	l0,0V588.3z"/>
<path id="path913" class="st1" d="M190.5,591.3l-1.5,1.5h-3v-1.5H190.5z"/>
<path id="path915" class="st1" d="M186,627.3l-1.5,1.5h-3l-3-1.5H177l3-1.5l0,0l-3,1.5h-1.5l1.5-3l-1.5-1.5v-3H174v-3l-1.5-3l-3-1.5
	l-1.5,1.5v-1.5l-4.5-1.5l0,0v-1.5l0,0v-1.5l-1.5-1.5h-4.5l-1.5,1.5v1.5h1.5l1.5-1.5l1.5,1.5l-1.5-1.5l-1.5,1.5h-3l-1.5,3l-3,1.5h-3
	l-3,1.5l-1.5,1.5v3h1.5v1.5h-1.5l-1.5-1.5h1.5v-3l0,0l-1.5-1.5h-3v-1.5l-1.5-1.5l-1.5-3v-7.5l1.5-3l3-3l3-1.5h3l6-1.5l1.5-1.5h6
	l4.5,1.5v-1.5l0,0v-1.5l1.5-1.5v-1.5h3l-1.5,1.5h1.5l-1.5,1.5l0,0v-1.5H165v1.5l-1.5,3H174l3-1.5l0,0l1.5,1.5l0,0l1.5,1.5v1.5h4.5
	l3-1.5l1.5,1.5h4.5v1.5l0,0v-1.5l1.5,1.5v3l0,0l1.5,1.5l3,3l1.5,3v3h6l3,1.5l0,0l4.5,3h1.5v1.5h1.5l3-3h7.5l1.5-1.5h1.5v4.5h1.5
	l-1.5,1.5h-1.5l1.5-1.5l0,0l-1.5-1.5v-1.5H228v1.5l-1.5-1.5l-4.5,1.5h-1.5l-1.5,1.5h-1.5v1.5l1.5,1.5l0,0v1.5l0,0l-1.5,1.5h1.5v-1.5
	l-1.5,1.5v1.5H216l-1.5,1.5l-1.5,3h-1.5l-1.5,1.5l-1.5-1.5l-3,1.5l-1.5,1.5h-3v1.5h-10.5l-3-3l0,0L186,627.3z"/>
<path id="path929" class="st1" d="M171,657.3v-1.5l0,0V657.3z"/>
<path id="path949" class="st1" d="M280.5,607.8l-1.5,1.5l0,0v1.5l-1.5-1.5l0,0L280.5,607.8z"/>
<text transform="matrix(1 0 0 1 408 481.2)" class="st2 st3 st4">N</text>
<text transform="matrix(1 0 0 1 460 481.2)" class="st2 st3 st4 st5">L</text>
<text transform="matrix(1 0 0 1 359.14 545.47)" class="st2 st3 st6 st7">6.726.737</text>
</svg>
