<?xml version="1.0" encoding="utf-8"?>
<!-- Generator: Adobe Illustrator 23.0.1, SVG Export Plug-In . SVG Version: 6.00 Build 0)  -->
<svg version="1.1" id="Layer_1" xmlns="http://www.w3.org/2000/svg" xmlns:xlink="http://www.w3.org/1999/xlink" x="0px" y="0px"
	 viewBox="0 0 285.6 299.1" style="enable-background:new 0 0 285.6 299.1;" xml:space="preserve">
<style type="text/css">
	.st0{opacity:0.94;}
	.st1{fill:#B100FF;}
	.st2{fill:#FFFFFF;}
	.st3{font-family:'ArialMT';}
	.st4{font-size:18px;}
</style>
<title>VS2</title>
<g id="svg2" class="st0">
	<path id="mexico" class="st1" d="M82.2,208.5l4.8,15.2l-2.3,1.2l0.2,3l4.2,3.3v6l5.2,5l-2.2-14.9l-3-9.8l0.8-6.8l2.5,0.2l1,2.3
		l-1,5.8l13,25.4v9.1l10.5,12.5l11.5,5.3l4.8-2.8l6.8,5.5l4-4l-1.8-4.5l5.8-1.8l1.8,1l1.8-1.8h2.8l5-8.8l-2.5-2.3l-9.8,2.3l-2.2,6.5
		l-5.8,1l-6.8-2.8l-3-9.6l2.3-12.1l-4.6-2.9l-2.2-11.6l-1.8-0.8l-3.4,3.4l-3.9-2.1l-1.5-7.7l-15.4-1.6l-7.9-6L82.2,208.5L82.2,208.5
		z"/>
	<path id="alaska-westcopy" class="st1" d="M37.8,28l-8.4,2l1.7,9.5l9.1,2.5l0.5,2l-13.6,4.2l-7.6,12.7l2.7,13.4l4.4,3l3.5-3.3l1,2
		l-4.2,5l-16.3,7.4L0.2,90.9L0,94.7l23.9-7l9.9-2.7l9.1-11.2L53,67.1l-5.2,8.7l5.7,0.8l9.6-4.2l1.7,7l6.7,1.5l6.9,6.7l0.5,5l-1,1.2
		l1.2,4.7H81l0.2-8h2l0.4,19.5l4.9-4.2L85,85.5h-5l-5.7-7.2L102.2,31L74.5,9.3l-30.8,6l-1.2,9.4l6.7,4l-2.5,6.4L37.8,28z"/>
	<path id="banks" class="st1" d="M148.4,19l0.2,4l-8,8.3l2,6.7l5.8-1.6l3.3-4.9l8.4-3.1l6.9-0.5l-5.3-5.8l-2.7,2l-2-0.7l-1.1-2.4
		l-2.4-2.5L148.4,19z"/>
	<path class="st1" d="M158.8,7.2l-1.8,3.1l8.6,3.1l3.1-4.7l1.3,3.1h2.2l4.2-4.7l-5.1-1.3l-2-1.6L166.8,7L158.8,7.2z"/>
	<path id="eglinton" class="st1" d="M173.9,13.4l-6.9,2.9v2.2l8.9,3.4l-2,2.2l1.3,2.9l5.5-2.5h4.7l2.2,3.6l3.8-3.8l-0.9-3.6
		l-3.1,1.1l-0.4-4.5l1.6-2.7H187l-2.4,1.6l-1.1,0.9l0.7,3.1l-1.8,1.3l-2.7-0.2l-0.7-4L173.9,13.4z"/>
	<path class="st1" d="M183,6.5l-0.7,2.2l4.2,2l3.1-1.8l-0.2-1.3L183,6.5z"/>
	<path class="st1" d="M186.3,2.7l-3.1,1.1l0.2,1.6l6.9-0.4l-0.2-1.6L186.3,2.7L186.3,2.7z"/>
	<path class="st1" d="M201.2,6.5L200.7,8l-1.1,1.6v2.2l4.2-0.7l4.4,3.8h1.6v-3.8l-4.4-4.9L201.2,6.5z"/>
	<path class="st1" d="M212.5,11l1.8,2l-1.6,2.7l1.1,2.9l4.9-2.7v-2l-2.9-3.4L212.5,11z"/>
	<path class="st1" d="M218.9,5.8l0.2,3.6h6l1.6,1.3l-0.2,1.6l-5.3,0.7l3.8,5.1l5,0.9l7.1-3.1L226.9,0.4l-3.1,2l0.2,2.7l-3.6-1.3
		L218.9,5.8L218.9,5.8z"/>
	<path id="victoria" class="st1" d="M167.2,31.1l-8.4,2.2l-4.9,4.2l0.4,4.7l8.9,2.7l-2,4.5l-6.4-4l-1.8,3.3l4.2,2.9l-0.3,4.7
		l6.4,1.8l7.8-0.5l1.3-2.5l5.8,6.5l4-1.3l0.7-4.5l2.9,2l0.4-4.5l-3.6-2.2l0.3-14.1l-3.1-2.5l-3.3,4.5L167.2,31.1z"/>
	<path class="st1" d="M194.3,40.9l-2.9-1.3l-1.6,2l3.1,4.9l0.2,4.7l6.6-4v-5.8l2.4-2.5l-2.4-1.8h-4L194.3,40.9L194.3,40.9z"/>
	<path id="prescott" class="st1" d="M208.5,38.9l-4.7,3.8l1.1,4.7h2.9l1.3-2.5l2,2l2-0.2l5.3-4.5L208.5,38.9L208.5,38.9z"/>
	<path id="cornwallis" class="st1" d="M208,31.5l-1.1,2.2l4.9,1.8l1.3-2L208,31.5L208,31.5z"/>
	<path id="bathurst" class="st1" d="M205.1,23l-4.9,0.7l-2.9,2.7l5.3,0.2l-1.6,4l1.1,1.8l1.6-0.2l3.8-6L205.1,23z"/>
	<path id="devon" class="st1" d="M213.6,21.5l-2.7,0.9l0.4,3.6l4.4,2.9L216,31l-1.3,1.3l0.7,4.5l17.1,5.6l4.7,1.6l4.7-4l-5.5-4.5
		l-5.1,1.3l-7.1-0.7l-2.7-2.7l-0.7-7.4l-4.4-2.2L213.6,21.5L213.6,21.5z"/>
	<path id="baffin" class="st1" d="M227.5,44.7l-4.9-0.5l-5.8,2.2l-3.1,4.2l0.9,11.6l9.5,0.5l9.1,4.5l6.4,7.4l4.9-0.2l-1.3,6.9
		l-4.4,7.4l-4.9,2.2l-3.6-0.7l-1.8-1.6l-2.7,3.6l1.1,3.6l3.8,0.2l4.7-2.2l4,10.3l10,6.5l6.9-8.7l-5.8-9.4l3.3-3.8l4.7,7.8l8.3-7.4
		l-1.5-3.3l-5.8,1.8l-4-11l3.8-6.2l-7.5-8l-4.2,2.9l-4-8.7l-8.4,1.1L233,47.2l-6.9,4.7l-0.7,5.8h-3.8l0.4-5.1L227.5,44.7z"/>
	<path id="bylot" class="st1" d="M237.5,48.7l-1.8,1.8l1.6,2.5l7.3,0.9l-4.6-5L237.5,48.7z"/>
	<path id="ellesmere" class="st1" d="M230.4,23.5v2l-4.9,1.1l1.3,2.2l5.5,2.2l6.2,0.7l4.4,3.1l4.4-2.5l-3.1-3.1h4l2.4-2.7l6-0.9
		v-1.3l-3.3-2.2l0.4-2.5l9.3,1.6l13.8-5.4l-5.1-1.6l1.3-1.8h10.6l1.8-1.8L263.9,3L259,1.3l-5.5,4l-6.2-5.1L243.9,0l-0.7,4.2L239,0.4
		L234.2,2l0.9,2.5l7.3,1.5L242,9.6l4,2.5l9.8-2.5L256,13l-8,3.8l-4.9-3.7l-4.4,0.4l4.4,6.3l-2.2,1.1l-3.3-2.9l-2.4,1.6l2.2,4.2h3.8
		l-0.9,4l-3.1-0.5l-4-4.2L230.4,23.5L230.4,23.5z"/>
	<path id="southhampton" class="st1" d="M210.7,85l-4.2,5.3l-0.3,5.9l3.7-2.1h4.5l3.2,2.9l2.9-2.4L210.7,85z"/>
	<path id="newfoundland" class="st1" d="M262.2,154.2l-10.6,10.1l1.1,2.4l12.9,4.8l1.9-3.2l-1.1-5.3l-4.2,0.5l-2.4-2.7l4-4
		L262.2,154.2L262.2,154.2z"/>
	<path id="canada" class="st1" d="M102.9,31.8l2,3l1,4l5,1.2l3.5-3.8l3,1.5l8.5,0.8l6-2.5l1,8.3h3.5v-3.5l3.5,0.2l8.7,10.3l5.7,3.5
		l-3,4.8l1.2,1.2l11.2,2.3l0.2,5l3,0.5l0.8-7.5l4.7-1.2l3.5,5.3l7.5,3.5l3.7,0.8l2.5-3l0.2-4.8l4.5-2.8l1.5,4l-4,7l0.5,3.5l2.2-3.5
		l4.5-4l0.2-5.3l-2.5-4l0.8-3.3l6-3l2.7,2l0.5,17.6l4.2-3.7l2.5,1.5l-3.5,6l4.5,1l6.5-10l5.5,5.8l-2.2,10.3l-5.5,3l-5.2-2.5l-9.5,2
		l1,3.3l-2.5,4l-7.7,1.8l-8.7,6.8l-7.7,10.3l-1,3.3l5.2,2l2,5l7.2,7.3l11.5,5l-2.5,11.5l-0.2,3.3l3,2l4-5.3l0.5-10l6.2-0.2l3-5.8
		l0.5-8.8l8-15.6l10,3.5l5.2,7.3l-2.2,7.3l4,2.3l9.7-6.5l2.7,17.8l9,10.8l0.2,5.5l-10,2.5l-4.7,5l-10-2.3l-5-0.2l-8.7,6.9l5.2-1.2
		l6.5-1.2l1.2,1.5l-1.7,5.5l0.2,5l3,2l3-0.8l1.5-2.3h2l-3.2,6l-6.2,0.2l-2.7,4h-3.5l-1-3l5-5l-6,2L229,167l-1.7-1l-5.3,2.3l-0.5,4.3
		h-12l-10.2,7l-13.7,4.5l-1.5-2l6.9-10.3l-3.9-3.8l-2.5-4.8l-5.1-3.9l-5.4-0.4l-9.8-6.8l-70.7-11.6l-1.2-4.8l-6.5-6v-5l1-4.5
		l-0.5-2.5l-2.5-2.6l-0.5-4l6.5-4.5L86,85l-5.5-0.2l-5-6.5L102.9,31.8z"/>
	<path id="usa" class="st1" d="M93.4,141.4l-1,4l-3.5-2.3h-1.7l-1,4.3L74,174.8l3.2,23.8l4,2l0.8,6.5h8.2l8,6l15.7,1.5l1.7,8
		l2.5,1.8l3.5-3.5l2.7,1.2l2.5,11.5l4.2,2.8l3.5-6.5l10.7-7.8l7,3.3l6,0.5l0.2-3.8l12.4,0.2l2.5,2.8l0.5,6.3l-1.5,3.5l1.7,6h3.7
		l3.7-5.8l-1.5-2.8l-1.5-6l2.2-6.8l10.1-8.7l7.7-2.3l-1-7.3l10.7-11.6l10.7-1.8l-1.7-6l10.5-6v-8l-1-0.5l-3.7,1.2l-0.5,4.9
		l-12.4,0.1l-9.7,6.5l-15.3,5l-2.4-3l6.9-10.5l-3.4-3.3l-2.3-4.5l-4.8-3.9l-5.2-0.4l-9.9-6.8L93.4,141.4z"/>
	<path class="st1" d="M78.5,111.5l-1.7,3.3l0.6,2.3l1.1,0.7l-0.3,0.9L77,119l0.3,3.4l1.3,1.3l1-1.1l-1.3-3.3l0.8-2.7l1.9-2.5
		l-1.4-2.3L78.5,111.5z"/>
	<path id="vancouver" class="st1" d="M84.1,131.1l-1.5,0.6l2.8,3.3l0.7,3.9l2.8,3l2.4-0.4v-3.9l-2.9-1.8
		C88.4,135.6,84.1,131.1,84.1,131.1z"/>
	<path id="guatemala" class="st1" d="M139.5,274.6l5.9,4.3l6-7.4l-1-1.5l-2-0.1v-4.4l-1.5-0.9l-4.7,1.4l1.8,4.1L139.5,274.6z"/>
	<path id="honduras" class="st1" d="M152.2,271.9l9.2-0.4l2.7,3.3l-1.7-0.4l-3.3,0.1l-4.3,4l-1.8,4.1l-1.2-0.6v-4.5l-2.7-1.8
		L152.2,271.9L152.2,271.9z"/>
	<path class="st1" d="M146.3,279.4l4.7,2.3l-0.1-3.7l-2.4-1.5L146.3,279.4L146.3,279.4z"/>
	<path id="nicaragua" class="st1" d="M162.4,275.2l2.2,0.4l0.1,4.5l-2.6,7.3l-6.9-0.7l-1.5-3.5l2-4.3l3.9-3.6L162.4,275.2
		L162.4,275.2z"/>
	<path class="st1" d="M162,288.1l1.4,2.7l1.1,1.5l-1.5,4.5l-2.9-2l-4.7-4.3v-2.9L162,288.1L162,288.1z"/>
	<path id="panama" class="st1" d="M165.2,292.7l-1.5,4.6l4.8,1.2l3,0.6l0.5-3.5l3.2-1.6l2.9,1.5l1.1,1.8l1.4-0.2l1.1-3.2l-3.6-1.5
		l-2.7-1.5l-2.7,1.8l-3.2,1.6l-3.3-1.3L165.2,292.7z"/>
	<path id="belize" class="st1" d="M149.2,265.5l-0.1,3.6h0.8l2.9-5.3h-1.9L149.2,265.5L149.2,265.5z"/>
</g>
<text transform="matrix(1 0 0 1 138.16 151.88)" class="st2 st3 st4">VS</text>
<text transform="matrix(1 0 0 1 104.06 171.72)" class="st2 st3 st4">78.873.760</text>
</svg>
