<svg id="svg2" xmlns="http://www.w3.org/2000/svg" viewBox="0 0 870 924"><defs><style>.cls-1,.cls-2,.cls-3,.cls-4{fill:#b18aff;}.cls-1,.cls-2{stroke:#b9b9b9;stroke-linejoin:bevel;fill-rule:evenodd;}.cls-1{stroke-width:1.05px;}.cls-2{stroke-width:0.7px;}.cls-4{isolation:isolate;font-size:72px;font-family:ArialMT, Arial;}.cls-5{letter-spacing:-0.04em;}</style></defs><title>NL1</title><path id="path17" class="cls-1" d="M739.4,34.8l-3,1.5-12,1.5-1.5,1.5-4.5,1.5h-1.5l-1.5,1.5h-3l-3,3h-4.5l-3,1.5-3,1.5-1.5-1.5-1.5,1.5h-7.5l-4.5,1.5-6,1.5h-3l-3,1.5h-3l-4.5,1.5-4.5,1.5-1.5,1.5v1.5l-3,1.5-1.5-1.5-1.5-1.5-7.5-4.5h-1.5l-6,3V54.3h-1.5v1.5h-1.5V54.3l-1.5,1.5,1.5,1.5h1.5l1.5,1.5h1.5l1.5,1.5h1.5v1.5h-4.5V60.3l-3-1.5V57.3h-3l-1.5,3h1.5l1.5,1.5h1.5v1.5l-1.5,1.5-1.5-1.5v1.5l1.5,1.5h7.5v1.5h-4.5l-3-1.5v1.5l-1.5-1.5v1.5l1.5,1.5h7.5l1.5-1.5v3h-1.5l1.5,1.5,1.5-1.5h1.5v1.5l-1.5,1.5h-3v1.5l1.5,1.5,1.5-1.5h1.5l-1.5,1.5h-3l1.5,1.5v1.5h-1.5V78.3l-1.5-1.5V75.3h-1.5l1.5-1.5h-1.5l-1.5-1.5v1.5l-1.5,3v-3l-3-1.5-1.5,1.5v1.5l3,3v1.5h-1.5V78.3l-1.5,1.5V78.3l-1.5-1.5v-6l-1.5-1.5V67.8l1.5-1.5h-1.5v-3l-1.5-1.5,1.5-3v-3l3-1.5-7.5,3h-1.5l-3-1.5h-4.5v1.5h-3l-1.5-1.5-6,1.5h-4.5l-1.5,1.5-6,1.5h-3l-6,3h-7.5V61.8l-1.5-1.5v3l-3,1.5-3,1.5-1.5,1.5-3,1.5-1.5,1.5-3,1.5h-3l-4.5,3-6,3-3,1.5-7.5,4.5h-4.5l-1.5,1.5-3,1.5h-1.5l-1.5,1.5-3,1.5-3,1.5-1.5,1.5-3,3-1.5,3-1.5,1.5v1.5h-1.5v1.5l-3,1.5-1.5,1.5h-1.5l-3,3-1.5,1.5h-1.5l-1.5,1.5-1.5,3h-1.5l-1.5,1.5-1.5,3-1.5,4.5-1.5,1.5v1.5h1.5l-1.5,1.5-1.5,1.5-1.5,1.5v1.5h1.5v3l-1.5,3v9l-1.5,1.5v1.5l-3,1.5h-1.5l1.5,1.5-1.5,1.5v1.5l-1.5,1.5h1.5l1.5,1.5,1.5,3v4.5l1.5,3h-1.5l1.5,1.5h-1.5v-4.5h-1.5v-3h-3v-1.5h-1.5l1.5,3v1.5l1.5,1.5,1.5,1.5h-1.5v3h3v4.5l1.5-1.5v1.5h-1.5v1.5h1.5l1.5,1.5v4.5l-1.5,1.5v3l1.5,4.5v3l1.5,1.5v.5l3-2-3,3v-1l-1.5,1v4.5h-1.5l-1.5,1.5,1.5,1.5,1.5,3v6l-1.5,1.5h-3l-3,3-1.5,1.5-1.5,1.5,1.5,1.5v3h3v1.5h1.5l3,3,3,3h7.5v-1.5l4.5,1.5h3l1.5,1.5,6,3h3v1.5h3l1.5-1.5h1.5v-1.5l1.5-1.5v-1.5l3-1.5,3,1.5,1.5-1.5,3-1.5h1.5l1.5,1.5v3h9v1.5h1.5l1.5-1.5v3h-1.5l-7.5,1.5h-1.5v1.5l-4.5,7.5-7.5,12v1.5l-1.5,4.5v28.5h1.5l1.5,1.5,1.5,1.5,3,4.5,4.5,6,1.5,1.5h36l-1.5,1.5v6l1.5,1.5v1.5l-6-1.5,1.5,1.5h3v1.5l1.5,1.5v3l1.5,1.5,1.5,1.5v3l1.5,1.5v7.5l-1.5,4.5-1.5,3v3l-1.5,3v3l-1.5-1.5v3h-1.5v-3l4.5-9,1.5-3v-12l-1.5-3-7.5-7.5v-1.5H550.4l-6-1.5-13.5-4.5h-1.5l-1.5-3h-1.5l-1.5,1.5-10.5,3h-1.5l-1.5,1.5-12,10.5v1.5h-9v1.5l-1.5,4.5v-1.5l-1.5,3v6l-3,1.5h-1.5l-1.5,1.5-1.5,3h-3v1.5l-25.5,16.5-4.5,3v1.5h-1.5v1.5H443l-9.6,6-1.5,1.5-6,4.5h-1.5v1.5l3,3v7.5l-1.5,1.5h1.5l1.5,3h-1.5l1.5,1.5,1.5-1.5h1.5l6-1.5h3l1.5,1.5h6l4.5,1.5,3,3,4.5,1.5,1.5,1.5v1.5h1.5l13.5,12,1.5,3h1.5l3,1.5,3-1.5,7.5-3h4.5l1.5-1.5,4.5-1.5h1.5l1.5-6,1.5-1.5v-4.5h1.5v-7.5h-1.5v-1.5l-1.5-3,1.5-1.5,4.5-4.5,3,1.5,4.5-1.5h1.5l1.5-1.5h-1.5l1.5-1.5,1.5-1.5,1.5-1.5,4.5-4.5,12-6h3l1.5,1.5h1.5l6-4.5,1.5-3,3-3,1.5-3,1.5-1.5v1.5h1.5v1.5h-1.5l1.5,1.5-1.5,1.5-1.5,1.5-4.5,4.5-3,3-3,1.5v1.5h-1.5l-1.5,1.5h-1.5l-1.5,1.5v1.5h-1.5v1.5h-3l-3,1.5-1.5,1.5h-1.5l-1.5,1.5-3,1.5h-1.5l-1.5,1.5-1.5,1.5v1.5h-3v3h-1.5v1.5h-1.5v1.5h-1.5v1.5l-3,1.5-1.5,1.5-1.5,1.5v1.5l-1.5,3v3l-1.5,3v1.5l-1.5,3-1.5,1.5h-7.5l-3,3-1.5-1.5-1.5,1.5-4.5,1.5h-3l-1.5,1.5h-3l-1.5-1.5-1.5-1.5-1.5-1.5h-1.5v-1.5l-1.5-1.5h-4.5l-1.5-1.5h-3l-1.5-1.5-3-3v-1.5l1.5-1.5h-3l-1.5-1.5h-1.5l-1.5-1.5h-1.5v-1.5l-1.5-1.5-1.5,1.5h-9l-1.5,1.5h-1.5l-1.5,1.5h-1.5v-1.5h-1.5l-1.5-1.5-1.5-1.5-1.5-3h-1.5v-1.5h-4.5l-1.5-3h-7.5l-3,1.5-1.5-1.5v1.5h-1.5v-1.5h1.5v-1.5l-1.5-1.5h-1.5l-1.5,1.5h-3v-1.5h1.5v-3l-3-1.5h-1.5v1.5h-1.5l-1.5-1.5h-1.5v-1.5h3l1.5-1.5-4.5-3v-1.5l3,1.5,1.5,1.5h1.5l1.5-1.5v1.5l1.5,1.5,1.5-1.5v-3h1.5l1.5-1.5v-3l1.5-1.5,1.5-1.5,1.5-1.5h3v-1.5l1.5-1.5v-1.5l3-3h-3l-1.5-1.5v1.5l-3-1.5v-4.5l1.5-1.5v-1.5h-1.5l-1.5,1.5-1.5-1.5,3-1.5h3v-1.5l-1.5-1.5v-3l1.5-1.5,1.5,1.5v-1.5l1.5-1.5,1.5-3h-1.5v-3h-1.5v-1.5l-1.5-1.5v-1.5l-1.5-3v-1.5l-3-4.5v-1.5l-1.5-1.5v-3l-1.5-3v-1.5l-1.5-1.5,1.5-1.5-1.5-1.5v-9h1.5v-1.5h1.5l1.5-1.5h3v1.5l1.5,1.5v-1.5l1.5-1.5h4.5l1.5,1.5,1.5,1.5h1.5l1.5,1.5v1.5h6l1.5-1.5,3-3h4.5v-1.5l1.5-1.5h1.5v-1.5l3-1.5v-1.5l1.5-1.5v-4.5l1.5-3h4.5l1.5-1.5h1.5l-1.5-1.5h1.5l1.5-1.5,1.5-1.5-1.5-1.5-1.5-1.5v-9h-1.5l-1.5-1.5-3-1.5h-6l-1.5-1.5h-4.5l-1.5,3-1.5,1.5v1.5l-1.5-1.5h-4.5l-3-3-1.5-1.5-1.5-1.5,1.5-3h-1.5l-1.5-1.5h-1.5l3-22.5-3-4.5-4.5-9v-1.5l-1.5-1.5-4.5-9h-3v3l-3,3h-1.5l-3,1.5h-1.5l-1.5,3h-9v1.5h-3l-3-1.5-4.5,1.5-1.5-1.5-4.5-3h-1.5l-4.5-3-1.5-1.5-1.5-1.5-1.5-3v-6l1.5-3v-1.5h-1.5v1.5h-3v-3h-9l-3,4.5v6l-1.5,4.5v10.5l-3,9-1.5,9-3,9v3h-1.5v3l-3,6v3l-3,9v10.5l-1.5,6v6l-1.5,6v7.5l-1.5,1.5v1.5l-1.5,10.5-1.5,13.5-1.5,7.5-1.5,3-1.5,3-1.5,3-1.5,4.5,3-1.5h1.5l3-1.5,1.5,1.5h-1.5v1.5h-3l-1.5,1.5h3v1.5l-3-1.5h-1.5v1.5l-3-1.5v3l1.5,3-1.5,1.5v3l-1.5,3-1.5,6-1.5,4.5-3,7.5-6,12-9,19.5-3,4.5-1.5,3-4.5,7.5-1.5,1.5v1.5l-3,4.5-1.5,3-4.5,6-9,12-4.5,3v1.5l-3,3h-1.5v3h1.5l-1.5,1.5v-1.5h-1.5l-1.5,1.5-1.5,3-1.5,1.5-4.5,4.5-3,3-4.5,6-1.5,1.5-3,3-1.5,1.5v1.5l-3,4.5-3,1.5-3,3h-1.5l-1.5-1.5-7.5-1.5-1.5,1.5h-3l-1.5,1.5v1.5l-1.5,1.5-1.5,3,1.5,1.5,1.5,1.5v1.5l-3,3-1.5,3-3,4.5h3l1.5,1.5,1.5-1.5,6-1.5h1.5l1.5,3h-1.5v1.5l-3,3v1.5l-1.5,1.5v1.5l1.5,1.5,6,9v3l-1.5,1.5,3-1.5,1.5,1.5,1.5,1.5,1.5,1.5v1.5h6l-1.5,1.5,1.5,1.5h1.5v-1.5h4.5l1.5,1.5,3,4.5h4.5v1.5h3l1.5,3,1.5,1.5h3l-1.5,1.5h-1.5l1.5,3,1.5,1.5,4.5,1.5v1.5h3l3,1.5h3v1.5l6,1.5,3,3h1.5l3,1.5,4.5,3h1.5l1.5,1.5h3v1.5h7.5l3,1.5h3l1.5,1.5h1.5l1.5,1.5h1.5l3-1.5h1.5l4.5-1.5h1.5l1.5-1.5h3l1.5-3,1.5,1.5h1.5l3-1.5v3l-3,1.5-1.5,1.5h-1.5l-1.5,1.5-1.5,1.5-12,3h-3l-4.5,1.5h-3l-4.5-1.5-1.5-1.5h-1.5l-1.5-1.5h-4.5l-1.5,1.5-3,1.5-1.5,1.5v1.5l-1.5,3-1.5,1.5-1.5,1.5-1.5,1.5-3,1.5h-1.5l-1.5,1.5h-1.5v-1.5h-1.5l-1.5,1.5h-4.5l-1.5,1.5h-3l-1.5,3h-1.5v-1.5h-4.5l-3-1.5h-6l-3-1.5-4.5-3h-1.5l-4.5-1.5v1.5l-3,3h-1.5l1.5,3h1.5l1.5,3,1.5,3h9v-1.5h1.5v3l-1.5,1.5h-7.5l-1.5,1.5h-1.5l-3-3-6-1.5h-1.5l-3,1.5-1.5,1.5h-1.5l-3,1.5-1.5,1.5-1.5-1.5-3,1.5-1.5,1.5v3h1.5v1.5h3l1.5,1.5,1.5,1.5h1.5v3l1.5,1.5h1.5l1.5,1.5,1.5,1.5v3l1.5,1.5h1.5v1.5h12l1.5,1.5h1.5v-1.5l3,1.5,3,1.5-1.5,1.5v3h1.5l6,3,1.5,1.5v10.5l1.5,6h-4.5l-1.5-1.5h-4.5l-1.5,1.5h-1.5l-1.5,1.5h-4.5v-1.5h-1.5l-4.5-3h-1.5l-1.5-4.5h-1.5l-3-4.5v-1.5l-1.5-1.5,1.5-1.5-1.5-1.5v-3h-1.5l-1.5-1.5-3-3-1.5-1.5h-3l-1.5-1.5h-1.5l-3-1.5h-1.5l-1.5-1.5-1.5,1.5h-1.5v1.5l-3-4.5h1.5l-1.5-1.5v-1.5h-4.5l-1.5,1.5H166.4v-1.5l-1.5-1.5h-3l-3,1.5h-1.5l-1.5,1.5-4.5-1.5h-1.5l-1.5-1.5-1.5,1.5-3,1.5v1.5l-1.5,1.5v1.5l-1.5,1.5h-1.5l-1.5,1.5h3l-3,1.5v-1.5l-3-3-1.5-1.5v-1.5l-1.5-4.5v-1.5h-1.5l-1.5-1.5-3-1.5-1.5-1.5-1.5-1.5v-4.5l1.5-1.5h-3l-1.5-1.5H109.4v1.5h-3l-1.5,1.5-3,1.5-1.5,1.5-3,1.5H95.9l-1.5,1.5-1.5,1.5-3,1.5-1.5,1.5H86.9l-1.5,1.5-1.5,1.5v4.5l1.5,3h1.5l1.5,1.5,1.5,1.5,3,1.5v1.5h1.5l1.5,1.5,1.5,1.5v1.5l1.5,1.5v1.5l1.5,1.5v1.5l1.5,1.5,1.5,1.5,3,1.5v1.5h1.5l1.5,1.5v1.5h6v-4.5h1.5v3l1.5,1.5h4.5l1.5-1.5v-1.5h6l-3-1.5,1.5-1.5,3-1.5h1.5v1.5l4.5-3v-3l1.5,1.5v1.5h1.5l-1.5,1.5h-1.5l-3,1.5,3,1.5h3l-1.5,1.5,1.5,1.5v1.5l-1.5-1.5-1.5,1.5h-1.5l1.5-3-3-1.5-1.5-1.5-1.5,3,1.5,1.5,4.5,3,1.5,1.5v1.5h1.5v4.5h1.5l1.5,1.5h1.5v-1.5h1.5l3,1.5h1.5v1.5l3,1.5v1.5h1.5l3,3h4.5l3-1.5h1.5l1.5-1.5h4.5l1.5,1.5,1.5-1.5,1.5-6h1.5v-3h1.5v-9l3,1.5,3-1.5h1.5l3-3,1.5,1.5,1.5,1.5,1.5,1.5v1.5h1.5v1.5h3l1.5,1.5,1.5,1.5h3v4.5l3,1.5h1.5l1.5,1.5h1.5l3,1.5,3,1.5h3l1.5,1.5h3l4.5-1.5,3-1.5h3v1.5h3l3,1.5,1.5,4.5v3h4.5l3-1.5h10.5v1.5l1.5,1.5v4.5l1.5-1.5,4.5,1.5h6l1.5-1.5,3-1.5h1.5v-3l-7.5-10.5-1.5-4.5,1.5-1.5h1.5v-6h-1.5l-1.5-1.5,1.5-1.5,10.5-4.5h3l1.5-1.5,1.5-1.5h3l10.5-1.5,1.5,3-3,7.5,1.5,9,7.5-3h4.5l6,1.5,3,1.5h1.5v-1.5l1.5,1.5,3-1.5-1.5-6,4.5-1.5h1.5l1.5-4.5,3-1.5,1.5-1.5,1.5-3,3-1.5,1.5-1.5-1.5-1.5h3v-1.5l3-1.5,1.5,1.5v1.5h3l3,1.5h1.5v3l1.5,1.5,1.5-1.5,1.5,1.5-1.5,3v3h1.5v1.5h-1.5l-1.5,1.5-1.5,1.5,1.5,6v1.5h3v1.5h-1.5l-4.5-1.5-1.5-1.5h-3v-1.5h-1.5l-3,1.5v3l1.5,1.5,3,1.5h1.5l4.5-1.5h6l1.5,1.5h1.5v-1.5h6l3,3v1.5h1.5l1.5,1.5h1.5l6-9,9-6v-3h1.5v-1.5l-1.5-1.5v-1.5l1.5-1.5v-1.5l1.5-1.5,3-1.5h1.5l-1.5,1.5,1.5,1.5v1.5h7.5l4.5,13.5-1.5,3-4.5,9,9,10.5v1.5l1.5,1.5,1.5,1.5v10.5l6,1.5,1.5-1.5,4.5-1.5h1.5v-1.5l9,6-3,12,1.5,1.5,6-1.5,6,1.5h7.5l1.5-1.5,1.5-3,4.5,1.5,6,1.5,3,1.5,4.5-4.5,1.5-1.5,4.5-1.5,1.5-1.5,1.5-1.5v-1.5h1.5l6,1.5v1.5l1.5,3,4.5,3,1.5,1.5v9l1.5,6h1.5l3,1.5,12,4.5,1.5,1.5v1.5l1.5,3,1.5-1.5,1.5,1.5h12l1.5-1.5h1.5l1.5,1.5h3l1.5,1.5v1.5h1.5l-1.5,1.5h-1.5v1.5h1.5v4.5h1.5v-1.5h3v-1.5h3v-1.5l3-1.5v1.5h1.5v3l4.5,3-1.5,1.5-1.5,1.5v1.5l-3,1.5h-1.5v1.5l-1.5,1.5-1.5,1.5,1.5,1.5h3l1.5,1.5v1.5l-1.5,1.5v1.5h-1.5l-1.5-1.5h-3v3l1.5,1.5v1.5h-1.5v1.5l1.5,3h-1.5v1.5h-1.5l-3-1.5-1.5,4.5v3l-1.5,1.5v1.5h1.5l1.5,1.5v1.5l-1.5,3v4.5l-1.5,1.5-1.5,1.5-1.5,3h-1.5l-1.5,3-1.5,3v1.5h3l1.5-1.5h1.5l1.5,1.5v1.5l-3,1.5v3l-3,3v1.5l-1.5,1.5,1.5,1.5-1.5,1.5h-4.5l-1.5,1.5v3l-3,3v1.5h-1.5l-1.5,1.5h-1.5v1.5h-3l1.5,1.5-1.5,1.5v9h1.5v3h1.5v1.5l1.5,1.5h3v1.5h3l1.5,1.5v1.5l-1.5,1.5,1.5,4.5v3l-3,4.5v1.5h3l1.5-1.5h1.5l1.5-1.5v1.5l1.5,1.5h1.5l1.5-1.5v-1.5l1.5-1.5,3-4.5h3v3l1.5,3,1.5-1.5,3,4.5h1.5l1.5-1.5,1.5,1.5,1.5-1.5,1.5-1.5v4.5l1.5-1.5,1.5-1.5v-1.5h3l3-1.5v4.5l3,1.5v-1.5h3v1.5l3-1.5,1.5-1.5h6l1.5,1.5,3,1.5h1.5v-1.5h4.5v-3l1.5-3-4.5-3h-1.5l-1.5-1.5v-1.5h-1.5l-1.5-1.5v-3l1.5-1.5,1.5,1.5,3,1.5,1.5-3,1.5-1.5v-1.5h1.5l-1.5-1.5v-1.5l-1.5-1.5v-3l1.5-1.5h3l1.5-1.5h1.5v-1.5h1.5v1.5l3,1.5v-4.5h1.5v-1.5l1.5-1.5v-3l-1.5-1.5v1.5l-1.5-3v-3l1.5-1.5v-1.5l1.5-1.5v-1.5l-1.5-1.5h-6v-3l-1.5,1.5-1.5-1.5-4.5-1.5v-4.5l-3-1.5,1.5-1.5h1.5v-1.5l1.5-6h-9l-1.5,1.5h-1.5l-1.5-1.5v-1.5h-1.5l-3,1.5h-1.5l-1.5,1.5h-1.5l-1.5,1.5h-1.5l-1.5-1.5,3-3v-4.5h-1.5l-1.5-1.5v-1.5h-1.5v-1.5h-1.5v-7.5l-1.5-1.5-1.5-3h6v-1.5l3-1.5,1.5-1.5v1.5l3,4.5,1.5,3v1.5l1.5-1.5h1.5v1.5h1.5v-1.5l1.5-1.5v-1.5l1.5-1.5v-3l1.5-1.5v-1.5l1.5-1.5v-1.5l1.5-1.5,3-1.5,1.5-1.5,3-1.5h1.5l1.5-1.5,1.5-1.5v-1.5l1.5-1.5h3l1.5-1.5v-3l1.5-1.5h3l1.5-1.5h1.5v-1.5h3l1.5-1.5h4.5l-1.5-1.5h1.5l1.5-1.5-6-4.5h-1.5l9-4.5-3-3-9,4.5-1.5,1.5-1.5,1.5h-6v-1.5l-1.5-1.5V765.3l-1.5-1.5,1.5-1.5h3l-3-6,3-1.5,1.5-3,6-6v-1.5l1.5-1.5,3-4.5,1.5-3v-1.5l1.5-1.5v-3l1.5-1.5v-1.5h4.5v-1.5l7.5-7.5-1.5-4.5-1.5-3v-1.5l1.5-1.5,1.5-1.5h-4.5v-1.5l1.5-9v-4.5h1.5l-1.5-3,1.5-1.5v-4.5l-1.5-3-1.5-3,1.5-3-1.5-1.5v-4.5l-1.5-3-3-1.5-3-1.5-3-9-3-1.5-1.5-1.5-1.5-1.5-1.5-3v-1.5h-1.5l-4.5-3v-6h1.5v-1.5l1.5-4.5v-1.5l1.5-1.5v-1.5l-3-1.5h-3v-1.5h-3l-7.5-3-1.5-1.5v-3l1.5-1.5-1.5-1.5v-4.5h3v-1.5h-1.5v-3h-1.5l-4.5-3-1.5-1.5h-9v-3l1.5-1.5,3-1.5h1.5l1.5-3v-1.5h-1.5v-3h1.5l-1.5-1.5h-1.5v-4.5l-3-3h-3v-1.5l1.5-1.5h1.5l-3-1.5,3-4.5h1.5v1.5h4.5l3-1.5h1.5l1.5-1.5,1.5-1.5,1.5,1.5,1.5-1.5,1.5-1.5h1.5l-1.5-1.5,1.5-1.5,1.5-1.5,1.5,1.5,3,3h3l6,1.5h4.5l1.5,1.5v-7.5l-3-1.5h-1.5v-3l-1.5-3-1.5-1.5h-4.5l1.5-1.5v-1.5h1.5l1.5,1.5,6-3,1.5,1.5h1.5l1.5,1.5,3,1.5v1.5h-3l1.5,1.5,1.5,1.5,1.5,1.5,3,1.5h3v-1.5h3l1.5,1.5h1.5v-1.5h1.5v-1.5l1.5,1.5,4.5,1.5v1.5l1.5,3v1.5l3-1.5h4.5l1.5,1.5h1.5l1.5,1.5v3h4.5l3,1.5h1.5l-1.5-3,1.5,1.5-1.5-3v-1.5l1.5-1.5h-1.5v-1.5h-1.5l-1.5-1.5v-4.5l3,1.5h1.5l1.5,1.5h1.5v1.5h3l1.5-1.5,1.5,3h1.5l1.5,1.5,1.5-1.5,4.5-1.5v-3h1.5l1.5-1.5h3l1.5-1.5v-1.5h1.5l1.5-1.5v1.5h1.5l1.5-1.5,3-1.5,7.5-3h3v-1.5l3-1.5,3-1.5h1.5l1.5-1.5v1.5h3v1.5l1.5,1.5,3,3,3-1.5v-1.5h1.5l1.5-1.5h1.5v-1.5l1.5-1.5h1.5l3-4.5,1.5-1.5v-7.5l3-1.5h3l1.5-3-1.5-1.5v-4.5l-4.5-1.5h1.5l-9-6-1.5-1.5-1.5-3-7.5-3h-6v-6l1.5-1.5v-3h4.5l3-1.5,3-1.5v-4.5h1.5v-1.5l1.5-6h16.5l1.5-1.5,1.5-1.5,1.5-1.5v-1.5l1.5-7.5h1.5v-1.5l4.5-3v-1.5l4.5-1.5h4.5l1.5-3v-1.5l1.5-1.5v-1.5l1.5-1.5v-4.5l1.5-1.5,3-1.5,1.5,1.5h6l4.5-3v-1.5l-4.5-6-1.5-1.5v-3h-1.5v-6l1.5-4.5v-1.5h1.5v-1.5h1.5v-3l1.5-3v-1.5l3-4.5v-7.5l-3-6v-3h-4.5l-1.5-3-1.5-3-3-3v-1.5l-1.5-3v-3l-1.5-3v-1.5h-3l-1.5,3-1.5,4.5-3,1.5v1.5h-1.5l-7.5-1.5-3-1.5-4.5-1.5h-3l1.5-3H748.4l-1.5-1.5-6-3-1.5-1.5-3-1.5,1.5-12-3-4.5-3-6h1.5l3,1.5h3l1.5-4.5h3l3,1.5,1.5-1.5-9-7.5v-3l1.5-6v-1.5l-1.5-1.5-1.5-1.5,1.5-1.5h1.5l1.5-1.5,1.5-3h4.5l1.5-1.5h7.5l1.5,1.5,1.5-1.5h7.5l1.5-1.5,1.5,1.5h4.5l3,1.5v1.5h10.5l1.5-1.5h1.5l1.5,1.5,1.5-1.5v1.5h1.5l4.5,1.5h1.5l3-3V289.8l1.5-15V246.3l4.5-9-1.5-3v-1.5l3-4.5,9-15,6-10.5,3-12,1.5-7.5,1.5-1.5v-1.5l-3-13.5V147.3l-4.5-3v-6l1.5-1.5v-4.5l1.5-4.5h1.5l1.5-1.5h3l-3-1.5-1.5-1.5,1.5-1.5v-7.5l-1.5-4.5v-1.5h-1.5l-4.5-1.5h-1.5v-1.5h-6v-1.5h-6l-1.5-1.5h-1.5l-1.5-1.5-1.5-1.5V94.8l1.5-1.5-1.5-3V88.8h1.5l1.5-3V84.3l-3,1.5-1.5,1.5h-9l-3-1.5V84.3h-3l-3-1.5-3-1.5v1.5l-3-1.5-3-1.5h-1.5V78.3h1.5l-1.5-1.5-3-3h-1.5l-1.5-1.5V64.8l-1.5-1.5v-6l-1.5-3h-1.5V49.8l1.5-4.5V43.8l-4.5-4.5-3-1.5-1.5,3,1.5,1.5h-4.5V40.8l1.5,1.5V40.8l1.5-3h-1.5l-3-1.5-3,3-1.5-1.5-3-1.5h-4.5Zm37.5,43.5,1.5,1.5V78.3Zm54,30v-3l-1.5,1.5Zm-447,598.5h-3l1.5,1.5Zm-259.5-66h1.5v3h1.5v3h1.5l1.5,1.5h1.5l1.5,1.5,1.5,1.5,1.5-1.5v1.5h-1.5l3,3v3l-1.5,1.5,1.5,1.5v1.5l1.5-3h1.5l1.5-3,1.5-1.5,6-1.5h3l1.5,1.5h6v-1.5h4.5l1.5,1.5,1.5,1.5h3l1.5-3h3l1.5-1.5v-4.5h-1.5v-1.5l-1.5-1.5-1.5-3v-1.5l-1.5-1.5h-3v-1.5h-3l-3,1.5-1.5-1.5h-3l-3,1.5-1.5,1.5-3-1.5-3,1.5h-1.5l-1.5,1.5h-1.5l-1.5-1.5h-1.5l-1.5-1.5h-3v-1.5h-1.5v1.5l-4.5,1.5Zm87-79.5-1.5,1.5h1.5Zm151.5-360v-1.5h-1.5Zm33,192v1.5h1.5Zm129,3-3-1.5,1.5,1.5ZM443,376.8l2.4-1.5-3,1.5Zm30.9-217.5-4.5,4.5h-3l1.5,1.5h1.5l1.5-1.5Zm10.5-30v-1.5l-1.5,1.5ZM638.9,73.8v1.5l1.5,1.5Zm-9,9h1.5v1.5Zm-3,1.5h1.5l-1.5,1.5Zm-147,90h1.5l-1.5,1.5ZM417.8,289.5l.1.1-.9.4Zm-4.3,3-.3.3h0Zm-.3.8.1.9-2.2.3h0l-3.1,1.2,3-1.2h.1l2.2-.3v-.9Zm131.2,23.5v1.5h1.5v1.5l1.5,1.5v-1.5h1.5l1.5-1.5-1.5-1.5h-4.5Zm-123,43.5v3l-1.5,3h1.5l1.5-1.5h1.5l1.5-1.5h1.5v-1.5l-3,1.5-1.5-1.5Zm-133.5,210h1.5l-1.5,1.5Z"/><path id="path65" class="cls-2" d="M607.5,40.8v1.5L606,43.8h-1.5v-3h0l1.5-1.5h1.5Z"/><path id="path71" class="cls-2" d="M544.5,39.3h9L573,37.8l9-1.5h4.5l3,1.5H591v1.5h0v1.5H577.5l-3,1.5h0l-3,1.5H570l-6,1.5-6,1.5h-6l-4.5-1.5h-6v1.5L540,48.3l-1.5,1.5h-3L534,51.3h-1.5L531,52.8l-1.5-1.5h-3L525,49.8l-3-1.5-1.5-3V43.8l1.5-1.5,1.5-3,1.5-1.5,3-3h3l1.5,1.5H534l1.5,1.5H534l-1.5-1.5H528l-1.5,1.5H531l6,1.5Z"/><path id="path99" class="cls-2" d="M663,22.8v3h-6l-3,1.5h0l-4.5,1.5L648,30.3v1.5l-3,1.5h-6l-4.5,1.5H627l-1.5,3v1.5H624v1.5h-3v1.5h0l-1.5-3h0V37.8H621l1.5-1.5L621,34.8V30.3l1.5-1.5,3-1.5V25.8H621l1.5-1.5,3,1.5H630l15-1.5h4.5l9-1.5,3-1.5Z"/><path id="path105" class="cls-2" d="M450,108.3h0l-1.5-1.5H453v1.5h-3v-1.5h0Z"/><path id="path107" class="cls-2" d="M486,57.3h-6l-3,1.5h-1.5L474,60.3h0l-3,3-1.5,1.5h-3v1.5H465l-1.5-1.5v1.5H462l-1.5,1.5H459v1.5h0l-1.5-1.5H453l-1.5,1.5L450,70.8l-1.5-1.5L447,70.8h-1.5L444,72.3v1.5h-1.5l-3,1.5H441l-1.5,1.5H435l-1.5-3H432V72.3l1.5-1.5,3-4.5,3-4.5h0l3-1.5,3-1.5,6-1.5,9-1.5h3l9-3,7.5-3,16.5-6H501l4.5-1.5,1.5,1.5h1.5l1.5,1.5h0v4.5h0v-3l-1.5-1.5h0v1.5L507,48.3h0l-1.5,1.5H501l-3,1.5h0l-1.5-1.5h0v1.5H498l-1.5,1.5h-3V51.3H492l1.5,1.5v1.5h-3L489,52.8h0l1.5,1.5,1.5,1.5h3l-1.5,1.5H486Z"/><path id="path109" class="cls-2" d="M433.5,91.8h0L432,93.3l-1.5,1.5H426v1.5h-1.5V94.8h0l1.5-1.5,1.5-1.5h6Z"/><path id="path111" class="cls-2" d="M414,93.3v1.5l-1.5,1.5-3,1.5-9,3-3,1.5v4.5H399v-1.5h1.5l-1.5,1.5-1.5,3h0l-4.5,3-1.5,1.5H390v1.5l-1.5,1.5-3,1.5h-9l-1.5,1.5h0v1.5h-1.5v-6l9-4.5,4.5-4.5,3-1.5,3-3,1.5-1.5,6-4.5,3-1.5,1.5-1.5h0l4.5-1.5,3-1.5,3-1.5H417l4.5,1.5v1.5L420,93.3h-6Z"/><path id="path415" class="cls-2" d="M342,196.8l-3,1.5h0l-1.5,1.5H336v1.5h-1.5l-1.5-1.5h0v-4.5h4.5l4.5-1.5h3v1.5h0Z"/><path id="path417" class="cls-2" d="M375,174.3l-3,3-1.5,1.5H366l-4.5,6v1.5h0v1.5h-3l-1.5-1.5-3-1.5h-1.5l1.5,1.5,1.5,1.5h0l1.5,1.5h-1.5v1.5h-3l-1.5,1.5h-1.5l-1.5,1.5h-1.5v-4.5l-1.5-6v-4.5l1.5-4.5v-1.5h0l1.5-4.5,1.5-4.5,1.5-4.5,1.5-1.5,3-4.5,3-6,4.5-4.5h0v3l1.5-1.5h0l1.5-1.5h0l1.5-1.5H369v0h-1.5v-1.5l-1.5,1.5h0l-3,1.5h0l4.5-9,1.5-1.5,3-1.5v-1.5h3l1.5,1.5,1.5,1.5v3h0v1.5l1.5,1.5h0l1.5,1.5,3,4.5v1.5h0l-1.5,1.5v15l-1.5,3h-1.5l-1.5,1.5h0v3l-3,3Z"/><path id="path433" class="cls-2" d="M435,189.3h0l-21,18-1.5,1.5H411v-1.5h3Z"/><path id="path435" class="cls-2" d="M385.5,225.3l-3-1.5-4.5,1.5h0l6-3,1.5-1.5,3-1.5H390l3-4.5v-1.5h0l3-3h3l1.5-1.5H402l1.5,1.5H405l1.5-1.5H408l1.5,1.5h0v-1.5H411v3h0l-1.5-1.5h0v3H408v3h0l-3,3h-1.5l-3,1.5H399l-1.5,3h-9v1.5h-3Z"/><path id="path479" class="cls-1" d="M200.9,558.3l-3,1.5h3Zm0,1.5-4.5,1.5h-3l3-1.5-4.5,1.5-9,3-3,1.5h-1.5l-4.5,1.5h-1.5l-1.5,3v3l1.5,4.5v1.5h1.5v1.5h1.5l3-1.5v-1.5h-1.5v-1.5h4.5l1.5-1.5h4.5l1.5-1.5,1.5-1.5,3,1.5h3l3,1.5v1.5l1.5,1.5,1.5,3h1.5v4.5h-1.5v1.5h1.5l-1.5,1.5v1.5l1.5,3h1.5v1.5l1.5,1.5v1.5l1.5,3v3h3l1.5,1.5,1.5-1.5v1.5h9l1.5,1.5,4.5,1.5,1.5,3,1.5,1.5h4.5v1.5h3l1.5,1.5h1.5v3l3,1.5,1.5,1.5h7.5l3-1.5h4.5l4.5-1.5,3-1.5,1.5-1.5,1.5-3v-1.5h-1.5v-1.5h6l3-1.5h-1.5v-3h-1.5l-1.5,1.5H262.4l-3-4.5h-3l-1.5-1.5h-1.5l-1.5-1.5v-1.5l-3-1.5v-3h-1.5l-4.5-4.5-4.5-4.5h-1.5v-1.5h-3l-1.5-1.5h-1.5l-3-3-3-1.5h-1.5l-6-3-1.5-1.5-4.5-1.5v-1.5l-1.5-1.5h-1.5v1.5l-1.5-1.5h1.5v-3h-1.5v1.5h-1.5v-1.5l-3-1.5v-1.5Zm-28.5,21-1.5,3-1.5,1.5-3,1.5h1.5l3,1.5,1.5,1.5h1.5v-1.5l-1.5-1.5-1.5-1.5Z"/><path id="path483" class="cls-2" d="M190.5,580.8l1.5,1.5h0l-1.5-1.5h-3l-3,1.5-3,1.5H180v-1.5h0l3-1.5v-1.5l1.5-1.5,1.5-1.5v1.5h1.5l3,3Z"/><path id="path547" class="cls-2" d="M259.5,591.3l3,1.5,4.5,1.5,3,1.5h0l1.5,1.5H270l-3,1.5h-6l-1.5-1.5-1.5-1.5h-1.5l-3-3H252l-1.5-1.5h0l1.5-1.5h3Z"/><path id="path625" class="cls-1" d="M95.9,699.3v1.5h-3l-3,1.5h-3l-1.5,1.5H77.9v1.5H76.4l-1.5,1.5h-3l-1.5,1.5H68.9v1.5l1.5,1.5v6l1.5,1.5v3l-4.5,4.5-1.5,1.5,1.5,1.5,3,3h-3v1.5l1.5,1.5,1.5,1.5v1.5l-1.5,1.5,1.5,1.5h1.5l1.5,3h1.5l1.5,3,1.5-1.5,1.5,1.5v3h1.5l1.5,1.5h6l12-1.5-1.5-10.5-1.5-1.5,3-1.5,1.5,1.5h1.5v-1.5h3v-1.5h1.5l1.5,1.5,1.5,1.5,1.5-1.5-1.5-3,3-1.5,1.5,1.5,3,1.5,1.5,1.5,3,1.5h1.5v-1.5h3l3,3h1.5l1.5,1.5v1.5h4.5l1.5,1.5v-1.5l6,1.5h1.5l1.5,3h1.5v-1.5l1.5,1.5,1.5,1.5h1.5v1.5l-1.5,1.5v10.5l1.5,1.5h1.5v-1.5l1.5,1.5h10.5l3-3h3v3h-1.5l-1.5,1.5,1.5,1.5h3l3-1.5h1.5l-1.5-3,3-1.5,1.5,3h1.5v-1.5h3l1.5-1.5v-1.5h3l1.5-3h1.5l1.5-1.5,3-1.5h1.5v1.5h1.5l1.5-1.5v1.5h3l1.5-1.5h1.5l1.5-1.5,3-3,3-1.5,3-1.5,7.5-6,1.5-1.5,15-18h-1.5v-1.5h-1.5v-3l-1.5,1.5v-3l-1.5-1.5h-3l1.5-1.5h-3v1.5l-1.5,1.5v1.5l1.5,1.5h1.5v3l-1.5-1.5-1.5,1.5h1.5l-1.5,1.5h1.5v1.5l-1.5-1.5h-3l1.5,1.5v1.5l-1.5-3-1.5-1.5h-1.5l1.5,1.5,1.5,1.5h-1.5v-1.5h-1.5v-3l-1.5-1.5-1.5-1.5h-4.5v1.5h4.5l-1.5,1.5v1.5l1.5-1.5,1.5,1.5h-1.5v3h1.5v1.5h-1.5l-3-6h-1.5l-4.5-3v-1.5h-1.5v1.5l-6-1.5-1.5-1.5v-1.5l-1.5-1.5v-1.5l-1.5-1.5,1.5-1.5h-1.5l-1.5-1.5v-1.5h-4.5l-1.5-1.5h-3l-1.5,3v1.5h-1.5v7.5l-1.5,1.5v-1.5l-1.5,1.5h-1.5l-4.5,1.5-3,1.5-1.5,1.5h-1.5v1.5h-3v1.5l-1.5,1.5h-6l-1.5-1.5h-1.5v1.5l-1.5-1.5v3l-1.5-3v-1.5h-3v-1.5h-4.5v4.5l-3-1.5v-1.5l1.5-1.5h-9v-1.5l-1.5-1.5-1.5-1.5h-1.5v-1.5l-1.5-1.5h-4.5l-3-1.5h-1.5l-4.5-1.5h-1.5v-1.5h-1.5l-3-1.5h-1.5l-1.5-1.5-1.5-1.5h-1.5l-1.5-1.5h-1.5v-1.5h-9Zm136.5,21-1.5-1.5-1.5,1.5Zm-1.5-1.5h4.5l-1.5-1.5h-1.5v-1.5h-1.5v-1.5h-3v3l1.5,1.5Zm3-4.5,1.5,1.5h-1.5Zm3,0h1.5l-1.5,1.5Zm-10.5,10.5h1.5v1.5h-1.5Z"/><path id="path651" class="cls-2" d="M435,189.3l6-6,1.5-1.5,16.5-15h1.5l4.5-1.5h1.5v0l1.5,1.5-1.5-1.5H465l-3,1.5h-3l-13.5,13.5-1.5,1.5h-1.5l-1.5,1.5-6,6Z"/><path id="path659" class="cls-2" d="M135,655.8h0l-1.5-1.5v-1.5H135l1.5,1.5v1.5l-1.5,1.5h0Z"/><path id="path661" class="cls-2" d="M142.5,621.3h0l-1.5,1.5v4.5h0l1.5,1.5,1.5-1.5-1.5-1.5h0l1.5,1.5-1.5,1.5h0l-3-1.5v3h0l-1.5-1.5h0l-1.5,1.5H138v1.5h-1.5v-1.5l-1.5,1.5h0v4.5h-1.5l1.5-3v-1.5l-1.5-1.5h0l1.5-3,3-1.5v-1.5h0v-1.5h0v1.5h3v-1.5l1.5-1.5Z"/><path id="path861" class="cls-2" d="M457.5,288.3h3l10.5,4.5,1.5,1.5,7.5,7.5,3,4.5v1.5l7.5,12,3,7.5v1.5H492l-1.5,1.5-3,1.5-1.5,6-1.5,3H486l-1.5,3v-3h0l1.5-3,1.5-6,1.5-1.5,3-1.5h1.5v-1.5l-3-7.5-10.5-18-7.5-7.5-1.5-1.5-9-4.5-1.5,3h-3l1.5-1.5,1.5-1.5h-3Z"/><path id="path869" class="cls-2" d="M663,22.8h3v1.5h0l-3,1.5Z"/><path id="path871" class="cls-2" d="M690,9.3v1.5h0l1.5,1.5,1.5,1.5,1.5,1.5L693,13.8h-6v3h1.5l-1.5,3-1.5-1.5L684,13.8l-1.5-1.5V10.8l1.5-3h4.5L690,9.3Z"/><path id="path873" class="cls-2" d="M705,10.8h6l3,1.5v0h-9l-1.5,1.5h0V12.3l1.5-1.5Z"/><path id="path907" class="cls-2" d="M181.5,594.3h0v-1.5H183l3,1.5h-4.5Z"/><path id="path909" class="cls-2" d="M237,627.3v-1.5l-1.5-1.5-1.5-1.5v1.5h-1.5l-3-3,1.5-1.5h-1.5v1.5h-3v-1.5h6v1.5h3v1.5l1.5,1.5v3Z"/><path id="path911" class="cls-2" d="M195,588.3h1.5l1.5-1.5h0v3l1.5,4.5,3,3h0l-1.5,1.5h-1.5v-1.5l-1.5-1.5v-1.5l-1.5-3-1.5-1.5h0Z"/><path id="path913" class="cls-2" d="M190.5,591.3l-1.5,1.5h-3v-1.5h4.5Z"/><path id="path915" class="cls-2" d="M186,627.3l-1.5,1.5h-3l-3-1.5H177l3-1.5v0l-3,1.5h-1.5l1.5-3-1.5-1.5v-3H174v-3l-1.5-3-3-1.5-1.5,1.5v-1.5l-4.5-1.5h0v-1.5h0v-1.5l-1.5-1.5h-4.5l-1.5,1.5v1.5h1.5l1.5-1.5,1.5,1.5-1.5-1.5-1.5,1.5h-3l-1.5,3-3,1.5h-3l-3,1.5-1.5,1.5v3H144v1.5h-1.5l-1.5-1.5h1.5v-3h0l-1.5-1.5h-3v-1.5l-1.5-1.5-1.5-3v-7.5l1.5-3,3-3,3-1.5h3l6-1.5,1.5-1.5h6l4.5,1.5v-1.5h0v-1.5l1.5-1.5v-1.5h3l-1.5,1.5H168l-1.5,1.5h0v-1.5H165v1.5l-1.5,3H174l3-1.5h0l1.5,1.5h0l1.5,1.5v1.5h4.5l3-1.5,1.5,1.5h4.5v1.5h0v-1.5l1.5,1.5v3h0l1.5,1.5,3,3,1.5,3v3h6l3,1.5h0l4.5,3H216v1.5h1.5l3-3H228l1.5-1.5H231v4.5h1.5l-1.5,1.5h-1.5l1.5-1.5h0l-1.5-1.5v-1.5H228v1.5l-1.5-1.5-4.5,1.5h-1.5l-1.5,1.5h-1.5v1.5l1.5,1.5h0v1.5h0l-1.5,1.5H219v-1.5l-1.5,1.5v1.5H216l-1.5,1.5-1.5,3h-1.5l-1.5,1.5-1.5-1.5-3,1.5-1.5,1.5h-3v1.5H190.5l-3-3h0l-1.5-3Z"/><path id="path929" class="cls-2" d="M171,657.3v-1.5h0v1.5Z"/><path id="path949" class="cls-2" d="M280.5,607.8l-1.5,1.5h0v1.5l-1.5-1.5h0Z"/><rect class="cls-3" x="442.6" y="429.7" width="101.9" height="90.8"/><text class="cls-4" transform="translate(442.56 481.2)">N<tspan class="cls-5" x="52" y="0">L</tspan></text></svg>