<svg id="Layer_1" data-name="Layer 1" xmlns="http://www.w3.org/2000/svg" viewBox="0 0 560 560"><defs><style>.cls-1,.cls-2,.cls-3,.cls-4,.cls-6,.cls-7,.cls-9{isolation:isolate;}.cls-1{font-size:60px;}.cls-1,.cls-3,.cls-4,.cls-6,.cls-7,.cls-8,.cls-9{fill:#fff;}.cls-1,.cls-6,.cls-9{font-family:Arial-BoldMT, Arial;font-weight:700;}.cls-3,.cls-4{font-size:18px;}.cls-3,.cls-4,.cls-7{font-family:ArialMT, Arial;}.cls-3{letter-spacing:-0.07em;}.cls-5{fill:none;stroke:#fff;stroke-linecap:round;stroke-miterlimit:10;stroke-width:2px;}.cls-6{font-size:36px;}.cls-7{font-size:33px;}.cls-9{font-size:48px;}</style></defs><title>NLData</title><text class="cls-1" transform="translate(221.93 85.5)">36%</text><g class="cls-2"><text class="cls-3" transform="translate(117.58 112.67)">V</text><text class="cls-4" transform="translate(128.25 112.67)"><tspan xml:space="preserve">an het totaal aantal .nl domeinen zal  </tspan></text><text class="cls-4" transform="translate(183.82 134.27)">onbereikbaar worden.</text></g><line class="cls-5" x1="101.49" y1="152.29" x2="450.88" y2="152.29"/><text class="cls-6" transform="translate(102.66 198.65)">16%</text><text class="cls-7" transform="translate(112.9 236.29)">DE</text><text class="cls-6" transform="translate(200.6 198.79)">12%</text><text class="cls-7" transform="translate(214.06 236.42)">VS</text><text class="cls-6" transform="translate(301.91 196.65)">4%</text><text class="cls-7" transform="translate(304.67 234.29)">BE</text><text class="cls-6" transform="translate(387.67 197.52)">4%</text><text class="cls-7" transform="translate(391.67 235.15)">DK</text><line class="cls-5" x1="191.12" y1="170.31" x2="191.12" y2="236.42"/><line class="cls-5" x1="279.21" y1="170.31" x2="279.21" y2="236.42"/><line class="cls-5" x1="368.8" y1="170.31" x2="368.8" y2="236.42"/><path class="cls-8" d="M100.64,270.75V257.87h4.43a11.1,11.1,0,0,1,2.3.18,4.31,4.31,0,0,1,1.89.93,5.11,5.11,0,0,1,1.52,2.2,8.41,8.41,0,0,1,.51,3.06,9.15,9.15,0,0,1-.34,2.6,6.59,6.59,0,0,1-.88,1.88,4.69,4.69,0,0,1-1.18,1.17,4.78,4.78,0,0,1-1.53.64,8.47,8.47,0,0,1-2.07.22Zm1.7-1.52h2.75a7.11,7.11,0,0,0,2-.23,2.94,2.94,0,0,0,1.16-.67,4,4,0,0,0,.94-1.63,7.8,7.8,0,0,0,.34-2.49,6.08,6.08,0,0,0-.66-3.1,3.34,3.34,0,0,0-1.62-1.46,6.81,6.81,0,0,0-2.2-.26h-2.71Z"/><path class="cls-8" d="M119.82,267.75l1.64.2a4,4,0,0,1-1.44,2.22,4.83,4.83,0,0,1-5.91-.47,4.9,4.9,0,0,1-1.2-3.53,5.19,5.19,0,0,1,1.21-3.66,4.11,4.11,0,0,1,3.15-1.3,4,4,0,0,1,3,1.27,5.09,5.09,0,0,1,1.19,3.59v.42h-7a3.64,3.64,0,0,0,.87,2.36,2.6,2.6,0,0,0,2,.81,2.41,2.41,0,0,0,1.49-.45A3,3,0,0,0,119.82,267.75Zm-5.19-2.56h5.21a3.22,3.22,0,0,0-.6-1.77,2.39,2.39,0,0,0-2-.91,2.52,2.52,0,0,0-1.83.73A2.94,2.94,0,0,0,114.63,265.19Z"/><path class="cls-8" d="M134.83,267.75l1.64.2a4,4,0,0,1-1.43,2.22,4.33,4.33,0,0,1-2.68.79,4.26,4.26,0,0,1-3.24-1.26,4.9,4.9,0,0,1-1.2-3.53,5.19,5.19,0,0,1,1.21-3.66,4.11,4.11,0,0,1,3.15-1.3,4,4,0,0,1,3.06,1.27,5.1,5.1,0,0,1,1.18,3.59v.42h-7a3.64,3.64,0,0,0,.87,2.36,2.6,2.6,0,0,0,2,.81,2.41,2.41,0,0,0,1.49-.45A3.05,3.05,0,0,0,134.83,267.75Zm-5.19-2.56h5.21a3.22,3.22,0,0,0-.6-1.77,2.39,2.39,0,0,0-2-.91,2.52,2.52,0,0,0-1.83.73A2.94,2.94,0,0,0,129.64,265.19Z"/><path class="cls-8" d="M144.55,267.33l1.55.21a4,4,0,0,1-1.3,2.51,3.81,3.81,0,0,1-2.58.91,4,4,0,0,1-3.08-1.25,5,5,0,0,1-1.17-3.59,6.46,6.46,0,0,1,.5-2.64,3.47,3.47,0,0,1,1.53-1.7,4.46,4.46,0,0,1,2.23-.57,3.82,3.82,0,0,1,2.48.77,3.48,3.48,0,0,1,1.24,2.18l-1.54.24a2.62,2.62,0,0,0-.77-1.42,2.08,2.08,0,0,0-1.35-.47,2.42,2.42,0,0,0-1.94.86,4,4,0,0,0-.75,2.71,4.19,4.19,0,0,0,.72,2.73,2.35,2.35,0,0,0,1.88.85,2.25,2.25,0,0,0,1.56-.57A2.85,2.85,0,0,0,144.55,267.33Z"/><path class="cls-8" d="M146.87,266.09a4.8,4.8,0,0,1,1.44-3.84,4.29,4.29,0,0,1,2.93-1,4.18,4.18,0,0,1,3.15,1.26,4.82,4.82,0,0,1,1.22,3.48,6.16,6.16,0,0,1-.54,2.84,3.79,3.79,0,0,1-1.57,1.6,4.57,4.57,0,0,1-2.26.57,4.17,4.17,0,0,1-3.16-1.25A5,5,0,0,1,146.87,266.09Zm1.62,0a4,4,0,0,0,.78,2.68A2.6,2.6,0,0,0,153,269a3,3,0,0,0,.25-.25A4,4,0,0,0,154,266a3.92,3.92,0,0,0-.79-2.62,2.55,2.55,0,0,0-2-.89,2.48,2.48,0,0,0-2,.89,4,4,0,0,0-.72,2.71Z"/><path class="cls-8" d="M157.47,270.75v-9.33h1.42v1.33a3.38,3.38,0,0,1,3-1.54,3.93,3.93,0,0,1,1.55.3,2.4,2.4,0,0,1,1.06.8,2.81,2.81,0,0,1,.49,1.17,9.82,9.82,0,0,1,.09,1.53v5.74H163.5v-5.67a4.2,4.2,0,0,0-.19-1.45,1.47,1.47,0,0,0-.65-.76,2,2,0,0,0-1.1-.29,2.51,2.51,0,0,0-1.75.64,3.18,3.18,0,0,0-.73,2.44v5.09Z"/><path class="cls-8" d="M166.89,266.09a4.8,4.8,0,0,1,1.44-3.84,4.31,4.31,0,0,1,2.94-1,4.19,4.19,0,0,1,3.14,1.26,4.74,4.74,0,0,1,1.22,3.48,6.16,6.16,0,0,1-.54,2.84,3.79,3.79,0,0,1-1.57,1.6,4.54,4.54,0,0,1-2.25.57,4.17,4.17,0,0,1-3.17-1.25A5,5,0,0,1,166.89,266.09Zm1.62,0a4,4,0,0,0,.79,2.68,2.48,2.48,0,0,0,2,.89,2.55,2.55,0,0,0,2-.89A4.07,4.07,0,0,0,174,266a3.81,3.81,0,0,0-.79-2.62,2.51,2.51,0,0,0-2-.89,2.48,2.48,0,0,0-2,.89A3.87,3.87,0,0,0,168.51,266.09Z"/><path class="cls-8" d="M177.49,270.75v-9.33h1.41v1.31a3.31,3.31,0,0,1,2.83-1.52,3,3,0,0,1,1.7.43,2.29,2.29,0,0,1,.94,1.2,3.37,3.37,0,0,1,2.88-1.63,2.78,2.78,0,0,1,2.14.77,3.28,3.28,0,0,1,.75,2.37v6.4h-1.58v-5.88a4.44,4.44,0,0,0-.15-1.36,1.33,1.33,0,0,0-.56-.68,1.78,1.78,0,0,0-.95-.25,2.21,2.21,0,0,0-1.63.65,2.86,2.86,0,0,0-.65,2.1v5.42H183v-6.06a2.75,2.75,0,0,0-.38-1.58,1.51,1.51,0,0,0-1.27-.53,2.34,2.34,0,0,0-1.23.35,2,2,0,0,0-.83,1,5.88,5.88,0,0,0-.25,2v4.84Z"/><path class="cls-8" d="M192.49,259.69v-1.82h1.58v1.82Zm0,11.06v-9.33h1.58v9.33Z"/><path class="cls-8" d="M195.85,268l1.56-.25a2.18,2.18,0,0,0,.74,1.44,2.53,2.53,0,0,0,1.68.5,2.46,2.46,0,0,0,1.62-.44,1.36,1.36,0,0,0,.52-1,1,1,0,0,0-.46-.85,7.15,7.15,0,0,0-1.62-.53,14.65,14.65,0,0,1-2.41-.76,2.33,2.33,0,0,1-1-.89,2.41,2.41,0,0,1-.35-1.25,2.49,2.49,0,0,1,.29-1.16,2.53,2.53,0,0,1,.78-.88,3,3,0,0,1,1-.46,4.87,4.87,0,0,1,1.37-.19,5.5,5.5,0,0,1,1.93.31,2.7,2.7,0,0,1,1.22.86,3.18,3.18,0,0,1,.55,1.45l-1.55.21a1.72,1.72,0,0,0-.61-1.13,2.27,2.27,0,0,0-1.43-.4,2.57,2.57,0,0,0-1.55.36,1.06,1.06,0,0,0-.47.84,1,1,0,0,0,.19.56,1.37,1.37,0,0,0,.61.42c.16.06.62.19,1.4.4a19.25,19.25,0,0,1,2.34.74,2.23,2.23,0,0,1,1.4,2.1,2.65,2.65,0,0,1-.46,1.49,3,3,0,0,1-1.33,1.08,4.72,4.72,0,0,1-2,.38,4.39,4.39,0,0,1-2.77-.75A3.49,3.49,0,0,1,195.85,268Z"/><path class="cls-8" d="M211.57,267.33l1.56.21a4,4,0,0,1-1.31,2.51,3.81,3.81,0,0,1-2.58.91,4,4,0,0,1-3.08-1.25,5.08,5.08,0,0,1-1.16-3.59,6.43,6.43,0,0,1,.5-2.64,3.45,3.45,0,0,1,1.52-1.7,4.57,4.57,0,0,1,2.23-.57,3.84,3.84,0,0,1,2.49.77,3.51,3.51,0,0,1,1.24,2.18l-1.54.24a2.64,2.64,0,0,0-.78-1.42,2,2,0,0,0-1.35-.47,2.45,2.45,0,0,0-1.94.86,4,4,0,0,0-.75,2.71,4.19,4.19,0,0,0,.72,2.73,2.36,2.36,0,0,0,1.89.85,2.21,2.21,0,0,0,1.55-.57A2.83,2.83,0,0,0,211.57,267.33Z"/><path class="cls-8" d="M214.48,270.75V257.87h1.58v4.62a3.55,3.55,0,0,1,2.8-1.28,3.63,3.63,0,0,1,1.8.41,2.39,2.39,0,0,1,1.09,1.13,5.15,5.15,0,0,1,.33,2.09v5.91H220.5v-5.91a2.5,2.5,0,0,0-.51-1.73,1.93,1.93,0,0,0-1.46-.54,2.55,2.55,0,0,0-1.32.37,2,2,0,0,0-.88,1,4.61,4.61,0,0,0-.27,1.73v5.1Z"/><path class="cls-8" d="M230.88,267.75l1.64.2a4,4,0,0,1-1.44,2.22,4.45,4.45,0,0,1-7.12-4,5.2,5.2,0,0,1,1.22-3.66,4.09,4.09,0,0,1,3.14-1.3,4,4,0,0,1,3.06,1.27,5.09,5.09,0,0,1,1.19,3.59v.42h-7a3.64,3.64,0,0,0,.87,2.36,2.6,2.6,0,0,0,1.95.81,2.41,2.41,0,0,0,1.49-.45A3,3,0,0,0,230.88,267.75Zm-5.19-2.56h5.21a3.22,3.22,0,0,0-.6-1.77,2.42,2.42,0,0,0-2-.91,2.46,2.46,0,0,0-1.83.73A2.83,2.83,0,0,0,225.69,265.19Z"/><path class="cls-8" d="M239.21,271.53l1.54.23a1.47,1.47,0,0,0,.54,1,2.56,2.56,0,0,0,1.61.44,2.72,2.72,0,0,0,1.69-.44,2.15,2.15,0,0,0,.81-1.23,11.14,11.14,0,0,0,.12-2,3.28,3.28,0,0,1-2.59,1.22,3.52,3.52,0,0,1-3-1.39,5.3,5.3,0,0,1-1-3.33,6.13,6.13,0,0,1,.48-2.46,3.82,3.82,0,0,1,1.4-1.75,3.75,3.75,0,0,1,2.16-.61,3.33,3.33,0,0,1,2.72,1.33v-1.12h1.46v8.07a7.56,7.56,0,0,1-.44,3.09A3.3,3.3,0,0,1,245.3,274a4.76,4.76,0,0,1-2.37.53,4.43,4.43,0,0,1-2.69-.75A2.55,2.55,0,0,1,239.21,271.53Zm1.31-5.61a4.06,4.06,0,0,0,.73,2.68,2.41,2.41,0,0,0,3.4.26l.26-.26a4.9,4.9,0,0,0,0-5.21,2.38,2.38,0,0,0-1.84-.87,2.26,2.26,0,0,0-1.79.86A3.79,3.79,0,0,0,240.52,265.92Z"/><path class="cls-8" d="M255.9,267.75l1.64.2a4,4,0,0,1-1.43,2.22,4.33,4.33,0,0,1-2.68.79,4.26,4.26,0,0,1-3.24-1.26,4.9,4.9,0,0,1-1.2-3.53,5.19,5.19,0,0,1,1.21-3.66,4.11,4.11,0,0,1,3.15-1.3,4,4,0,0,1,3,1.27,5,5,0,0,1,1.19,3.59v.42h-7a3.64,3.64,0,0,0,.87,2.36,2.6,2.6,0,0,0,2,.81,2.41,2.41,0,0,0,1.49-.45A3,3,0,0,0,255.9,267.75Zm-5.19-2.56h5.21a3.22,3.22,0,0,0-.6-1.77,2.39,2.39,0,0,0-2-.91,2.52,2.52,0,0,0-1.83.73,2.94,2.94,0,0,0-.78,1.95Z"/><path class="cls-8" d="M262.12,270.75l-3.55-9.33h1.67l2,5.59c.22.6.42,1.23.6,1.88.14-.49.34-1.08.59-1.78l2.07-5.69h1.63l-3.54,9.33Z"/><path class="cls-8" d="M267.94,266.09a4.8,4.8,0,0,1,1.44-3.84,4.29,4.29,0,0,1,2.93-1,4.18,4.18,0,0,1,3.15,1.26,4.82,4.82,0,0,1,1.22,3.48,6.16,6.16,0,0,1-.54,2.84,3.79,3.79,0,0,1-1.57,1.6,4.57,4.57,0,0,1-2.26.57,4.17,4.17,0,0,1-3.17-1.25A5,5,0,0,1,267.94,266.09Zm1.62,0a4,4,0,0,0,.78,2.68A2.6,2.6,0,0,0,274,269a3,3,0,0,0,.25-.25,4.13,4.13,0,0,0,.79-2.74,3.92,3.92,0,0,0-.79-2.62,2.55,2.55,0,0,0-2-.89,2.48,2.48,0,0,0-2,.89A4,4,0,0,0,269.56,266.09Z"/><path class="cls-8" d="M278.5,270.75V257.87h1.58v12.88Z"/><path class="cls-8" d="M282.24,271.53l1.54.23a1.47,1.47,0,0,0,.54,1,2.56,2.56,0,0,0,1.61.44,2.72,2.72,0,0,0,1.69-.44,2.15,2.15,0,0,0,.81-1.23,11.14,11.14,0,0,0,.12-2,3.28,3.28,0,0,1-2.59,1.22,3.54,3.54,0,0,1-3-1.39,5.37,5.37,0,0,1-1-3.33,6.13,6.13,0,0,1,.48-2.46,3.82,3.82,0,0,1,1.4-1.75,3.75,3.75,0,0,1,2.16-.61,3.36,3.36,0,0,1,2.73,1.33v-1.12h1.45v8.07a7.56,7.56,0,0,1-.44,3.09A3.23,3.23,0,0,1,288.3,274a4.72,4.72,0,0,1-2.36.53,4.46,4.46,0,0,1-2.7-.75A2.53,2.53,0,0,1,282.24,271.53Zm1.31-5.61a4.06,4.06,0,0,0,.73,2.68,2.41,2.41,0,0,0,3.4.26l.26-.26a4.9,4.9,0,0,0,0-5.21,2.38,2.38,0,0,0-1.84-.87,2.26,2.26,0,0,0-1.79.86A3.79,3.79,0,0,0,283.55,265.92Z"/><path class="cls-8" d="M298.93,267.75l1.64.2a4,4,0,0,1-1.43,2.22,4.33,4.33,0,0,1-2.68.79,4.26,4.26,0,0,1-3.24-1.26,4.9,4.9,0,0,1-1.2-3.53,5.19,5.19,0,0,1,1.21-3.66,4.11,4.11,0,0,1,3.15-1.3,4,4,0,0,1,3.06,1.27,5.1,5.1,0,0,1,1.18,3.59v.42h-7a3.64,3.64,0,0,0,.87,2.36,2.6,2.6,0,0,0,2,.81,2.41,2.41,0,0,0,1.49-.45A3.05,3.05,0,0,0,298.93,267.75Zm-5.19-2.56H299a3.22,3.22,0,0,0-.6-1.77,2.39,2.39,0,0,0-2-.91,2.52,2.52,0,0,0-1.83.73A2.91,2.91,0,0,0,293.74,265.19Z"/><path class="cls-8" d="M302.56,270.75v-9.33H304v1.33a3.38,3.38,0,0,1,3-1.54,3.93,3.93,0,0,1,1.55.3,2.4,2.4,0,0,1,1.06.8,3.1,3.1,0,0,1,.49,1.17,9.82,9.82,0,0,1,.09,1.53v5.74h-1.58v-5.67a4.2,4.2,0,0,0-.19-1.45,1.47,1.47,0,0,0-.65-.76,2,2,0,0,0-1.1-.29,2.51,2.51,0,0,0-1.75.64,3.18,3.18,0,0,0-.73,2.44v5.09Z"/><path class="cls-8" d="M316.73,270.75v-1.28l5.94-6.82c-.67,0-1.26.05-1.78.05h-3.81v-1.28h7.63v1.05l-5,5.92-1,1.08c.71-.05,1.38-.08,2-.08H325v1.36Z"/><path class="cls-8" d="M326.58,259.69v-1.82h1.58v1.82Zm0,11.06v-9.33h1.58v9.33Z"/><path class="cls-8" d="M328.55,274.37l.3-1.34a3.17,3.17,0,0,0,.75.12.83.83,0,0,0,.72-.32,3.23,3.23,0,0,0,.24-1.6v-9.81h1.58v9.84a4.61,4.61,0,0,1-.45,2.4,2.09,2.09,0,0,1-1.9.88A4.32,4.32,0,0,1,328.55,274.37Zm2-14.66v-1.84h1.58v1.84Z"/><path class="cls-8" d="M334.57,270.75v-9.33H336v1.33a3.35,3.35,0,0,1,3-1.54,3.93,3.93,0,0,1,1.55.3,2.4,2.4,0,0,1,1.06.8,3.1,3.1,0,0,1,.49,1.17,9.82,9.82,0,0,1,.09,1.53v5.74h-1.58v-5.67a4.2,4.2,0,0,0-.19-1.45,1.47,1.47,0,0,0-.65-.76,2,2,0,0,0-1.1-.29,2.51,2.51,0,0,0-1.75.64,3.18,3.18,0,0,0-.73,2.44v5.09Z"/><path class="cls-8" d="M349.58,270.75v-9.33H351v1.33a3.38,3.38,0,0,1,3-1.54,3.93,3.93,0,0,1,1.55.3,2.4,2.4,0,0,1,1.06.8,2.81,2.81,0,0,1,.49,1.17,9.82,9.82,0,0,1,.09,1.53v5.74h-1.58v-5.67a4.44,4.44,0,0,0-.18-1.45,1.53,1.53,0,0,0-.66-.76,2,2,0,0,0-1.1-.29,2.51,2.51,0,0,0-1.75.64,3.18,3.18,0,0,0-.73,2.44v5.09Z"/><path class="cls-8" d="M359.6,259.69v-1.82h1.58v1.82Zm0,11.06v-9.33h1.58v9.33Z"/><path class="cls-8" d="M370,267.75l1.63.2a4,4,0,0,1-1.43,2.22,4.45,4.45,0,0,1-7.12-4,5.19,5.19,0,0,1,1.21-3.66,4.11,4.11,0,0,1,3.15-1.3,4,4,0,0,1,3.06,1.27,5.1,5.1,0,0,1,1.18,3.59v.42h-7a3.64,3.64,0,0,0,.87,2.36,2.64,2.64,0,0,0,2,.81,2.38,2.38,0,0,0,1.48-.45A3,3,0,0,0,370,267.75Zm-5.2-2.56H370a3.21,3.21,0,0,0-.59-1.77,2.45,2.45,0,0,0-2-.91,2.53,2.53,0,0,0-1.84.73,2.89,2.89,0,0,0-.79,1.95Z"/><path class="cls-8" d="M377.05,269.34l.23,1.4a6.05,6.05,0,0,1-1.2.14,2.56,2.56,0,0,1-1.33-.28,1.54,1.54,0,0,1-.67-.71,5.62,5.62,0,0,1-.19-1.87v-5.37h-1.16v-1.23h1.16v-2.31l1.57-.95v3.26h1.59v1.23h-1.59v5.46a2.83,2.83,0,0,0,.08.87.7.7,0,0,0,.28.31,1.12,1.12,0,0,0,.54.11Q376.7,269.39,377.05,269.34Z"/><path class="cls-8" d="M387.05,269.34l.23,1.4a6,6,0,0,1-1.19.14,2.59,2.59,0,0,1-1.34-.28,1.54,1.54,0,0,1-.67-.71,5.62,5.62,0,0,1-.19-1.87v-5.37h-1.16v-1.23h1.16v-2.31l1.57-.95v3.26h1.59v1.23h-1.59v5.46a2.56,2.56,0,0,0,.09.87.63.63,0,0,0,.27.31,1.12,1.12,0,0,0,.54.11A4,4,0,0,0,387.05,269.34Z"/><path class="cls-8" d="M395,267.75l1.63.2a3.89,3.89,0,0,1-1.43,2.22,4.45,4.45,0,0,1-7.12-4,5.2,5.2,0,0,1,1.22-3.66,4.05,4.05,0,0,1,3.14-1.3,4,4,0,0,1,3.06,1.27,5.09,5.09,0,0,1,1.19,3.59v.42h-7a3.64,3.64,0,0,0,.87,2.36,2.6,2.6,0,0,0,1.95.81,2.38,2.38,0,0,0,1.48-.45A3,3,0,0,0,395,267.75Zm-5.19-2.56H395a3.22,3.22,0,0,0-.6-1.77,2.42,2.42,0,0,0-2-.91,2.46,2.46,0,0,0-1.83.73,2.89,2.89,0,0,0-.77,1.95Z"/><path class="cls-8" d="M403,266.09a4.8,4.8,0,0,1,1.44-3.84,4.36,4.36,0,0,1,2.94-1,4.23,4.23,0,0,1,3.15,1.26,4.82,4.82,0,0,1,1.22,3.48,6.16,6.16,0,0,1-.54,2.84,3.75,3.75,0,0,1-1.58,1.6,4.54,4.54,0,0,1-2.25.57,4.17,4.17,0,0,1-3.17-1.25A5,5,0,0,1,403,266.09Zm1.63,0a4,4,0,0,0,.78,2.68,2.6,2.6,0,0,0,3.68.25,3,3,0,0,0,.25-.25,4.07,4.07,0,0,0,.78-2.74,3.86,3.86,0,0,0-.78-2.62,2.55,2.55,0,0,0-2-.89,2.48,2.48,0,0,0-2,.89,4,4,0,0,0-.69,2.68Z"/><path class="cls-8" d="M416.22,270.75l-3.55-9.33h1.66l2,5.59c.22.6.41,1.23.6,1.88.14-.49.33-1.08.59-1.78l2.07-5.69h1.63l-3.54,9.33Z"/><path class="cls-8" d="M429,267.75l1.64.2a4,4,0,0,1-1.44,2.22,4.83,4.83,0,0,1-5.91-.47,4.9,4.9,0,0,1-1.2-3.53,5.19,5.19,0,0,1,1.21-3.66,4.11,4.11,0,0,1,3.15-1.3,4,4,0,0,1,3.05,1.27,5.09,5.09,0,0,1,1.19,3.59v.42h-7a3.64,3.64,0,0,0,.87,2.36,2.6,2.6,0,0,0,1.95.81,2.41,2.41,0,0,0,1.49-.45A3,3,0,0,0,429,267.75Zm-5.19-2.56H429a3.22,3.22,0,0,0-.6-1.77,2.39,2.39,0,0,0-2-.91,2.5,2.5,0,0,0-1.83.73,2.87,2.87,0,0,0-.75,1.95Z"/><path class="cls-8" d="M432.62,270.75v-9.33H434v1.41a4,4,0,0,1,1-1.31,1.77,1.77,0,0,1,1-.31,3,3,0,0,1,1.63.51l-.55,1.47a2.28,2.28,0,0,0-1.16-.35,1.5,1.5,0,0,0-.93.32,1.72,1.72,0,0,0-.59.86,6.41,6.41,0,0,0-.26,1.85v4.88Z"/><path class="cls-8" d="M438,266.89V265.3h4.86v1.59Z"/><path class="cls-8" d="M252.68,292.35v-1.28l5.94-6.82c-.67,0-1.26.05-1.78.05H253V283h7.63v1.05l-5,5.95-1,1.08c.71-.05,1.38-.08,2-.08h4.31v1.36Z"/><path class="cls-8" d="M262.53,281.29v-1.82h1.58v1.82Zm0,11.06V283h1.58v9.33Z"/><path class="cls-8" d="M272.91,289.35l1.63.2a4,4,0,0,1-1.43,2.22,4.45,4.45,0,0,1-7.12-4,5.19,5.19,0,0,1,1.21-3.66,4.11,4.11,0,0,1,3.15-1.3,4,4,0,0,1,3.06,1.27,5.1,5.1,0,0,1,1.18,3.59v.42h-7a3.64,3.64,0,0,0,.87,2.36,2.64,2.64,0,0,0,2,.81,2.38,2.38,0,0,0,1.48-.45A3,3,0,0,0,272.91,289.35Zm-5.2-2.56h5.21a3.21,3.21,0,0,0-.59-1.77,2.45,2.45,0,0,0-2-.91,2.53,2.53,0,0,0-1.84.73A2.94,2.94,0,0,0,267.71,286.79Z"/><path class="cls-8" d="M276.53,292.35V283H278v1.33a3.38,3.38,0,0,1,3-1.54,3.93,3.93,0,0,1,1.55.3,2.4,2.4,0,0,1,1.06.8,2.81,2.81,0,0,1,.49,1.17,9.82,9.82,0,0,1,.09,1.53v5.74h-1.58v-5.67a4.2,4.2,0,0,0-.19-1.45,1.47,1.47,0,0,0-.65-.76,2,2,0,0,0-1.1-.29,2.51,2.51,0,0,0-1.75.64,3.18,3.18,0,0,0-.73,2.44v5.09Z"/><path class="cls-8" d="M287,292.35v-1.8h1.8v1.8Z"/><text class="cls-9" transform="translate(99.03 343.37)">€17.000.000.000</text><g class="cls-2"><text class="cls-4" transform="translate(102.16 377.63)">De economie stort in door het mislopen van </text><text class="cls-4" transform="translate(163.18 399.23)">een gigantische geldstroom.</text></g><line class="cls-5" x1="106.24" y1="418.76" x2="455.63" y2="418.76"/><text class="cls-6" transform="translate(108.41 460.78)">9 mj</text><text class="cls-7" transform="translate(118.65 498.42)">DE</text><text class="cls-6" transform="translate(206.35 460.92)">6 mj</text><text class="cls-7" transform="translate(219.81 498.55)">VS</text><text class="cls-6" transform="translate(294.66 458.78)">1 mj</text><text class="cls-7" transform="translate(310.42 496.42)">BE</text><text class="cls-6" transform="translate(385.01 459.65)">1 mj</text><text class="cls-7" transform="translate(397.42 497.28)">DK</text><line class="cls-5" x1="196.87" y1="432.44" x2="196.87" y2="498.55"/><line class="cls-5" x1="284.96" y1="432.44" x2="284.96" y2="498.55"/><line class="cls-5" x1="374.55" y1="432.44" x2="374.55" y2="498.55"/></svg>