<svg id="svg2116" xmlns="http://www.w3.org/2000/svg" viewBox="0 0 675 932.7"><defs><style>.cls-1{opacity:0.15;}.cls-2{fill:#b100ff;}.cls-3,.cls-4{isolation:isolate;fill:#fff;font-family:ArialMT, Arial;}.cls-3{font-size:48px;}.cls-4{font-size:36px;}</style></defs><title>UK2</title><g id="layer5" class="cls-1"><path id="path2408" class="cls-2" d="M366,392.3c6.5-.6-4.8,4,.8,3-.8,5.8-9.5-3.2-12.3,3,2.9,1.3,1.1,5.3-2.1,2.7-2.2-.6-6.3,7.2-5.6,10.7-6.5,5.3-5.8,14-9.3,20.4,1.6,7,12.2,12.8,11,21.1,1.2,3.4,6.8,10.4,8.2,4.8,1.5-9.3,2.8,3.9-.1,4.5-.5,3.5,1.1,5.4,3.7,7.5.6.8,3.6-3.8,5-6.7,1.3-6.2,2.4-.5,5.3.1,1-1.7,8.5-6.2,5.4-2.8,4.1,5.3.8,8.3-3,12.1-.1,4.5,3.8,2.3,2.4,5.9,1.7,2.5-5,2.6-8.4,3.3-3.2,7.3-2.7,21.4,8.9,16-3.2,2.8-10.7,7.8-12.7,14.7,3.4,5.6,3.8,13.6,9.9,17.3,2.3,4.7,10.2-1.7,7.7,3-5.2,8-12.8-3.3-13.5-9.1-10.6-1-5.9,11.1-4.4,13.9,2.4,2.3,0,.1,2.3,1.8s.5.3.5.3,4.3,3.5,5.2,5.6-2.7.5-2.5,2,1.1,1.2,3,4.5a60,60,0,0,1,3.7,8.7l4.5.7.7,5.2s-1.6,2.7-3,2.5-.6-2.6-2.5-3.5-3.3.5-5,0-.6-1.9-1.7-2-1.4,1.1-3,1.7-2-2-3.5,1-3.1,9.6-2.5,10.9c.2.5,8,4.8,8.2,5.2.9,1.3-5.9,8.5-8.2,12.1a2.35,2.35,0,0,0,.56,3.28,2.33,2.33,0,0,0,1.14.42c.6.1,3.7-4,4.7-3.5s.2,4.4-.5,5.4c-.5.7-4.7.6-7.5,1.7a6.82,6.82,0,0,0-3.5,3s5,8.7,9,8.2c3.4-.4,5-.7,4.7,0-1.8,3.9-6.7,9.9-9,16.6-.7,2,1.1,6.4,3.2,11.1s2.5,6.5,5.2,7.7c.7.3,4-1.7,4.7-1.5,2.7.7,1.9,6.7,7.9,6.9,3.3.1,1,16.2,1.2,19.3,5.5-2.7,8.8-10.7,15.3-12.9,1.9-3.5,4.1,0,.3.9-6,4.7-9.8,12.5-14,18.9-5.6.2-9.2,8.5-12.6,9.6-.3,4.4-3.2,3.6-2.4,7.6,2.2,4.9-1.5,8-6.6,6.5a17.37,17.37,0,0,1-18-1.2c-4.9.7-10.3-1.4-15.5-.4-5.7,1.1-17.6-.5-19.2,4.4-4.2,2.6,2.9,7.2-2.3,10.6-3.4,6.7-9.1.5-13.7,1.2,0,2.6.6,5.3-.9,7.6s-1.8-8.1-.2-.6-2,13.1-6.6,17.7c-5.5.9-2,9.6-9.1,8.7-3.8-.6-2.1,1.6-3.9,2.4-4.4-1.1-4.3,5.4-5.5,10.2-6.1-.3-3.1,5.5-7.6,7.8-2.5,4.7-8.6,5.4-10.9,9.7-4-3.2-8,1.1-12.6,2.8-1.7,2.4-2.6,7.4-.2,9.2,7.7,3.2,5.5-9,11.6-5.8,7.5.4,9,7,12.1,11.9,1.1-.9,3.1-4.4,5.8-4.4,5-3.6-4-5.7.2-7.4,2.8-2.7,0-4.4,2.7-7.6.5,0,1.2,4.8,1.1,5.5,1.9-3.2,3.9-4.2,6.5-6.1,4.9.3,4.9-3.3,5.8-6.7.8-4.4,4.4-.1,5.7-1.2,6.9,1.8,11.8-4.3,18.7-1.8,2.3,5,7,0,2.2-1.2,5.9-2.2,5.7,7.7,11.9,4.7,4.8-2,6.3,7.4,10.3,6.2,4.1,2,7.2-.3,7-5.1,3.4-2.1,2.7-5.5,5.5-3.9,3.9-4.4-.7-3.8-1-8.1,5.5-.5-.5-5.6,4-8.8,3.5-2-2-12.7,1.9-6.5,2.5,7.6,7.2-3.2,11.6-3.2,7.7,1.1,14.5-6.3,21.9-1.2,5.6,3.9,16.2,7.6,14.8,15.1.8-.6.8-2,1.7-2.6-2.5-3-1.6-9.3,4.6-6.8,7-.3,12,3.8,18.2,3,2.7-2.7,1.9-4.3,1.4-6.5-3.9.2-4-2.2-6.2-1.1-2.5-.9,2.5-2.5,4.9-2.2,1.2,5.8,5.6-3.2,10.2.2.5-.4.9-2.9,4.9-2.1,5,3.5,6.5-.6,11-2.6,7.6.4,6.5-6.2,1.5-9-7.2-3.9,2.2-.9,4.2,2.3,3.2,1,8,8.7,10.1,4-3.1-3.1-1.2-3.9,2.4-2.7-4.3,3.1,1.7,7.3,1.9.9,4.5-4.3.1,5.1,1.5,3.9,4.7,2.3,1-8.7,3.8-3.6-.4.3,5.5-.3,1.5,2.6-2.9,1.5,8.5,8.1,7,2.7,1.9-1.6,12.5-2.6,17.8-3.7,11.1-5,21.9,2.9,32.3,5,4-7.5,12.9-7.6,20.3-10.2,3.6-6.2,9.4-4.8,15.3-3.4-2-7.3,5-13.3,11.8-13.8,5.8-1.2,12.7-6.1,9.6-13.4-3.9-5.4,3.7-5,2.6-10.4-1.7-.7-3.7.1-5.5.3-9.3-.8-17.8,5.7-26.7,2.2,3.2.9,11-1.6,3.6-4.9-3.5-1.9-7.4-1.3-7.5.5-1.2.1-1.3,4.2-5,2.2-6,1.2-.6-5.3,3.2-3.7,4.9-2.9-6.3-4.8-9.1-3.9-1.2.6-7.3,4.9-4.8,2.1,1.7-5.4,8.4-3.2,11.5-5.8,4.6.9,10.2.5,13.4-4.2,4.7-3.6-1.6-2.1-2.4-1.7-5.4-3.6,1.9.4,3.6-3.3,3.5-5.2-.9-10-5.7-5.6-1.8.9-4.7,1.2-4.8-1.4,6.5,1.5,7.3-5.6,13.2-5.7,3,5.4,10.7,1.9,13.7-2.7,3.3-5.4-1.1-.2-3.4-2.8,2-2.3,7.3-6.6.3-5.4-5.9.8-4-2.5.4-.8,6.2,2-1-6,3.2-2.1,2.2,8,7.4-1.6,9.2-5.4,6.4-.7,8.3-8.1,7.9-14.1,1.3-7.7,6.7-14.6,6.9-22.2-1-10.2-1.7-22.5-12.7-27.6-6-7.5-15.5-7.6-23.7-10.6-5.2-1.4-.4.7-1.8,1.2a84.93,84.93,0,0,0-17.6-.7c-6.2-2.2-9.3,4.3-10.1,10.1-3,2.7-2.2,8.2-5.5,3-7.2,3.1-7.9-11-15.7-6.4.9-3.4,6.2-7.9,9.4-12.1,6-3.6,9.7-9,7-16.1-3.2-9.8-5.8-20-15.3-23.7-3.1-5.6-8.9-5.8-12.7-11.3-1.3-6.8-6.8-3.8-11.5-3.8-3.5,3.7-6.3-.9-9-.6-5.8,3-3.7-1.8,1.1-2,5.8,5.3,14.7-4.5,19.1,1.7,3.4,5,8.4,7.5,14,5.3,5.7-.4,2,8.3,4.3,4.5.2-7.8-7.8-13.7-11.1-20.5-5.1-6.5-11.2-20.8.3-23.9-2-3.4-11.4-2.5-9.4-8-6.2-2.3-7.2-7.4-9-13.1-3.3-4.2-3.6-10.1-9.6-11.2-5.6-6.4-14.4-6-20.9-10.5-5-4.1-2.6,3.7-6.5,1.1,2.1-2.9-.8-5.3,1.1-7.6-8-3.8-8.3-13.9-9.5-21.5-2.8-6-5.8-10.9-7.5-17.2,1.2-5-4-9-2.1-14.2-2.3-3.9-1.7-7.9-1.5-12.5-1.6-5.1-1.1-9.6-5.2-13.1-4.4-1-2.9.1-4.3-3.4-1.2,1-4,.1-4.9-3.7a43.53,43.53,0,0,1-9-10.6c-2.2-3.9-.8-.3-2.2,1.9s-2.5,2.4-3,3.5a7.58,7.58,0,0,1-1.8,2.5c-.6.6-1.6,1.3-2.3,1.9s-.7,1.9-1.2,2.5a25,25,0,0,1-2.3,2.3,3.24,3.24,0,0,0-1.4,2.3,5.17,5.17,0,0,0,.2,2.5,11.11,11.11,0,0,0,.7,2.6,12.58,12.58,0,0,0,2.5,2.6c.4.4.7,2.1,1.2,2.8s.2,2.1.4,2.8a10.06,10.06,0,0,1,0,3c0,1.3-1.4,1.8-2.3,2.3s-1.3,1.7-1.8,2.3c-.7.9-1.3.7-2.3,1.2-.8.4-1.5,1.8-2.5,2.3-.1.1-.2,0-.4,0-1.1,0-2.1,1.3-2.6,1.9a6.27,6.27,0,0,1-3,1.6,9.79,9.79,0,0,0-2.3,1.8,12.76,12.76,0,0,1-2.6,1.9c-.8.2-.9,1.3-1.1,2.1a7.42,7.42,0,0,1-.9,2.5c-.5.9-1,1.4-1.4,2.3a12.52,12.52,0,0,1-2.5,3.2,8.63,8.63,0,0,1-2.8,1.9c-1.3.6-1.6,1.3-2.8,1.6-.7.2-1.7,2.3-2.3,2.8a7.87,7.87,0,0,1-2.3.9c-1.1.3-1.4,1.2-2.8,1.2-.5,0-1.6,3.7-2,4s3.7.4-.2,1.1m65-60.4c-2.7,2.5-5-3.3-.2-.4ZM553,560.9c4.1,1.6-4.4.4-.4,0Zm27.3,88.8C579.1,651.7,578.9,648.6,580.3,649.7Zm-13,8c-5.8,3-4.1-2.5.6-.7C568.6,657.6,567.8,657.7,567.3,657.7ZM205.3,799C209.9,800.1,202.9,800.2,205.3,799Zm-.4,3.1c2.6,2.4-3.3,2.1,0,0Zm-2-2.3c3.4,1.9-1.4,2.1,0,0Zm83.3-95.7C287.7,708.5,284,707.3,286.2,704.1Zm70.4-240.3c-2.6,4,6.8,11.2.4,6.6C356.4,468.7,353.8,464,356.6,463.8Zm4.2-38c.2,0,.5.3.8,1.1-1.5,5.3-1.7-1-.8-1.1Zm9.8,15.8a1.54,1.54,0,0,1,.6.3c3.7,2.1-1.5,15,.2,6.2,2-1.6-1.6-6.5-.8-6.5Z"/><path id="path4771" class="cls-2" d="M464.4,744.6c-5.7,1.1-4.4,10.1-11.8,7.3-2.6-4-11.2-6.8-12.1-6.6,2.2-4.7,7.3-3,8.7-5.1,3.9-5.9,8.8.7,13.7.5C463,742,465.9,743.4,464.4,744.6Z"/></g><g id="layer1" class="cls-1"><path id="path26828" class="cls-2" d="M365.8,391.8c-.4.3,3.7.4-.2,1.1s-7.4,1.5-11.5.9-8-1.5-10.9-1.3c-1.2,2.1-4.5-2.2-3,3.2s-2,7-6.9,6.1c-3.6,3.2-5.9,1.3-5.7.4-1.9,3.3.9,5.1-4.7,7.4-3.9,4-8.2.5-6.6-4.2-1.6,4-2,8-6,3.5-2.7-1.5,0-9-4-3.7-4.2.9-5.9-5.6-7-5.6-3.9,3.7,1.1,6.8,2.6,9.9-2.5,1.4,1.5,7.4-1.6,9.3-6.1-.1-8.5-5.6-12.3-9-3.8-1.6-7.8-4.9-10.6-6.5-6.1,1.9-7.4,6.3-4.1,11.2,1.8,2.7,3.3,7.4,2.1,8.5-6.6-1.5-2.3-8.4-6.7-11.2-4.4-4.8-12.6-14.5-6.7-21,6.3-2.4,1.6,11.3,8,8.2-3-5.1-5.4-11.3-1.7-17.3,2.7-6.1,10.2-10.2,9-18.4,3.7-3.4,3.6-9.8,9.8-10.5,3-3.7-1.2-8.1-1.5-9.2,1.2-6.5-7.8-5.9-9-10.5-7.2-2.5,3.1-7.3-2.4-11.8-2-6.5,1.5-17.7,9.1-11.5,2.4,0,13.2,2.3,9.1.4-7-.2-12.2-8.4-15.3-11,.3,3.3,6.9,8.6-.4,6.5-4.1-3.3,1.1-10.9.3-11.7-3.1,6.4-3-8.2-3.5.3,1.3,2.8,1.6,10.7-.8,11,.8,1.6-.7,10.1-4.2,11.7-3.3-.4-2.4-13.1-4.2-8.2,3.3,7.8-4.8.7-5-1-1,4.3-2.6,7.3-.5,11.5-5.5-1-8.5-6-7.2-11.4-.1-5.6,5-11.7,9.2-15.4,5.4-1.9,4.8-8.5,11.1-10.2,1.4-2.9-5.8,2.3-6.8,2.7-1.2,6.8-10.1,7.3-11.8,14.1-1.2,3.5-5.3,5.8-6.6,3.5-.4,8.1,3.2,13.6,6.5,20.8-4.5,3.3-9.9,10.1-7.9,16,1.1,2.4-1.8,6.6-2.3,10.3-.9,3.7-4.6,4.8-.6,7.2,2.9,7.2-9.2,11.4-14.2,8.4-1.7-6.2,3.6-9.5,5.1-14.2-.8-6.7,1.1-13.9,3-19.2s9.2-9.4,9.6-14c-2.7,3.4-6.5,9.9-9.3,5-4.3-4,3.8-11.2,2.9-12.5-2.5,4-7.2,4.4-4.2-1.1,4.2-3.6,6.6-12.5,2.1-5.7-2,2.5-4.1,9.5-3.5,2.5,3-3.4,3.8-10.5,8.4-9.3-3.6-1.9,2.2-7.3.4-8.9-2.3,3.7-6.4,7.9-3.2.9,3-3.6.3-4.2-.2-7.5-.2-7.3,4.7-11.4,7.6-17.2,2,0,14.2.8,5.6-.5-2.9.6-4.4-1.6-5.3-3.3-3.1,5-.3-5.4,3.5-1.7,3.3-1.3,8.2-5.4,1.7-2.2-5.4,3.2-3.9-3.7-1.3-6.5,3.1-2.5,2.2-6.2,8.2-6.5,3.6,2.4,9-3.6,2.7,0-8.6,0-2.9-6.5.2-10.3,1.5-3.6-5.6,4.1-5.7,5.6-1.5,3.9-5.8,3.9-7.7,8.5-5,1.4-8.3,13.1-14.8,12.7-3.7-2.8-4.5-3-9.9-4.2-5.6-3.3-7.4-12.1,1.1-9,3.6-3.7,7.4-4.9,12.1-2.4,8.1-2.5-1.9.5-4.3-2.7-4.1-.4-7.4,4.9-11.9,2.3-3.6-1.4-14.1,2.5-13.4-4.4h0c2.9-3.7,9.4-2.7,13.8-4,3,4,3.7-.1,4.4-.2,3.5.8,5.8-2.1.4-3.5.1-3.8,10.7-2,8.6-5.9-1.6,4.2-7.9,1-2.2-.7-2.9.2-13.7,1.2-7.4-1,1.4-.5-.1-4.1,1.7-6.8.7-6.3,6.5-3,9.1-.4,3.2.5,10.2-3.7,3-1.2-5.6,1.6-2.3-6.9-7.5-4-5.5-4.3,5.9-12.2,9.3-5.7,3.5,1.5,8.9-2.3,2.2-.4-1.4-2.7-5.5-3.6-8.4-5.1,2-3.3,3-5.2,2.6-8.3,5-4,6.8,2.4,11.5,2.7.6-.7-5.4-3.3-7.1-5.3-4.3,1-13.3-.8-6.1-5.5,4,.3,12.3-4.7,10.5-7.1-2.4,4.5-10.9,7.7-7.8,1.2-2.5,3.1-11,7.9-9.7,1.2,0-2.1,1.2-5.3-2.5-5.4-1.2-5.2,1-16.9,5.7-9.2,2.2-1.4,2.9,3.4,5.2,3-2.5-3,10.8-.4,3.4-3.3-5.4.8-5-1.1-7.4-2.7,0-4.6-7.2-4.9-3-9.5.7-3.5,8.1,1.4,3.7-3.8-7,.3-4.4-8.6-5.2-12.7,4.7-.6,7.5-.7,7.5,5.4,1.5,4.3,2.5,2.8,3.1,1.4,2.8-1.1-1-6.4-2.3-8.9.3-5.6,5.4-2.9,5.5,1.4,5.7,5.7,3.4-7.3,9.1-1.8,1.9,3.8,10.2,4.4,3.4,1.1-2.5-2.1-8.7-5.8-2.7-5.4,1.5,3.9,6.5.8,9,5.1,3,1.6,5.4,7.1,3,.8-3.2-2.6-7.1-4.2-4.7-7.7-4.7-2-9.2-6.3-11.6-9-4.3-3.6,1.2-6.8,2.9-1.5,1.9-1.1,8.4.6,4.8-4.1,1.5-1.3-.2-1.5,1.8-3.3-4.2-1-4.9-5.9-7.8-9,2-2.6,5.7,3.2,9.6-.5,3.4.9,4.7-3.4,8.2-.2,2.8.1,4.3,3.2,3.6-.1,1.2,0-11.1-3-8.6-6.8-2.2.4-.6-10.6,2.7-6.9,6.3,2.3-1.5-1.9-.5-2.4-.6-4.3,7.9.6,3.7-3.4-5.8-.9-4.9-6.5-.4-9.6,1.1-2,.2-4.6,1.1-6.7,3.5,1.6,8.6,1.5,9.5,5.9,2.8-1.1.8-6.1,3.2-.9,7.2,1.8,1.4,7.5-.9,12,3.5-1,4.5-6.6,8.3-9-2.4-7.7,14.1-.1,6.6,5-3,5.8.9,3.6,1.8-.6,1.9-5.2,8.9-3.1,9-3.3,1.6-2.9,3.8,0,5.6-3.5,4,4.1,5.1-7,6.4.2,6.5,1,12.2,0,17.2-5.2,4.5-1.1,4.9,1.5,7.9,1.6,3.3-.4,10.8,1.3,4.8-3.5.1-1.9.4-2.5,1-2.6,1.5-.1,4.4,3.8,7.3,1.4,3.4,1.7,8-.3,11,1.4,0,5.3-7,9.2-5.4,14.8,2.3,1.6,7.6-.4,3.4,4.5-2.1,7.8-7.9,13-15.7,15.5-4.3,6.1-8.9,12.5-15.3,16.5-4,3-7.9,5.5-10,9.5-4.9,1.6-7,5.3-6,9.4-.4,4-6.4,4.3-10,3,2.2,3.9,8.5,4.4,12.2,2.1,3.1,1.5-1.3,3.4,3.9,1.5,2.4-.1,5.7-7.8,4.4-1.4-3.4,4.9-6.9,10.9-11.4,14,.9-4.3-1.9-6-5-2.4-3.5,4.1-9.7,1.3-11.4,7.2-4.6,2.3-5.6,8.9-.6,2.8,3.8-5.4,8.4-7.2,13.3-5.6,6.8-3.8,2.6,2-.1,5.2-.5,3.1-3.8,3.1-5.3,5.4-5.6-1.4,2.4,1.6-2.3,4.5,4.6,2.2,7.6-3.8,10.5-6.5-4.8-4.3,8.5-.2,11.3-3.1,3.8-4.9,9.2-5.4,14.5-6.4,7-10.1,17.3,1.7,26.5.2,4-3.2,8.1-3,12.8-1.1,6.5-.3,15.1,3.9,20.7.2,3.3,0,7.5,2.1,10.8-1,5.8,0,9.2,2.4,12.8,7,1.8,2.1.4,8.2,3.8,10.7-2.6.8,1.7,3.6-2.2,5.9-3.5,6.4-15.2,16.6-12.7,27.3,1.2,6.8-8,12.2-5.8,19.6-1.6,6.5-7.6,12-11.6,14.7-1.1,4.8-.8,6.8-4.3,10.1,2.4,5.6-6.3,9.5-10.3,12.8-.7,5.1-5,.8-8.4,3.4-6.6-.6-13.3,2.6-17.9,8.4-5.9,0-4,2.4.9.9,5.9-2.5,11.5-6.9,17.2-8.4,5.8-.3,1.9,7.5,2.5,7.8,1.6,4.4,13,2.6,11.1,8.9-4.3,5.2-10.9,8.2-17,5.1-4.8,3.6-10.5,7.7-11.6,13.3-6.5-1-11,6.6-17.1,1.8-3.4-4.3-13.2.7-5.7,2.1,5.4,0,11.2,2.2,15.9,2.5,4.4.6,9.3.6,13.2,3.3,4.3-.5,9.7-3.3,9.5-7.6,2.8-4.4,14.6-3.5,14.2,3.3,6.4-2.6,11.9,8.6,19.3,6.8,3.2,1.9,4.4,4.5,6,9.6-1.4,2.2-4.4,4.5-5,5.6a7.58,7.58,0,0,1-1.8,2.5c-.6.6-1.6,1.3-2.3,1.9s-.7,1.9-1.2,2.5a25,25,0,0,1-2.3,2.3,3.24,3.24,0,0,0-1.4,2.3,5.17,5.17,0,0,0,.2,2.5,11.24,11.24,0,0,0,.7,2.6,12.32,12.32,0,0,0,2.5,2.6c.4.4.7,2.1,1.2,2.8s.2,2.1.4,2.8a10.06,10.06,0,0,1,0,3c0,1.3-1.4,1.8-2.3,2.3s-1.3,1.7-1.8,2.3c-.7.9-1.3.7-2.3,1.2-.8.4-1.5,1.8-2.5,2.3-.1.1-.2,0-.4,0-1.1,0-2.1,1.3-2.6,1.9a6.27,6.27,0,0,1-3,1.6,9.79,9.79,0,0,0-2.3,1.8,12.76,12.76,0,0,1-2.6,1.9c-.8.2-.9,1.3-1.1,2.1a7.42,7.42,0,0,1-.9,2.5c-.5.9-1,1.4-1.4,2.3a12.74,12.74,0,0,1-2.5,3.2,8.63,8.63,0,0,1-2.8,1.9c-1.3.6-1.6,1.3-2.8,1.6-.7.2-1.7,2.3-2.3,2.8a7.87,7.87,0,0,1-2.3.9c-1.1.3-1.4,1.2-2.8,1.2C367.3,387.7,366.2,391.5,365.8,391.8Z"/><path id="line524" class="cls-2" d="M234,291.6c1,5.2-4.2,10.9-6.2,15.8-1.4-2.3-10.9,3.3-7.5-3.3C223,298.5,230.3,294.1,234,291.6Z"/><path id="line526" class="cls-2" d="M237.2,281.1c2.2,2.3-1.7,10.2-1,2.8C236.7,283.2,235.4,279.3,237.2,281.1Z"/><path id="line532" class="cls-2" d="M212.3,293.7c-1.4,4.8-4.5,10.1-6.5,6.5C206.5,296.4,210.6,293.5,212.3,293.7Z"/><path id="line534" class="cls-2" d="M236.5,264.9c-1.3,1.4.1,6.9-3.2,4.3-.9-1.6-3.8,4.2.9,1.4.5,4.7-12.6,9.1-8,2.7a34.24,34.24,0,0,1-19.5,6.1c-2.1,5.5-9.5-5.8-2.8-5.2,2,2.8,3.3,2.3,3.7.4,3,2.2,14.5-4.7,9.1-3.6-3,2.1-11.6,2.6-5.8-2.1.2-5,9.5-4.1,7.7-8.2-5.5,4.4-7-1.5-12-2.8-6.4,1.2-2.5-3.7-2.1-4.7-4-2,3.3-3.8,4.4-1.8-2.4-6.4,8.6-5.4,9.6.8,1.9,4.2,4.1,7.2,8.6,6.8C229.6,258.9,234.2,263.1,236.5,264.9Z"/><path id="line535" class="cls-2" d="M247.2,255.7c-1,3-10.7,11-7.1,6.1C240.7,260.4,247.4,253.8,247.2,255.7Z"/><path id="line538" class="cls-2" d="M211.8,263.4c-4.9,2.1-6.7-5.2-1-1.3C211.2,262.5,212.5,262.7,211.8,263.4Z"/><path id="line542" class="cls-2" d="M183.3,256.9c-1.8,2.1-4.4,1-5,4.2-5.1-1.6-3,6-7.8,3.2-2.4-3.9,1.9-7.2,6.4-7.1C179.7,257.4,182.1,253.9,183.3,256.9Z"/><path id="line543" class="cls-2" d="M196.7,244c-1.2,6.4-7.5,9.3-11.8,9.7-1.4.4,3.3-5.4,6-7C191.6,245.2,197.2,241.8,196.7,244Z"/><path id="line546" class="cls-2" d="M214.2,221.8c1.9,6.6-8.4,4.2-4,.5C212.1,222.7,211.5,216.3,214.2,221.8Z"/><path id="line547" class="cls-2" d="M207.2,215.3c0,7.3-7.4,4.9-9.1.1-4.4-1.1,5.6-8.8,7.5-4C208.3,212.1,206.8,214.1,207.2,215.3Z"/><path id="line548" class="cls-2" d="M195.1,209.6c-3.7,2.3-8.9.8-2.5-.8C193.3,208.4,195.3,208.4,195.1,209.6Z"/><path id="line550" class="cls-2" d="M212.3,162.6c1.1,5.1-.4,14.8-1.4,15.8,3.5.3,1.1,5,3.6,7,3.3.7,1.8,4.5,2.5,4.5,4.6-.7,9.9,5.9,14.4.3,2,.2,4.3.1,5.3,2.1,1.7,6-7.2,5.8-6.8,9.2-1,3.5-5.4,6.7-7.4,9.9-4.3,4.4-6-.7-3.4-4.3-2.1-5.4,8.9-7.3,7.7-8.7-3.8,2.4-7.2.2-8.6-2.7.8,3.8-4.8,11.5-3.9,3.4-1.7-3.3-9,3.1-10.4.5,5.5-3-7.9-1.6-2.4-5.3-1.4,0-5.7-4-6.1-6.3,1.3-6.9,7.3.8,7.5-.5-3-3-2.8-5.8-6.2-4.5-.7-2.5-1.8-5.2-3.3-2.3-.4-6.1-2.4,1.3-2.5,4.1-4.3-2.1-8.3-3.4-9.5-8.2-3.9-1.9,1.1-3,1.4-3.2-3.3-5.4,3.3-4.4,4,.2,4.4,3.9,3.7.7,1.6-3.1,1.9-1.8,4.1-.7.5-4.5-3.3-3.8.9-9.2,1.9-2.1,1.8,3.4,7.5,4.9,7,5.3-.4,6.3,1.7-6.3,3.2.4,6.7,5-5.4-5.1.2-7.7-4.4-2.6-1.5-6.6,1-9.7-1.3-3.3,6.6,1.9,6.4,5.1C211,157.4,211.6,160.9,212.3,162.6Z"/><path id="line555" class="cls-2" d="M220.5,170.3c-3.1,4.4-1.5,9.2-.9,13.2-5.4,5-4.6-7.8-2.2-10.1C219.8,174.5,219.1,167.4,220.5,170.3Z"/><path id="line565" class="cls-2" d="M211.5,84.9c-4.2,2.6.5,6.9-.7,7.5-3.5,3.1-8.1,8-8.2,10.7,4.6,4.3,11.1-9.2,10.2-.3-2,4.1-5.7,3.7-9,2.5-2,.5-4.7-2.5-2.7,2.1,3.5,4.9-6.2,6.2-7.7,7.8,5.5-.2,7.6-3.8,8,2.9,1.5,7.1-8.7,2.6-8.5,4.1,6.7,1.6,1.8,8.2-1,7.3-.8,4.8-5.1-5.2-3.5,1.2-4.8-.8-5.4-8.3-4.3-11-4.3,3.6,0,10.7,1.2,13.3-.8,2.4-10.4-1.8-5.1,3.3,2.7,2.6-1.2,4-2,4.3-3.1-.5-4.4,5-6.9,7.6-2.2-1.3-8.2-6.9-9.2-10.1,3.9.6,2.7,5,5.1.2,1.1-1.8,5.6-3.2,5.4-3.8-4.6-3.3,3.3-2,5.2-2.3-1.5-3.3-6.8-4.9-10.8-4.9-4-2.5-4.4-5.4-.3-6.4,4.4-1.9-1.8-1.4-.1-2.8-2.5-2.2-4.6-6.8-2-10.2-.1-2.4,7-.3,2-3.4.1-5.5,4.8-.8,5.7-2.2,3.5,2.6-2.5,3.3,3.3,5.1.8-4.9,8.4,1.9,8.3-1.3-3.7-3-8-10.5-1.5-12.1,2.3-3.7,7.8-2.8,10.2-4.6,2.3-6.5,11.7-9,13.8-14C210.5,78.1,210.8,80.9,211.5,84.9Z"/><path id="line566" class="cls-2" d="M180.8,103.2c-.4,5.2-8.6-7.5-2.5-2C178.7,102,179.9,102.2,180.8,103.2Z"/><path id="line569" class="cls-2" d="M170.6,132.8c-2.9,2.6-6.8,1.4-1.8-1.5C170.1,129.7,170.6,131.5,170.6,132.8Z"/><path id="line575" class="cls-2" d="M165.9,157.5c-.4,4.1-8.2-3.1-5.2,1.4-.1,3.6,5.6.3,2.1,5.1-4.8.8-8.8-1.9-7.8,2.2-.1,6.8-5.4-8-9.4-2.9-5.5-2.2-1.3-5.7,0-8.4,2.9.4,5-1.3,3.1,1.9,2,1.2,5.2-8.4,4.3-1.9,2.9,6.7,3.6-6.5,7.9-1C156.9,158.5,166.9,153.7,165.9,157.5Z"/><path id="line580" class="cls-2" d="M158.4,175.2c-1,8.7-16.3-3.3-6.1-4.8C154.6,172.4,157.3,172.3,158.4,175.2Z"/><path id="line581" class="cls-2" d="M156.9,184.1c-3.4.1-11.1-6-4.5-4.9C155.8,180.6,155.1,181.8,156.9,184.1Z"/><path id="line582" class="cls-2" d="M159.1,188.2c-2.2,2.9-3.5,7.8-7.4,5.7,1.4.1,7.9,6.3,2.9,7.3-6.5.3,2.5.9,3.1,3.3,0,2.6-8.9,1.9-9.2-2.3-1.8-7-.9-11.3.6-18.3-1.9-6,0-1.8,3.1-.4C155.3,184.7,158.3,186.8,159.1,188.2Z"/><path id="line585" class="cls-2" d="M147.9,211.2c-.5,3.6,2.4,4.9,0,7.8-3,2.1-9.1-.1-4.2-3.4-1.4-1.5,3.9-4.4,3.2-5.1C147.2,210.7,147.7,210.8,147.9,211.2Z"/><path id="line586" class="cls-2" d="M144.7,221c-.4,2.6-5.3,1.4-2.6-1.2C142.4,220.6,146.1,220.4,144.7,221Z"/><path id="line2130" class="cls-2" d="M157.6,160.9c-3.8,3.1-1.7-.3-2-1.8C155.9,160.4,157.9,159.5,157.6,160.9Z"/><path id="path26824" class="cls-2" d="M311.9,95.2c.7,0,1.9.6,3.2,2.5h-.5C310.9,97,310.7,95.2,311.9,95.2Z"/><path id="path26820" class="cls-2" d="M283.9,107.5c5.9,3.3,11.8,7.4,15.4,13.2-.7.3-1.1-.7-1.5-1.1C294.4,115.5,283.7,107.8,283.9,107.5Z"/><path id="path26818" class="cls-2" d="M313.4,127.6c.8-.1,8.4,3.3,3.2,2.3C313.7,128.3,313,127.7,313.4,127.6Z"/><path id="path26816" class="cls-2" d="M299.8,131.6c.2,0,.9.6,2,2.3.5,3.7,10,.6,5.2,2.7C303.3,139.4,299,131.6,299.8,131.6Z"/><path id="path26814" class="cls-2" d="M245.9,143.2c.3-.1,1,.6,1.6,2.8.4.6,3.2,2.9.9,2.5C245.6,146.7,245.3,143.4,245.9,143.2Z"/><path id="path26812" class="cls-2" d="M239.1,145.6a46.28,46.28,0,0,0,4.4,4c1.5,1.1,12.1,7.9,7.5,6.3-3.4-3.9-9.9-1.7-10-7.7C239.7,146.3,239.1,145.6,239.1,145.6Z"/><path id="path26810" class="cls-2" d="M267.2,155.2a16.31,16.31,0,0,1,2.6.3c.9.7,5.6-1.3,4.2.5-3.1,1.5-9.6-.6-7.3-.8Z"/><path id="path26808" class="cls-2" d="M338.8,155.3c.7,0,1.1.5.6,2.1C334.8,158.1,337.4,155.4,338.8,155.3Z"/><path id="path26806" class="cls-2" d="M300.7,168.8c1.1,1.1,7.2-.2,5.3,1.5C302.1,172.4,291.9,169.4,300.7,168.8Z"/><path id="path26804" class="cls-2" d="M266,175.1c1.7-.2,4.9,2.6,3,2.4-2.7-2-10.8-.3-3.6-2.1A.83.83,0,0,1,266,175.1Z"/><path id="path26802" class="cls-2" d="M301.9,179.3c.7,0,.3,1,.4,1.4-6,6.5-10.4,16.9-17.3,20.9C291.1,194.3,296.2,186.5,301.9,179.3Z"/><path id="path26800" class="cls-2" d="M274.7,207.1a13.45,13.45,0,0,1,1.9.2c.2.6-.5.5-.8.8C269.5,209.5,270.7,207,274.7,207.1Z"/><path id="path26798" class="cls-2" d="M255.6,207.3a5,5,0,0,1,4,1.7c-2.4-.8-9.4,2.3-8.7.8A8.1,8.1,0,0,1,255.6,207.3Z"/><path id="path26796" class="cls-2" d="M277,213.6c.2,0,.2.3,0,1-1.4,3.5-9.8,9.9-4.3,3.3C273.2,217.2,276.3,213.5,277,213.6Z"/><path id="path26794" class="cls-2" d="M230.4,218c3.1,1.7,11.5,0,12.1,1.2l-.3.2-.4.1C238.5,220.2,226.8,220.8,230.4,218Z"/><path id="path26792" class="cls-2" d="M305.5,221.9c.4,0-.1.8-.5.8-3.8,4.4-7,12.4-8.8,15.7.5-5.5,5.4-11.7,8.9-16.3C305.3,222,305.4,221.9,305.5,221.9Z"/><path id="path26790" class="cls-2" d="M393.4,240.6c1.3,0,4.3,1.4,1,1.9C392.3,241.1,392.6,240.6,393.4,240.6Z"/><path id="path26788" class="cls-2" d="M284.9,240.7c.8,0,1.2.1.7.7-4.2,2-14.9-.1-4.8.1A38.05,38.05,0,0,1,284.9,240.7Z"/><path id="path26786" class="cls-2" d="M308.1,242c.9,0,1.4.2,1,1-4.4.8-15.8.9-5.6-.2C304.2,242.8,306.6,242,308.1,242Z"/><path id="path26784" class="cls-2" d="M318.9,252.9a6,6,0,0,1-.8.8c-4.9,2.4-7.4,9.1-13.3,8.9C310.7,261.3,313.7,253.2,318.9,252.9Z"/><path id="path26782" class="cls-2" d="M278.1,254.2a4.89,4.89,0,0,1,2,.6C277,259.4,275.3,254.2,278.1,254.2Z"/><path id="path26780" class="cls-2" d="M265.6,255.2c.1,0,.2.1.2.3-1.4,3.5-6.4,10.8-8.6,9.1C260.5,263.8,264.6,255.1,265.6,255.2Z"/><path id="path26778" class="cls-2" d="M313.6,269.5c1.2,0,1.7.1-.5.6-4,1.7-11.1,0-3.1-.2A15.58,15.58,0,0,1,313.6,269.5Z"/><path id="path26776" class="cls-2" d="M266.3,269.8a.63.63,0,0,1,.7.55.38.38,0,0,1,0,.15c-2.7,4.1-9,5.1-10.3,10.2-.6,2.9-6.9,8.8-7.5,7.1,7.3-3.8,6.7-13.6,15.2-15.8C264.2,271.1,265.5,269.9,266.3,269.8Z"/><path id="path26774" class="cls-2" d="M288.7,278.7c2.1,3.2,7.9,2.1,8.6,4.9-.3,0-.4-.4-.7-.3C293.7,283.7,287.4,280.1,288.7,278.7Z"/><path id="path26772" class="cls-2" d="M284.6,280.6q.15-.15.6.6c-1,7.5,4.9,13.2,8.1,17.4-2.7.4-3.3,4.7-4,4.5-2.7-4.3-1.6-11.5-4.7-16.7C285,285.6,284.1,280.8,284.6,280.6Z"/><path id="path2663" class="cls-2" d="M261.1,311.4c4,3.8,8.8,8.6,7,14.2,1.4,6.2-1.9-1.2-4.8-2.2C264.7,318.6,255.4,314.9,261.1,311.4Z"/><path id="path2669" class="cls-2" d="M256.1,328.9c6.9.7,5.7,9.2,7.5,12.3,2.3,2.9-1.3,4.7,1.4,6.8,1.3,4-1.4,6.7-6.3,5.9-8.8-1.6-6.1-10-9.4-16.3C249.4,332.8,253.4,329.7,256.1,328.9Z"/><path id="line521" class="cls-2" d="M233.1,328.1c1.5,2.7-2.6,10.3-2.2,3.9C232.3,330.7,231.4,328,233.1,328.1Z"/><path id="path2674" class="cls-2" d="M212.8,311.3c-1.2,7.7,5.2,14.1,5.3,21.2-2.4,2.7-5.6,5.1-9.8,4.6-.7,8.2-10.4.9-3.1-2.2,2.7-3.6-7.2-7.6.6-9.6-.6-3.8-6.6.5-6.4,4.5-4,6.4-9,1.9-4-2.9,2.3-2.6-.6-4.5.9-7.9.1-2.2,6.5-4.6,6.2-3.5-1,6,.6,3.7,1.8-.2C206.1,314.1,213.1,307.1,212.8,311.3Z"/><path id="line523" class="cls-2" d="M226.8,307.7c.2,7.3-5,6.9-5.6,14.1-9.9,3.4-8.7-17.3,2.8-13.6C224.8,308.2,226.6,306.7,226.8,307.7Z"/><path id="path2749" class="cls-2" d="M274.2,322.8c1.5,6.1-5.7,2.9-.3-.6l.2.2Z"/><path id="path26770" class="cls-2" d="M300.1,366.6c.4,0,1.3.6,1.3,1.2-1.2,5.6-1.9,4.4-1.3-.3C299.8,366.9,299.9,366.6,300.1,366.6Z"/></g><g id="layer6" class="cls-1"><path id="path2651" class="cls-2" d="M285.9,532.8c2.3-1.4,6.7,5.5,3.9,6.6C289.1,535.3,281.7,536.3,285.9,532.8Z"/><path id="path2653" class="cls-2" d="M298.4,524.2c7.8-.8,7.8,7.5,11.4,10.9,4.9-3.9,9.8.3,3.3,3.8-4.8,2.2-7.3,8-10.8,10-4,.3-5.2-2.9-7.9-5.5-3.3-4.9-4.6-11.8-2.9-17C294.2,525.7,295.7,524.7,298.4,524.2Z"/><path id="path26826" class="cls-2" d="M381,674c.4-.9.7-1.8.7-1.8s1.6-11.5.6-16.6c-.4-2.3-2.2-.3-4.7-2.5s-2.6-5.5-5.2-6.2c-.7-.2-4,1.8-4.7,1.5-2.7-1.1-3.1-3-5.2-7.7s-3.9-9.2-3.2-11.1c2.3-6.7,7.2-12.7,9-16.6.3-.7-1.3-.4-4.7,0-4,.5-9-8.2-9-8.2a6.3,6.3,0,0,1,3.5-3c2.7-1.2,7-1.1,7.5-1.7.7-1,1.6-5,.5-5.4s-4.1,3.5-4.7,3.5a2.33,2.33,0,0,1-2.13-2.53,2.26,2.26,0,0,1,.43-1.17c2.3-3.6,9.1-10.8,8.2-12.1-.2-.4-8-4.7-8.2-5.2-.6-1.3,1-7.9,2.5-10.9s1.9-.3,3.5-1,1.8-1.8,3-1.7.1,1.5,1.7,2,3.1-.9,5,0,1.1,3.2,2.5,3.5,3-2.5,3-2.5l-.7-5.2-4.5-.7A74,74,0,0,0,372,552c-1.9-3.3-2.8-3-3-4.5s3.4.1,2.5-2-5.2-5.6-5.2-5.6,1.9,1.3-.5-.3-3.4-1.5-6.4-4.3c-7.5-10.8-16.4,2.7-25.5.2-2.5-1.7-11.3-6.5-6.3-.5-3.7,1.9-11.1,5.9-16.5,6.1-2.5,2.4-6.1,9.6-8.1,8.9,0,4.8-3.3,9.5-7.8,12.7-6,3.1-11.2,7.2-13.6,13.8,1.7,1.5,2.9-1.5,5.4-.9,3.3-4.1,5.8,3.3,7.9,1-.9-6.9,8.4-9.9,14.8-9.5,6.8,1.9-.1,8.7,4.5,11.8.9,4.3,5,2.5,5.2,2.9-5,2.5-9.2,11.5-2.2,14.9,5.1-2.4,5.2.9.3,1.7-2.6,1.6-1.9,10.5-4.6,14.6-3,7.6-10.7,9.8-16.1,14.1-2,4.5-10.3.4-11.9,4.1-2.2-.1-3.4,4.9-7.1,5.6.8,4.9-4.4,0-5.5,3.3-1.3-.3-8-4.1-6.7,1.3-1.9,3.6-8.3,4.1-10.7,6.8-2.6,5.9,5.5.1,8.7,4.2,2.3,5-.2,6.8-3.8,8.7-4.2.6.9,2.1,1.5,4.6,0-5.5,7,.1,10.9-2.1,8.1-1.3-3,2.7-4.6,1.9-1.4.6-6.4,0-.9,2.2,0,3.2,3.9,5.4,7.1,4.1,2.2-4.6,7.6-1.5,10.5-4.1-.3-7.4,8.2-5.5,13.6-6.5-2.3-4.9,1.2.2,2.7-2.9-.2,1.7,5.5,5.8.7,4-1.5,3,5,5.5,8.3,3.7,1.9,4,8.7-1.9,5.6,2.7-4.6,3.8-7.6-1.2-10.4,3.1-.5,3.7,2.2,6.5,5.8,5.2,2.5-2.5,6.9-1.2,9.9-1.4-4.1-4.1,5.6-5.9,7.1-3.9,4.5,2.4,3,11.6,8.4,10.7,5.5,8,16.7,9,24.6,5.4-.8-5.6,5.6-7.7,9-11.7C371.7,678.2,377.1,676.1,381,674Z"/></g><text class="cls-3" transform="translate(403.06 524.15)">UK</text><text class="cls-4" transform="translate(360.42 565.18)">3.202.771</text></svg>