<svg id="Layer_1" data-name="Layer 1" xmlns="http://www.w3.org/2000/svg" viewBox="0 0 285.6 299.1"><defs><style>.cls-1{opacity:0.92;}.cls-2{fill:#b100ff;}.cls-3{isolation:isolate;}.cls-3,.cls-4{font-size:18px;fill:#fff;font-family:ArialMT, Arial;}</style></defs><title>VS1</title><g id="svg2" class="cls-1"><path id="mexico" class="cls-2" d="M82.2,208.5,87,223.7l-2.3,1.2.2,3,4.2,3.3v6l5.2,5-2.2-14.9-3-9.8.8-6.8,2.5.2,1,2.3-1,5.8,13,25.4v9.1L115.9,266l11.5,5.3,4.8-2.8L139,274l4-4-1.8-4.5,5.8-1.8,1.8,1,1.8-1.8h2.8l5-8.8-2.5-2.3-9.8,2.3-2.2,6.5-5.8,1-6.8-2.8-3-9.6,2.3-12.1-4.6-2.9-2.2-11.6-1.8-.8-3.4,3.4-3.9-2.1-1.5-7.7-15.4-1.6-7.9-6-7.7.7Z"/><path id="alaska-westcopy" class="cls-2" d="M37.8,28l-8.4,2,1.7,9.5L40.2,42l.5,2L27.1,48.2,19.5,60.9l2.7,13.4,4.4,3L30.1,74l1,2-4.2,5L10.6,88.4.2,90.9,0,94.7l23.9-7L33.8,85l9.1-11.2L53,67.1l-5.2,8.7,5.7.8,9.6-4.2,1.7,7,6.7,1.5,6.9,6.7.5,5-1,1.2,1.2,4.7H81l.2-8h2l.4,19.5,4.9-4.2L85,85.5H80l-5.7-7.2L102.2,31,74.5,9.3l-30.8,6-1.2,9.4,6.7,4-2.5,6.4Z"/><path id="banks" class="cls-2" d="M148.4,19l.2,4-8,8.3,2,6.7,5.8-1.6,3.3-4.9,8.4-3.1,6.9-.5-5.3-5.8-2.7,2-2-.7L155.9,21l-2.4-2.5Z"/><path class="cls-2" d="M158.8,7.2,157,10.3l8.6,3.1,3.1-4.7,1.3,3.1h2.2l4.2-4.7-5.1-1.3-2-1.6L166.8,7Z"/><path id="eglinton" class="cls-2" d="M173.9,13.4,167,16.3v2.2l8.9,3.4-2,2.2,1.3,2.9,5.5-2.5h4.7l2.2,3.6,3.8-3.8-.9-3.6-3.1,1.1-.4-4.5,1.6-2.7H187l-2.4,1.6-1.1.9.7,3.1-1.8,1.3-2.7-.2-.7-4Z"/><path class="cls-2" d="M183,6.5l-.7,2.2,4.2,2,3.1-1.8-.2-1.3Z"/><path class="cls-2" d="M186.3,2.7l-3.1,1.1.2,1.6,6.9-.4-.2-1.6-3.8-.7Z"/><path class="cls-2" d="M201.2,6.5,200.7,8l-1.1,1.6v2.2l4.2-.7,4.4,3.8h1.6V11.1l-4.4-4.9Z"/><path class="cls-2" d="M212.5,11l1.8,2-1.6,2.7,1.1,2.9,4.9-2.7v-2l-2.9-3.4Z"/><path class="cls-2" d="M218.9,5.8l.2,3.6h6l1.6,1.3-.2,1.6-5.3.7,3.8,5.1,5,.9,7.1-3.1L226.9.4l-3.1,2,.2,2.7-3.6-1.3-1.5,2Z"/><path id="victoria" class="cls-2" d="M167.2,31.1l-8.4,2.2-4.9,4.2.4,4.7,8.9,2.7-2,4.5-6.4-4L153,48.7l4.2,2.9-.3,4.7,6.4,1.8,7.8-.5,1.3-2.5,5.8,6.5,4-1.3.7-4.5,2.9,2,.4-4.5-3.6-2.2.3-14.1-3.1-2.5L176.5,39Z"/><path class="cls-2" d="M194.3,40.9l-2.9-1.3-1.6,2,3.1,4.9.2,4.7,6.6-4V41.4l2.4-2.5-2.4-1.8h-4l-1.4,3.8Z"/><path id="prescott" class="cls-2" d="M208.5,38.9l-4.7,3.8,1.1,4.7h2.9l1.3-2.5,2,2,2-.2,5.3-4.5-9.9-3.3Z"/><path id="cornwallis" class="cls-2" d="M208,31.5l-1.1,2.2,4.9,1.8,1.3-2-5.1-2Z"/><path id="bathurst" class="cls-2" d="M205.1,23l-4.9.7-2.9,2.7,5.3.2-1.6,4,1.1,1.8,1.6-.2,3.8-6Z"/><path id="devon" class="cls-2" d="M213.6,21.5l-2.7.9.4,3.6,4.4,2.9L216,31l-1.3,1.3.7,4.5,17.1,5.6,4.7,1.6,4.7-4-5.5-4.5-5.1,1.3-7.1-.7-2.7-2.7-.7-7.4-4.4-2.2-2.8-2.3Z"/><path id="baffin" class="cls-2" d="M227.5,44.7l-4.9-.5-5.8,2.2-3.1,4.2.9,11.6,9.5.5,9.1,4.5,6.4,7.4,4.9-.2-1.3,6.9-4.4,7.4-4.9,2.2-3.6-.7-1.8-1.6-2.7,3.6,1.1,3.6,3.8.2,4.7-2.2,4,10.3,10,6.5,6.9-8.7-5.8-9.4,3.3-3.8,4.7,7.8,8.3-7.4-1.5-3.3-5.8,1.8-4-11,3.8-6.2-7.5-8-4.2,2.9-4-8.7-8.4,1.1L233,47.2l-6.9,4.7-.7,5.8h-3.8l.4-5.1Z"/><path id="bylot" class="cls-2" d="M237.5,48.7l-1.8,1.8,1.6,2.5,7.3.9-4.6-5Z"/><path id="ellesmere" class="cls-2" d="M230.4,23.5v2l-4.9,1.1,1.3,2.2,5.5,2.2,6.2.7,4.4,3.1,4.4-2.5-3.1-3.1h4l2.4-2.7,6-.9V24.3l-3.3-2.2.4-2.5,9.3,1.6,13.8-5.4-5.1-1.6,1.3-1.8h10.6l1.8-1.8L263.9,3,259,1.3l-5.5,4L247.3.2,243.9,0l-.7,4.2L239,.4,234.2,2l.9,2.5L242.4,6,242,9.6l4,2.5,9.8-2.5L256,13l-8,3.8-4.9-3.7-4.4.4,4.4,6.3-2.2,1.1L237.6,18l-2.4,1.6,2.2,4.2h3.8l-.9,4-3.1-.5-4-4.2-2.8.4Z"/><path id="southhampton" class="cls-2" d="M210.7,85l-4.2,5.3-.3,5.9,3.7-2.1h4.5l3.2,2.9,2.9-2.4Z"/><path id="newfoundland" class="cls-2" d="M262.2,154.2l-10.6,10.1,1.1,2.4,12.9,4.8,1.9-3.2-1.1-5.3-4.2.5-2.4-2.7,4-4-1.6-2.6Z"/><path id="canada" class="cls-2" d="M102.9,31.8l2,3,1,4,5,1.2,3.5-3.8,3,1.5,8.5.8,6-2.5,1,8.3h3.5V40.8l3.5.2,8.7,10.3,5.7,3.5-3,4.8,1.2,1.2,11.2,2.3.2,5,3,.5.8-7.5,4.7-1.2,3.5,5.3,7.5,3.5,3.7.8,2.5-3,.2-4.8,4.5-2.8,1.5,4-4,7,.5,3.5,2.2-3.5,4.5-4,.2-5.3-2.5-4,.8-3.3,6-3,2.7,2,.5,17.6,4.2-3.7,2.5,1.5-3.5,6,4.5,1,6.5-10,5.5,5.8-2.2,10.3-5.5,3-5.2-2.5-9.5,2,1,3.3-2.5,4-7.7,1.8-8.7,6.8-7.7,10.3-1,3.3,5.2,2,2,5,7.2,7.3,11.5,5-2.5,11.5-.2,3.3,3,2,4-5.3.5-10,6.2-.2,3-5.8.5-8.8,8-15.6,10,3.5L241,114l-2.2,7.3,4,2.3,9.7-6.5,2.7,17.8,9,10.8.2,5.5-10,2.5-4.7,5-10-2.3-5-.2-8.7,6.9,5.2-1.2,6.5-1.2,1.2,1.5-1.7,5.5.2,5,3,2,3-.8,1.5-2.3h2l-3.2,6-6.2.2-2.7,4h-3.5l-1-3,5-5-6,2L229,167l-1.7-1-5.3,2.3-.5,4.3h-12l-10.2,7-13.7,4.5-1.5-2,6.9-10.3-3.9-3.8-2.5-4.8-5.1-3.9-5.4-.4-9.8-6.8L93.6,140.5l-1.2-4.8-6.5-6v-5l1-4.5-.5-2.5-2.5-2.6-.5-4,6.5-4.5L86,85l-5.5-.2-5-6.5Z"/><path id="usa" class="cls-2" d="M93.4,141.4l-1,4-3.5-2.3H87.2l-1,4.3L74,174.8l3.2,23.8,4,2,.8,6.5h8.2l8,6,15.7,1.5,1.7,8,2.5,1.8,3.5-3.5,2.7,1.2,2.5,11.5,4.2,2.8,3.5-6.5,10.7-7.8,7,3.3,6,.5.2-3.8,12.4.2,2.5,2.8.5,6.3-1.5,3.5,1.7,6h3.7l3.7-5.8-1.5-2.8-1.5-6,2.2-6.8,10.1-8.7,7.7-2.3-1-7.3,10.7-11.6,10.7-1.8-1.7-6,10.5-6v-8l-1-.5-3.7,1.2-.5,4.9-12.4.1-9.7,6.5L185,185l-2.4-3,6.9-10.5-3.4-3.3-2.3-4.5-4.8-3.9-5.2-.4-9.9-6.8Z"/><path class="cls-2" d="M78.5,111.5l-1.7,3.3.6,2.3,1.1.7-.3.9L77,119l.3,3.4,1.3,1.3,1-1.1-1.3-3.3.8-2.7,1.9-2.5-1.4-2.3Z"/><path id="vancouver" class="cls-2" d="M84.1,131.1l-1.5.6,2.8,3.3.7,3.9,2.8,3,2.4-.4v-3.9l-2.9-1.8C88.4,135.6,84.1,131.1,84.1,131.1Z"/><path id="guatemala" class="cls-2" d="M139.5,274.6l5.9,4.3,6-7.4-1-1.5-2-.1v-4.4l-1.5-.9-4.7,1.4,1.8,4.1Z"/><path id="honduras" class="cls-2" d="M152.2,271.9l9.2-.4,2.7,3.3-1.7-.4-3.3.1-4.3,4-1.8,4.1-1.2-.6v-4.5l-2.7-1.8,3.1-3.8Z"/><path class="cls-2" d="M146.3,279.4l4.7,2.3-.1-3.7-2.4-1.5-2.2,2.9Z"/><path id="nicaragua" class="cls-2" d="M162.4,275.2l2.2.4.1,4.5-2.6,7.3-6.9-.7-1.5-3.5,2-4.3,3.9-3.6,2.8-.1Z"/><path class="cls-2" d="M162,288.1l1.4,2.7,1.1,1.5-1.5,4.5-2.9-2-4.7-4.3v-2.9l6.6.5Z"/><path id="panama" class="cls-2" d="M165.2,292.7l-1.5,4.6,4.8,1.2,3,.6.5-3.5,3.2-1.6,2.9,1.5,1.1,1.8,1.4-.2,1.1-3.2-3.6-1.5-2.7-1.5-2.7,1.8-3.2,1.6-3.3-1.3Z"/><path id="belize" class="cls-2" d="M149.2,265.5l-.1,3.6h.8l2.9-5.3h-1.9l-1.7,1.7Z"/></g><text class="cls-3" transform="translate(138.16 151.88)">VS</text><text class="cls-4" transform="translate(104.06 171.72)">73.295.395</text></svg>